<svg xmlns="http://www.w3.org/2000/svg" width="12.141" height="15.314" viewBox="0 0 12.141 15.314">
  <path id="Path_657" data-name="Path 657" d="M-2.2,1.653A3.934,3.934,0,0,1-4.18,1.178,3.324,3.324,0,0,1-5.462-.086a3.43,3.43,0,0,1-.447-1.72,4.093,4.093,0,0,1,.38-1.71,5.376,5.376,0,0,1,1.055-1.53,5.763,5.763,0,0,1,1.567-1.14A5.356,5.356,0,0,1-.988-6.726,3.788,3.788,0,0,1-2.08-8.132a3.931,3.931,0,0,1-.352-1.6,3.806,3.806,0,0,1,.513-1.909A4.12,4.12,0,0,1-.522-13.1,3.7,3.7,0,0,1,1.5-13.661a2.125,2.125,0,0,1,1.549.513,2.012,2.012,0,0,1,.523,1.5,4.274,4.274,0,0,1-.228,1.377,3.734,3.734,0,0,1-.561,1.1.893.893,0,0,1-.655.428.576.576,0,0,1-.4-.181,1.382,1.382,0,0,1-.3-.427,7.08,7.08,0,0,0,1.111-1.226,2.351,2.351,0,0,0,.447-1.377,1.434,1.434,0,0,0-.314-.96,1.212,1.212,0,0,0-.979-.371,2.175,2.175,0,0,0-1.5.542,3.375,3.375,0,0,0-.921,1.425,5.67,5.67,0,0,0-.314,1.91,5.906,5.906,0,0,0,.086.969A3.733,3.733,0,0,0-.636-7.429a2.8,2.8,0,0,0,.694.893,4.653,4.653,0,0,0-2.214.969A5.478,5.478,0,0,0-3.619-3.781a4.452,4.452,0,0,0-.523,2.033A3.6,3.6,0,0,0-3.9-.485,2.433,2.433,0,0,0-3.135.58a2.209,2.209,0,0,0,1.425.428A4.016,4.016,0,0,0,.238.494,6.458,6.458,0,0,0,1.948-.874,7.633,7.633,0,0,0,3.211-2.8a7.287,7.287,0,0,0,.627-2.213q-.4.019-.732.057t-.731.1q-.4.067-1.026.2a1.12,1.12,0,0,1,.608-1.064,3.214,3.214,0,0,1,1.368-.266,7.391,7.391,0,0,1,1.083.076q.513.076.979.152a7.669,7.669,0,0,0,.845.095,1.033,1.033,0,0,1-.408.523.985.985,0,0,1-.389.086q-.323,0-.6.009t-.5.01A7.436,7.436,0,0,1,3.62-2.527,8.27,8.27,0,0,1,2.138-.39,7.233,7.233,0,0,1,.124,1.1,5.175,5.175,0,0,1-2.2,1.653Z" transform="translate(5.909 13.661)" fill="#fff"/>
</svg>
