<svg xmlns="http://www.w3.org/2000/svg" width="88.663" height="28.032" viewBox="0 0 88.663 28.032">
  <g id="bann" transform="matrix(0.985, 0.174, -0.174, 0.985, -215.037, -172.239)">
    <g id="contents_pt2" transform="translate(73.742 -62)">
      <path id="Path_321" data-name="Path 321" d="M422.237,424.215l.055-.025c.9-.157.263-.03,1.093-.178.322-.076,1.381-.242,1.669-.305,0,0,.4-.068.377-.055.123-.034.424-.076.674-.127l-.14.021.589-.11c.229-.034.288-.038.038,0,1.538-.267,8.9-1.559,10.593-1.856-.212.03-.725.127-.919.148.424-.085.644-.11.847-.153s.962-.165,1.3-.208l.127-.03.216-.034c1.924-.347.424-.081,2.148-.381.987-.174,1.453-.271,2-.364-.081,0-.3.051-.047,0,.047,0,.682-.123.805-.14.254-.042,1.063-.186.788-.148.14,0,.847-.144.424-.064l.657-.114-.314.051c.826-.148,1.271-.22,1.813-.322l-.305.047c.491-.085.9-.161,1.1-.182l-.5.093c.818-.144,1.314-.233,1.991-.36l-.242.042c.847-.165,5.411-.974,6.207-1.127l-.369.055.686-.131c-.081,0-.326.089-.394.1l10.512-1.856c.551-.093.1,0,.093,0,.669-.123.288-.059.847-.161a1.12,1.12,0,1,1-.119.03c.25-.047.483-.081.5-.089a1.9,1.9,0,0,1-.314.034l.729-.127h-.03c.161-.03.424-.093,1.131-.216l3.75-.661-.534.106c.165-.03.424-.076.563-.1-.292.042.513-.1.284-.059.89-.174,2.047-.36,2.835-.513.064-.025,1.64-.551,1.64-.568l.564-.1c-.064,0-.547.089-.8.136h-.042c-.589.106-.14.021-.716.123-.03,0,.5-.1.962-.182-.424.072-.847.14-1,.182a4.236,4.236,0,0,1-.424.059c-.339.064-.78.148-1.169.212h0c-.945.157-1.441.267-2.3.424l.093-.021-1.453.254c.157-.025.292-.047-.038,0-.631.11-1.064.191-1.525.263l-.424.089-13.122,2.335h.085c-3.364.6-10.279,1.813-13.762,2.44-.538.085-1.271.22-1.843.318.314-.055.208-.03-.038,0-1.695.3-.114.025-1.843.335-1.991.356-9.622,1.695-11.393,2-.949.178-2.119.381-3.063.551h.093c-1,.178-6.665,1.165-7.826,1.377l.157-.025c-1.013.182-.877.148-1.674.284.106,0-.763.153-1.093.212h0l-2.453.449h.03c-.686.127-1.979.352-2.474.424-1.131.2-2.877.491-4.385.767l-.983.153-.14.03s-1.534.508.47.208h-.03l.394-.068c.475-.081.695-.127.661-.114l-.648.114c.479-.085.144-.021-.034,0l.547-.093-.14.021c.254-.047.61-.114.919-.165.487-.089.034,0,.6-.1,3-.521,5.911-1.025,8.94-1.563.068,0,0,0-.1.021l2.542-.453.36-.055C417.432,425.037,422.16,424.215,422.237,424.215Z" transform="translate(-231.97 -218.531)" fill="#fff"/>
      <path id="Path_325" data-name="Path 325" d="M421.529,420.244l.055-.021c.9-.161.267-.034,1.1-.182.322-.076,1.381-.241,1.665-.305,0,0,.4-.068.377-.055.123-.034.424-.076.674-.127l-.136.021.585-.106c.233-.038.288-.042.038,0,1.538-.267,8.919-1.559,10.593-1.856-.216.03-.725.127-.924.148.424-.081.648-.11.847-.153s.962-.165,1.3-.208l.123-.03.22-.034c1.924-.347.424-.081,2.144-.381.987-.174,1.453-.271,2-.36-.081,0-.3.047-.042,0,.042,0,.678-.123.805-.14.25-.042,1.064-.186.784-.148.14,0,.847-.144.424-.064l.657-.114-.314.051c.822-.148,1.271-.216,1.809-.322l-.305.047c.491-.085.907-.161,1.1-.182l-.5.093,1.991-.36-.246.042c.847-.165,5.411-.974,6.211-1.127l-.373.055.661-.114c-.085,0-.331.085-.4.093l10.512-1.856c.551-.089.1,0,.1,0,.665-.123.284-.059.847-.161.153-.025-.034,0-.119.03.25-.042.479-.081.5-.089a1.887,1.887,0,0,1-.318.034l.733-.127h-.034c.165-.03.424-.093,1.131-.216l3.75-.657-.53.1c.165-.03.424-.076.564-.1-.3.042.513-.1.28-.059.89-.174,2.051-.36,2.835-.513.068-.025,1.644-.551,1.64-.568l.564-.1c-.064,0-.542.089-.8.136h-.042c-.585.11-.14.021-.712.123-.034,0,.5-.1.962-.182-.424.072-.847.144-1.008.182-.394.064.042,0-.424.064-.335.059-.78.144-1.169.208h0c-.945.157-1.441.267-2.3.424l.093-.021-1.458.254c.157-.025.3-.042-.034,0-.636.11-1.064.191-1.53.267l-.424.085-13.1,2.322h.085c-3.39.6-10.283,1.813-13.762,2.44-.542.085-1.271.22-1.843.318.309-.055.2-.03-.038,0-1.695.3-.114.025-1.847.335-1.991.36-9.618,1.695-11.389,2-.949.178-2.119.381-3.068.551h.093c-1,.178-6.661,1.165-7.822,1.377l.157-.025c-1.013.182-.877.148-1.695.284.106,0-.758.157-1.089.216h0l-2.419.453h.034c-.686.127-1.983.352-2.474.424-1.131.2-2.877.491-4.39.767l-.979.157-.144.025s-1.53.508.475.208h-.03l.394-.072c.475-.081.691-.127.661-.114l-.648.114c.475-.085.144-.021-.038,0l.551-.1-.144.021c.254-.047.61-.114.924-.165.487-.085.034,0,.6-.1,3-.521,5.906-1.025,8.94-1.563.068,0,0,0-.1.021l2.542-.453.364-.055Z" transform="translate(-231.559 -216.254)" fill="#fff"/>
      <path id="start" d="M573.116,409.542a.424.424,0,0,1-.424-.3c-1-3.182-2.059-3.97-5.178-3.813a.424.424,0,0,1-.14-.826c2.966-.975,3.673-2.089,3.487-5.415a.431.431,0,1,1,.847-.153c1,3.178,2.072,3.966,5.182,3.813a.424.424,0,0,1,.14.826c-2.966.974-3.674,2.089-3.487,5.419a.424.424,0,0,1-.343.424Zm-3.682-4.9a4.084,4.084,0,0,1,3.3,2.385,4.106,4.106,0,0,1,2.237-3.39,4.093,4.093,0,0,1-3.3-2.381A4.084,4.084,0,0,1,569.434,404.639Z" transform="translate(-320.497 -210.887)" fill="#ff0"/>
    </g>
  </g>
</svg>
