<svg xmlns="http://www.w3.org/2000/svg" width="86.177" height="47.906" viewBox="0 0 86.177 47.906">
  <g id="bell" transform="translate(0 0.001)">
    <path id="Path_430" data-name="Path 430" d="M489.535,140.923c-2.017-1.1-4.1-3.25-4.462-4.733a2.921,2.921,0,0,1,.349-2.166,2.073,2.073,0,0,1,3.777.505,2.4,2.4,0,0,1,4.493.13,3.864,3.864,0,0,1-1,3.593,12.206,12.206,0,0,1-3.151,2.671" transform="translate(-411.106 -112.737)" fill="#be71cb"/>
    <path id="Path_431" data-name="Path 431" d="M535.643,84.895a3.574,3.574,0,0,1-1.616-1.729,1.077,1.077,0,0,1,.127-.791.753.753,0,0,1,.318-.3.742.742,0,0,1,.822.111.76.76,0,0,1,.23.372.88.88,0,0,1,.332-.4.863.863,0,0,1,.984.028.883.883,0,0,1,.309.417,1.42,1.42,0,0,1-.364,1.312,4.438,4.438,0,0,1-1.142.976" transform="translate(-452.641 -69.507)" fill="#f5f5f5"/>
    <path id="Path_432" data-name="Path 432" d="M486.922,62.349a4.134,4.134,0,0,1-1.892-2,1.231,1.231,0,0,1,.152-.914.878.878,0,0,1,1.6.213,1.021,1.021,0,0,1,1.9.055,1.648,1.648,0,0,1-.425,1.524,5.18,5.18,0,0,1-1.338,1.129" transform="translate(-411.106 -50.012)" fill="#ebebeb"/>
    <path id="Path_433" data-name="Path 433" d="M542.922,215.349a4.134,4.134,0,0,1-1.892-2,1.231,1.231,0,0,1,.152-.914.878.878,0,0,1,1.6.213,1.021,1.021,0,0,1,1.9.055,1.648,1.648,0,0,1-.425,1.524,5.181,5.181,0,0,1-1.338,1.129" transform="translate(-458.574 -179.701)" fill="#ebebeb"/>
    <path id="Path_434" data-name="Path 434" d="M536.922,13.349a4.134,4.134,0,0,1-1.892-2,1.232,1.232,0,0,1,.152-.914.878.878,0,0,1,1.6.213,1.021,1.021,0,0,1,1.9.055,1.648,1.648,0,0,1-.425,1.524,5.18,5.18,0,0,1-1.338,1.129" transform="translate(-453.488 -8.477)" fill="#ebebeb"/>
    <path id="Path_435" data-name="Path 435" d="M502.922,251.349a4.134,4.134,0,0,1-1.892-2,1.231,1.231,0,0,1,.152-.914.878.878,0,0,1,1.6.213,1.021,1.021,0,0,1,1.9.055,1.648,1.648,0,0,1-.425,1.524,5.179,5.179,0,0,1-1.338,1.129" transform="translate(-424.668 -210.216)" fill="#be71cb"/>
    <path id="Path_436" data-name="Path 436" d="M4.535,142.923c-2.016-1.1-4.1-3.25-4.462-4.733a2.92,2.92,0,0,1,.349-2.166,2.113,2.113,0,0,1,2.057-1.009,2.122,2.122,0,0,1,1.72,1.514,2.4,2.4,0,0,1,4.493.13,3.864,3.864,0,0,1-1,3.593,12.206,12.206,0,0,1-3.151,2.671" transform="translate(0 -114.432)" fill="#ebebeb"/>
    <path id="Path_437" data-name="Path 437" d="M50.643,86.895a3.573,3.573,0,0,1-1.616-1.729,1.076,1.076,0,0,1,.127-.791.753.753,0,0,1,.318-.3.742.742,0,0,1,.822.111.76.76,0,0,1,.23.372.881.881,0,0,1,.332-.4.863.863,0,0,1,.984.028.882.882,0,0,1,.309.417,1.42,1.42,0,0,1-.364,1.312,4.433,4.433,0,0,1-1.142.976" transform="translate(-41.534 -71.203)" fill="#f5f5f5"/>
    <path id="Path_438" data-name="Path 438" d="M1.922,64.349a4.134,4.134,0,0,1-1.892-2,1.231,1.231,0,0,1,.152-.914.878.878,0,0,1,1.6.213,1.021,1.021,0,0,1,1.9.055,1.648,1.648,0,0,1-.425,1.524,5.18,5.18,0,0,1-1.338,1.129" transform="translate(0 -51.707)" fill="#be71cb"/>
    <path id="Path_439" data-name="Path 439" d="M57.922,217.349a4.134,4.134,0,0,1-1.892-2,1.231,1.231,0,0,1,.152-.914.878.878,0,0,1,1.6.213,1.021,1.021,0,0,1,1.9.055,1.648,1.648,0,0,1-.425,1.524,5.18,5.18,0,0,1-1.338,1.129" transform="translate(-47.468 -181.396)" fill="#be71cb"/>
    <path id="Path_440" data-name="Path 440" d="M51.922,15.349a4.134,4.134,0,0,1-1.892-2,1.231,1.231,0,0,1,.152-.914.878.878,0,0,1,1.6.213,1.021,1.021,0,0,1,1.9.055,1.648,1.648,0,0,1-.425,1.524,5.18,5.18,0,0,1-1.338,1.129" transform="translate(-42.382 -10.172)" fill="#ebebeb"/>
    <path id="Path_441" data-name="Path 441" d="M17.922,253.349a4.134,4.134,0,0,1-1.892-2,1.231,1.231,0,0,1,.152-.914.878.878,0,0,1,1.6.213,1.021,1.021,0,0,1,1.9.055,1.648,1.648,0,0,1-.425,1.524,5.181,5.181,0,0,1-1.338,1.129" transform="translate(-13.562 -211.911)" fill="#ebebeb"/>
    <path id="Path_443" data-name="Path 443" d="M213,218.336a3.226,3.226,0,0,0,3.577-.776C216.366,218.574,215.354,220.149,213,218.336Z" transform="translate(-180.548 -184.414)" fill="#fbe5ff"/>
    <rect id="Rectangle_5" data-name="Rectangle 5" width="0.891" height="5.344" transform="translate(25.994 39.185) rotate(28.916)" fill="#9855a4"/>
    <path id="Path_444" data-name="Path 444" d="M111.048,111.452c-12.7,0-25.322-8.04-30.048-12.06,5.778-3.359,10.61-10.154,12.3-13.132,10.165-14.292,21.221-4.824,18.724,5.628A55.246,55.246,0,0,0,111.048,111.452Z" transform="translate(-68.659 -66.964)" fill="#fbe5ff"/>
    <path id="Path_445" data-name="Path 445" d="M81,213c4.72,4.012,17.332,12.036,30.015,12.036C108.135,224.569,97.922,216.031,81,213Z" transform="translate(-68.659 -180.548)" fill="#be71cb"/>
    <rect id="Rectangle_6" data-name="Rectangle 6" width="0.891" height="5.344" transform="translate(60.815 37.537) rotate(-33.288)" fill="#9855a4"/>
    <path id="Path_446" data-name="Path 446" d="M305.291,87.419c-7.617,10.139-21.6,15.408-27.639,16.774.789-6.625-1.728-14.554-3.085-17.69-5.294-16.676,8.886-19.835,15.719-11.583A54.981,54.981,0,0,0,305.291,87.419Z" transform="translate(-231.752 -59.794)" fill="#be71cb"/>
    <path id="Path_447" data-name="Path 447" d="M302.713,197.948c6.039-1.367,19.813-6.6,27.43-16.743Z" transform="translate(-256.592 -153.598)" fill="#fbe5ff"/>
    <path id="Path_448" data-name="Path 448" d="M156.832,9.432v4.386s-21.334,7.3-19.421,1.129.893-13.319.893-13.319l1.645.693Z" transform="translate(-116.373 -1.381)" fill="#fbe5ff"/>
    <path id="Path_449" data-name="Path 449" d="M140.691,17.607c-2.024,0-3.4-.471-3.4-1.754a2.445,2.445,0,0,1,.122-.722,30.205,30.205,0,0,0,1.165-8.722,36.524,36.524,0,0,0-.268-4.563c.057.252.609.661,1.516,1.168-.834,3.7-.76,10.412,10.731,10.412a38.37,38.37,0,0,0,4.5-.289l-.016,1.446.522-.165h0l-.55.174c-.564.177-1.239.383-1.988.6-1.3.381-2.826.8-4.409,1.186A37.2,37.2,0,0,1,140.691,17.607Z" transform="translate(-116.372 -1.565)" fill="#9855a4"/>
    <path id="Path_450" data-name="Path 450" d="M295.447,9.432v4.386s21.334,7.3,19.421,1.129-.892-13.319-.892-13.319l-1.645.693Z" transform="translate(-250.433 -1.381)" fill="#fbe5ff"/>
    <path id="Path_451" data-name="Path 451" d="M317.876,17.608c-3.442,0-8.752-1.363-12.332-2.412-.749-.22-1.423-.426-1.988-.6l-.193-.061.029-1.409a38.576,38.576,0,0,0,4.62.3c11.491,0,11.566-6.709,10.731-10.412.907-.507,1.459-.915,1.516-1.168a36.571,36.571,0,0,0-.268,4.563,30.208,30.208,0,0,0,1.165,8.722,2.45,2.45,0,0,1,.121.722C321.277,17.136,319.9,17.608,317.876,17.608ZM302.949,14.4l-.083-.027Z" transform="translate(-256.722 -1.565)" fill="#9855a4"/>
    <path id="Path_452" data-name="Path 452" d="M253.9,53.476l.044-4.041.408.126c0,.024,0,.048,0,.073.023.636.038,1.347.042,2.1h0c0,.117,0,.235,0,.354h0c0,.459,0,.9-.012,1.329Z" transform="translate(-215.216 -41.904)" fill="#fbe5ff"/>
    <path id="Path_453" data-name="Path 453" d="M253.8,77.068l.016-1.446.482-.06c-.005.281-.012.554-.02.815q0,.1-.007.2c0,.01,0,.021,0,.031v0c0,.012,0,.023,0,.035s0,.025,0,.038a.848.848,0,0,0,.048.217Z" transform="translate(-215.129 -64.05)" fill="#fbe5ff"/>
    <path id="Path_454" data-name="Path 454" d="M303.075,51.573l-.414-.131.414.131Zm-.549-5.607h0c.2-.127.427-.268.675-.421C302.953,45.7,302.727,45.839,302.526,45.966Z" transform="translate(-256.434 -38.607)" fill="#c2c2c2"/>
    <path id="Path_455" data-name="Path 455" d="M303.641,53.442l-.468-.059c-.009-.454-.014-.933-.014-1.427q0-.129,0-.256h0c0-.7.014-1.366.034-1.972a.885.885,0,0,0-.008-.15l.539-.166Z" transform="translate(-256.97 -41.885)" fill="#fbe5ff"/>
    <path id="Path_456" data-name="Path 456" d="M303.363,76.942l-.414-.131-.083-.027a.848.848,0,0,0,.083-.371c0-.01,0-.02,0-.031-.01-.289-.018-.593-.025-.908l.468.059-.03,1.409" transform="translate(-256.722 -63.976)" fill="#fbe5ff"/>
    <path id="Path_457" data-name="Path 457" d="M145.4.049c-5.963-.651,7.7,5.3,17.071,8C162.473,8.051,151.365.7,145.4.049Z" transform="translate(-122.014 0)" fill="#9855a4"/>
    <path id="Path_458" data-name="Path 458" d="M312.518.049c5.963-.651-7.7,5.3-17.071,8C295.447,8.051,306.555.7,312.518.049Z" transform="translate(-250.433 0)" fill="#9855a4"/>
    <path id="Path_459" data-name="Path 459" d="M263.952,47.167c-.025-.706-.038-1.5-.038-2.335,0-.795.012-1.549.035-2.228a.776.776,0,0,0-.28-.645,5.558,5.558,0,0,0-3.4-.951,5.236,5.236,0,0,0-3.115.824.775.775,0,0,0-.293.657c.027.735.043,1.569.043,2.453,0,.841-.014,1.637-.039,2.346a.774.774,0,0,0,.294.656,5.242,5.242,0,0,0,3.11.821,5.552,5.552,0,0,0,3.406-.955A.775.775,0,0,0,263.952,47.167Z" transform="translate(-217.724 -34.761)" fill="#fbe5ff"/>
    <path id="Path_460" data-name="Path 460" d="M291.343,85.049a4.465,4.465,0,0,0,1.56-.734.672.672,0,0,0,.2-.243.672.672,0,0,1-.2.243A4.465,4.465,0,0,1,291.343,85.049Z" transform="translate(-246.954 -71.264)" fill="#dedede"/>
    <path id="Path_461" data-name="Path 461" d="M302.866,82.005a.847.847,0,0,0,.083-.371A.847.847,0,0,1,302.866,82.005Z" transform="translate(-256.722 -69.197)" fill="#931919"/>
    <path id="Path_462" data-name="Path 462" d="M258.419,85.2a3.864,3.864,0,0,1-.953-.492.691.691,0,0,1-.232-.3.691.691,0,0,0,.232.3A3.864,3.864,0,0,0,258.419,85.2Zm-1.2-.822h0Z" transform="translate(-218.034 -71.521)" fill="#dedede"/>
    <path id="Path_463" data-name="Path 463" d="M303.173,67.538c-.009-.454-.014-.933-.014-1.427C303.159,66.6,303.164,67.083,303.173,67.538Z" transform="translate(-256.97 -56.039)" fill="#a91d1d"/>
    <path id="Path_464" data-name="Path 464" d="M303.275,76.385c-.01-.289-.018-.593-.025-.908C303.256,75.792,303.264,76.1,303.275,76.385Z" transform="translate(-257.047 -63.978)" fill="#931919"/>
    <path id="Path_465" data-name="Path 465" d="M257.065,68.163c.008-.425.012-.87.012-1.329C257.077,67.292,257.073,67.738,257.065,68.163Z" transform="translate(-217.899 -56.651)" fill="#a91d1d"/>
    <path id="Path_466" data-name="Path 466" d="M256.932,76.378c.008-.262.015-.534.02-.815C256.947,75.844,256.94,76.116,256.932,76.378Z" transform="translate(-217.786 -64.05)" fill="#931919"/>
    <path id="Path_467" data-name="Path 467" d="M257.138,64.867c0-.119,0-.237,0-.354h0Q257.138,64.688,257.138,64.867Z" transform="translate(-217.96 -54.684)" fill="#a91d1d"/>
    <path id="Path_468" data-name="Path 468" d="M303.159,64.68q0-.129,0-.256h0C303.159,64.509,303.159,64.594,303.159,64.68Z" transform="translate(-256.97 -54.609)" fill="#a91d1d"/>
    <path id="Path_469" data-name="Path 469" d="M260.29,68.615a6.394,6.394,0,0,1-2.157-.329,3.86,3.86,0,0,1-.953-.492.692.692,0,0,1-.232-.3l-.01-.027h0a.844.844,0,0,1-.048-.219c0-.013,0-.025,0-.038s0-.023,0-.035v0c0-.01,0-.021,0-.031q0-.1.007-.2c.008-.262.015-.534.02-.815.008-.425.012-.87.012-1.329q0-.178,0-.354a3.548,3.548,0,0,0,7.012-.013q0,.127,0,.256c0,.494,0,.973.014,1.427.006.315.014.619.025.908,0,.01,0,.02,0,.031a.849.849,0,0,1-.083.371.671.671,0,0,1-.2.243,4.463,4.463,0,0,1-1.56.734A7.189,7.189,0,0,1,260.29,68.615Z" transform="translate(-217.747 -54.609)" fill="#9855a4"/>
    <path id="Path_470" data-name="Path 470" d="M264.837,45.689c-.563,0-1.534-.251-2.638-.251s-2.076.251-2.638.251c-.324,0-.513-.083-.513-.346,0-.718,1.411-1.3,3.151-1.3s3.151.582,3.151,1.3C265.35,45.606,265.161,45.689,264.837,45.689Z" transform="translate(-219.58 -37.334)" fill="rgba(255,255,255,0.62)"/>
    <path id="Path_471" data-name="Path 471" d="M416.832,165.069c-.508-.242-1.277-.886-2.274-1.361s-1.982-.667-2.49-.909c-.293-.139-.427-.3-.314-.532.309-.648,1.832-.566,3.4.183s2.595,1.88,2.286,2.528C417.331,165.214,417.125,165.208,416.832,165.069Z" transform="translate(-348.987 -137.174)" fill="#fff"/>
    <path id="Path_472" data-name="Path 472" d="M125.349,174.608c-.4.4-1.258.913-2.036,1.7s-1.283,1.65-1.679,2.05c-.228.23-.42.305-.606.121-.509-.505.071-1.917,1.3-3.152s2.631-1.828,3.141-1.323C125.651,174.186,125.577,174.378,125.349,174.608Z" transform="translate(-102.432 -147.338)" fill="#fff"/>
    <path id="Path_473" data-name="Path 473" d="M404.221,257.117a7.078,7.078,0,0,1-4.614-.89,2.086,2.086,0,0,1-.7-1.415,1.507,1.507,0,0,1,2.441-1.3,1.749,1.749,0,0,1,2.708-1.818,2.764,2.764,0,0,1,.91,2.526,8.842,8.842,0,0,1-.744,2.893" transform="translate(-338.128 -213.083)" fill="#be71cb"/>
    <path id="Path_474" data-name="Path 474" d="M137.563,281.116a7.078,7.078,0,0,1-1.158-4.554,2.086,2.086,0,0,1,.983-1.235,1.507,1.507,0,0,1,2.212,1.658,1.749,1.749,0,0,1,2.8,1.677,2.764,2.764,0,0,1-1.9,1.9,8.842,8.842,0,0,1-2.935.557" transform="translate(-115.557 -233.213)" fill="#be71cb"/>
    <path id="Path_475" data-name="Path 475" d="M141.115,283.592l-.146-.043h0Zm.633-.8.075.133h0Zm1.067.062.093-.12,0,0,0,0Zm.358,1.005-.148-.034-.1.42.34-.265Zm1.8,1.08-.15-.026h0Zm-1.223,1.223.053.143h0Zm-1.763.277a5.5,5.5,0,0,1-.639-1.507,2.781,2.781,0,0,1-.088-1.3l-.294-.081a3.061,3.061,0,0,0,.087,1.462,5.8,5.8,0,0,0,.677,1.594Zm-.728-2.81a1.191,1.191,0,0,1,.562-.705l-.149-.266a1.5,1.5,0,0,0-.705.886Zm.562-.706a.834.834,0,0,1,.459-.106l.018-.3a1.141,1.141,0,0,0-.626.144Zm.459-.106a.841.841,0,0,1,.444.159l.179-.247a1.146,1.146,0,0,0-.605-.216Zm.44.156a.84.84,0,0,1,.276.382l.287-.1a1.143,1.143,0,0,0-.376-.52Zm.276.382a.833.833,0,0,1,.027.469l.3.069a1.138,1.138,0,0,0-.037-.64Zm.269.623a.97.97,0,0,1,.538-.2l-.018-.3a1.274,1.274,0,0,0-.707.267Zm.538-.2a.977.977,0,0,1,.561.137l.157-.261a1.283,1.283,0,0,0-.735-.18Zm.561.137a.976.976,0,0,1,.385.429l.277-.127a1.281,1.281,0,0,0-.505-.564Zm.385.429a.968.968,0,0,1,.075.57l.3.052a1.274,1.274,0,0,0-.1-.75Zm.074.571a1.633,1.633,0,0,1-1.127,1.106l.108.285a1.929,1.929,0,0,0,1.319-1.34Zm-1.126,1.106a5.543,5.543,0,0,1-1.84.35l.005.3a5.846,5.846,0,0,0,1.941-.369Z" transform="translate(-119.443 -239.474)" fill="#fff"/>
    <path id="Path_476" data-name="Path 476" d="M406.19,261.874l-.111.1h0Zm-.361-.951.152,0h0Zm.6-.886-.056-.142h0Zm1.047.206-.105.11.311.3-.054-.428Zm1.849-1-.1.116h0Zm.427,1.676.15.027h0Zm-.662,1.657a5.5,5.5,0,0,1-1.622-.22,2.782,2.782,0,0,1-1.167-.591l-.22.211a3.062,3.062,0,0,0,1.3.672,5.8,5.8,0,0,0,1.716.232Zm-2.788-.809a1.192,1.192,0,0,1-.32-.843l-.3-.008a1.5,1.5,0,0,0,.4,1.059Zm-.32-.843a.835.835,0,0,1,.143-.448l-.252-.171a1.141,1.141,0,0,0-.2.612Zm.143-.448a.841.841,0,0,1,.364-.3l-.121-.28a1.144,1.144,0,0,0-.5.41Zm.359-.3a.841.841,0,0,1,.469-.043l.059-.3a1.146,1.146,0,0,0-.639.058Zm.469-.043a.836.836,0,0,1,.417.216l.211-.22a1.137,1.137,0,0,0-.569-.3Zm.673.087a.969.969,0,0,1,.1-.566l-.271-.14a1.274,1.274,0,0,0-.132.744Zm.1-.566a.976.976,0,0,1,.4-.412l-.145-.268a1.282,1.282,0,0,0-.53.54Zm.4-.412a.978.978,0,0,1,.566-.112l.032-.3a1.282,1.282,0,0,0-.743.147Zm.566-.112a.97.97,0,0,1,.528.227l.2-.231a1.272,1.272,0,0,0-.694-.3Zm.529.228a1.633,1.633,0,0,1,.376,1.534l.3.052a1.929,1.929,0,0,0-.479-1.818Zm.376,1.533a5.542,5.542,0,0,1-.639,1.76l.265.151a5.847,5.847,0,0,0,.674-1.857Z" transform="translate(-343.869 -219.391)" fill="#fff"/>
  </g>
</svg>
