<svg xmlns="http://www.w3.org/2000/svg" width="147.425" height="146" viewBox="0 0 147.425 146">
  <g id="bird" transform="translate(-68.903 -50.83)">
    <path id="Path_696" data-name="Path 696" d="M221.528,131.413c-18.863-9.854-38.508-29.442-42.126-43.136a27.1,27.1,0,0,1,2.871-20.138,19.2,19.2,0,0,1,35.069,4.051,22.275,22.275,0,0,1,41.641.457c4.236,11.3-1.159,24.048-8.678,33.474a113.126,113.126,0,0,1-28.746,25.291" transform="translate(-80.955 -5.322)" fill="#be71cb"/>
    <path id="Path_697" data-name="Path 697" d="M209.406,113.606l-.509.126v.008Zm2.25-15.782.453.264h0Zm14.8-7.6.069-.52h-.017ZM239.14,101l-.5.154.439,1.43.549-1.391Zm32.634.358-.492.182v0Zm-6.8,26.233.408.329,0,0Zm-22.31,19.356a87.32,87.32,0,0,1-20.856-15.677c-6.031-6.124-10.511-12.565-11.893-17.8l-1.013.268c1.453,5.5,6.089,12.1,12.16,18.265a88.363,88.363,0,0,0,21.118,15.871ZM209.915,113.48a20.71,20.71,0,0,1,2.194-15.392l-.906-.527a21.759,21.759,0,0,0-2.306,16.172Zm2.195-15.393a14.87,14.87,0,0,1,6.075-5.78l-.479-.933a15.919,15.919,0,0,0-6.5,6.188Zm6.075-5.78a14.772,14.772,0,0,1,8.219-1.559l.1-1.043a15.82,15.82,0,0,0-8.8,1.669Zm8.2-1.561a14.832,14.832,0,0,1,7.641,3.4l.678-.8a15.879,15.879,0,0,0-8.181-3.64Zm7.641,3.4a14.955,14.955,0,0,1,4.611,7.008l1-.308a16,16,0,0,0-4.935-7.5Zm5.6,7.046a17.027,17.027,0,0,1,6.312-7.866l-.586-.869a18.073,18.073,0,0,0-6.7,8.35Zm6.312-7.866a16.891,16.891,0,0,1,9.632-2.89l.012-1.048a17.939,17.939,0,0,0-10.23,3.069Zm9.632-2.89a16.9,16.9,0,0,1,9.568,3.1l.605-.856a17.948,17.948,0,0,0-10.162-3.293Zm9.568,3.1a17.041,17.041,0,0,1,6.143,8l.983-.364a18.089,18.089,0,0,0-6.52-8.5Zm6.143,8c3.221,8.589-.865,18.382-6.72,25.722l.82.654c5.93-7.434,10.3-17.628,6.882-26.744Zm-6.718,25.72a88.13,88.13,0,0,1-22.395,19.7l.549.893a89.172,89.172,0,0,0,22.661-19.937Z" transform="translate(-102.838 -28.453)" fill="#fff"/>
    <path id="Path_698" data-name="Path 698" d="M344.572,422.526c-2.85-1.543-5.8-4.555-6.311-6.645a4.075,4.075,0,0,1,.508-3.036,2.929,2.929,0,0,1,5.35.709,3.408,3.408,0,0,1,6.347.182c.615,1.721-.249,3.634-1.418,5.061a17.258,17.258,0,0,1-4.462,3.75" transform="translate(-198.701 -266.087)" fill="#fbe5ff"/>
    <path id="Path_699" data-name="Path 699" d="M351.711,541c-2.539-1.386-5.17-4.09-5.622-5.967a3.685,3.685,0,0,1,.453-2.727,2.605,2.605,0,0,1,4.767.636,3.03,3.03,0,0,1,5.654.164c.548,1.545-.222,3.263-1.263,4.544a15.4,15.4,0,0,1-3.975,3.367" transform="translate(-204.486 -354.35)" fill="#fbe5ff"/>
    <path id="Path_700" data-name="Path 700" d="M412.9,583.635c-2.177-1.2-4.431-3.532-4.819-5.153a3.2,3.2,0,0,1,.388-2.355,2.246,2.246,0,0,1,.948-.889,2.215,2.215,0,0,1,2.453.33,2.266,2.266,0,0,1,.685,1.109,2.62,2.62,0,0,1,.989-1.191,2.576,2.576,0,0,1,2.937.085,2.629,2.629,0,0,1,.92,1.247,4.279,4.279,0,0,1-1.083,3.925,13.235,13.235,0,0,1-3.407,2.908" transform="translate(-250.239 -386.82)" fill="#fbe5ff"/>
    <path id="Path_701" data-name="Path 701" d="M392.667,366.815c-3.01-1.641-6.117-4.851-6.66-7.066a4.361,4.361,0,0,1,.521-3.233,3.094,3.094,0,0,1,5.637.754,3.59,3.59,0,0,1,6.707.195c.649,1.831-.257,3.867-1.5,5.363a18.229,18.229,0,0,1-4.7,3.987" transform="translate(-233.928 -224.455)" fill="#be71cb"/>
    <path id="Path_702" data-name="Path 702" d="M317.611,489.521c-2.439-1.325-4.957-3.918-5.4-5.707a3.51,3.51,0,0,1,.422-2.611,2.509,2.509,0,0,1,4.568.609,2.912,2.912,0,0,1,5.435.157c.526,1.479-.208,3.124-1.212,4.332a14.755,14.755,0,0,1-3.812,3.221" transform="translate(-179.487 -316.686)" fill="#be71cb"/>
    <path id="Path_703" data-name="Path 703" d="M87.348,210.54l17.062,9.338c10.327,3.311,15.871,5.6,19.972,13.03,5.985,10.844-13.988,23.41-32.65-3.46-7.466-2.9-4.411-3.049-1.951-2.763-6.6-4.064-3.16-3.729-.617-3.054-6.154-4.319-3.278-4.055-1.07-3.382-4.73-4.508-2.386-4.1-.623-3.328-1.945-3.64-.847-3.4-.055-2.826C86.572,211.973,87.019,210.841,87.348,210.54Z" transform="translate(-12.106 -117.859)" fill="#9855a4"/>
    <path id="Path_704" data-name="Path 704" d="M87.217,210.428,91.6,229.337c-7.466-2.9-4.411-3.049-1.951-2.763-6.6-4.064-3.16-3.73-.617-3.054-6.154-4.319-3.278-4.055-1.07-3.382-4.73-4.508-2.386-4.1-.623-3.328-1.945-3.64-.847-3.4-.055-2.826C86.441,211.861,86.888,210.729,87.217,210.428Z" transform="translate(-12.009 -117.776)" fill="#be71cb"/>
    <path id="Path_705" data-name="Path 705" d="M68.913,305.9l17.39-8.712c8.6-6.606,13.637-9.861,22.082-9,12.322,1.253,11.284,24.827-21.43,24.874-6.632,4.489-5.018,1.891-3.382.031-7.1,3.109-4.865.475-2.862-1.231-7.055,2.6-5.2.387-3.39-1.046-6.4,1.322-4.726-.371-3.09-1.382-4.1-.473-3.278-1.239-2.355-1.564C69.65,307.349,68.973,306.337,68.913,305.9Z" transform="translate(-0.008 -175.054)" fill="#9855a4"/>
    <path id="Path_706" data-name="Path 706" d="M68.9,356.139,86.944,363.3c-6.632,4.489-5.018,1.891-3.381.031-7.1,3.109-4.865.475-2.863-1.231-7.054,2.6-5.2.387-3.39-1.046-6.4,1.322-4.726-.371-3.09-1.383-4.1-.472-3.278-1.239-2.355-1.564C69.639,357.592,68.963,356.581,68.9,356.139Z" transform="translate(0 -225.305)" fill="#be71cb"/>
    <path id="Path_707" data-name="Path 707" d="M168.47,290.8c5.42-1.061,16.375-2.047,20.583,4.093C188.712,290.463,183.481,283.071,168.47,290.8Z" transform="translate(-73.476 -174.603)" fill="#be71cb"/>
    <path id="Path_708" data-name="Path 708" d="M283.314,264.2c-2-1.091-2.047-2.35-1.819-2.843l6.937-.569Z" transform="translate(-156.815 -154.94)" fill="#9855a4"/>
    <path id="Path_709" data-name="Path 709" d="M162.407,290.313l6.141-7.051c7.051-1.819,10.8-4.776,13.3-7.733,6.823-9.779-.341-15.92-5.345-15.806,5.276-14.283,13.646-10.348,17.171-6.6-.364,1.456,1.061,2.5,1.82,2.843-1.456,2,.278,9.325,0,13.3C193.77,294.02,172.717,293.611,162.407,290.313Z" transform="translate(-69.002 -146.702)" fill="#f5f5f5"/>
    <path id="Path_710" data-name="Path 710" d="M127.257,420.144l10.689-13.078a32.991,32.991,0,0,0,12.623.8c2.729,2.274,2.721,4.662.682,8.188-4.367,7.551-4.245,4.435-3.639,1.933-5.731,6.641-4.966,3.146-3.866.568-6,6.186-5.383,3.26-4.321,1.024-6.1,4.731-5.345,2.35-4.208.569-4.731,1.91-4.321.8-3.525,0C128.963,420.962,127.6,420.485,127.257,420.144Z" transform="translate(-43.063 -262.887)" fill="#9855a4"/>
    <path id="Path_711" data-name="Path 711" d="M127.257,445.446l23.994-4.094c-4.367,7.551-4.435,4.549-3.752,2.047-5.731,6.641-4.966,3.146-3.866.569-6,6.186-5.383,3.26-4.321,1.023-6.1,4.731-5.345,2.35-4.208.569-4.731,1.911-4.321.8-3.525,0C128.849,446.378,127.6,445.787,127.257,445.446Z" transform="translate(-43.063 -288.188)" fill="#be71cb"/>
    <ellipse id="Ellipse_61" data-name="Ellipse 61" cx="1.276" cy="1.907" rx="1.276" ry="1.907" transform="matrix(0.926, -0.377, 0.377, 0.926, 117.959, 106.293)" fill="#9855a4"/>
    <path id="Path_712" data-name="Path 712" d="M232.594,344.449c-1.856,5.321-5.9,11.127-8.13,12.122,2.9-.994,9.365-4.041,12.041-8.275C239.85,343,235.078,337.329,232.594,344.449Z" transform="translate(-114.797 -214.211)" fill="#fbe5ff"/>
    <path id="Path_713" data-name="Path 713" d="M457.526,51l-6.895,18.187c-5.694,9.229-8.42,14.571-6.706,22.885,2.5,12.13,25.848,8.7,22.561-23.854,3.789-7.055,1.37-5.185-.314-3.368,2.37-7.376-.023-4.888-1.516-2.722,1.869-7.283-.145-5.212-1.386-3.266.663-6.5-.851-4.664-1.69-2.933-.888-4.03-1.567-3.135-1.8-2.183C459.047,51.582,457.971,51.013,457.526,51Z" transform="translate(-276.376 -0.124)" fill="#9855a4"/>
    <path id="Path_714" data-name="Path 714" d="M497.282,50.83l8.961,17.218c3.789-7.055,1.37-5.185-.314-3.368,2.37-7.376-.024-4.888-1.516-2.722,1.869-7.283-.145-5.212-1.386-3.266.663-6.5-.85-4.664-1.69-2.933-.888-4.03-1.567-3.135-1.8-2.183C498.8,51.415,497.727,50.845,497.282,50.83Z" transform="translate(-316.125)" fill="#be71cb"/>
    <path id="Path_715" data-name="Path 715" d="M486.886,145.932l-18.878,4.685c-10.829.572-16.773,1.372-22.632,7.514-8.549,8.962,7.565,26.2,32.455,4.969,7.957-.9,5.042-1.825,2.59-2.175,7.413-2.25,4.005-2.8,1.375-2.8,7.051-2.609,4.2-3.086,1.9-3,5.722-3.155,3.351-3.354,1.45-3.059,2.808-3.025,1.685-3.073.773-2.719C487.271,147.515,487.127,146.307,486.886,145.932Z" transform="translate(-276.114 -70.181)" fill="#9855a4"/>
    <path id="Path_716" data-name="Path 716" d="M584.788,145.906l-9.055,17.169c7.957-.9,5.042-1.825,2.59-2.175,7.413-2.25,4.005-2.8,1.375-2.8,7.051-2.609,4.2-3.086,1.9-3,5.722-3.155,3.351-3.354,1.45-3.06,2.808-3.024,1.685-3.073.773-2.719C585.173,147.489,585.029,146.281,584.788,145.906Z" transform="translate(-374.019 -70.162)" fill="#be71cb"/>
    <path id="Path_717" data-name="Path 717" d="M457.66,168.2c-4.809,2.717-13.774,9.09-12.979,16.491C442.058,181.1,441.227,172.082,457.66,168.2Z" transform="translate(-276.229 -86.614)" fill="#be71cb"/>
    <path id="Path_718" data-name="Path 718" d="M372.555,216.821c.811-2.13.027-3.116-.466-3.343l-5.641,4.078Z" transform="translate(-219.575 -120.027)" fill="#9855a4"/>
    <path id="Path_719" data-name="Path 719" d="M435.939,195.859l-9.25-1.366c-6.54,3.2-11.313,3.393-15.137,2.773-11.542-3-10.09-12.319-6.214-15.485-13.294-7.423-17.1,1.008-17.336,6.151,1.223.869.82,2.591.466,3.343,2.407.574,5.85,7.266,8.649,10.11C414.517,219.064,430.248,205.067,435.939,195.859Z" transform="translate(-235.482 -94.477)" fill="#f5f5f5"/>
    <path id="Path_720" data-name="Path 720" d="M558.782,252.049l-16.624-2.988a32.988,32.988,0,0,1-9.074,8.81c-.6,3.5.964,5.312,4.8,6.665,8.227,2.9,6.109.61,4.022-.9,8.672,1.321,5.818-.837,3.307-2.081,8.584.8,6.209-1.022,3.949-2.032,7.707-.368,5.589-1.689,3.567-2.3,4.837-1.624,3.8-2.2,2.679-2.292C558.018,253.78,558.745,252.53,558.782,252.049Z" transform="translate(-342.455 -146.286)" fill="#9855a4"/>
    <path id="Path_721" data-name="Path 721" d="M572.658,260.465l-20.894,12.487c8.227,2.9,6.327.573,4.182-.884,8.672,1.32,5.818-.837,3.307-2.081,8.584.8,6.209-1.022,3.949-2.032,7.707-.368,5.589-1.689,3.567-2.3,4.837-1.624,3.8-2.2,2.679-2.292C572.054,262.208,572.62,260.946,572.658,260.465Z" transform="translate(-356.331 -154.701)" fill="#be71cb"/>
    <ellipse id="Ellipse_62" data-name="Ellipse 62" cx="1.276" cy="1.907" rx="1.276" ry="1.907" transform="translate(158.744 92.606) rotate(161.579)" fill="#9855a4"/>
    <path id="Path_722" data-name="Path 722" d="M453.163,262.475c4.87,2.836,11.717,4.62,14.058,3.926-2.849,1.129-9.744,3.017-14.529,1.54C446.709,266.093,446.646,258.679,453.163,262.475Z" transform="translate(-279.934 -155.397)" fill="#fbe5ff"/>
  </g>
</svg>
