<svg xmlns="http://www.w3.org/2000/svg" width="64.633" height="63" viewBox="0 0 64.633 63">
  <g id="chen" transform="translate(-10.998 -9.537)">
    <path id="Path_678" data-name="Path 678" d="M35.327,141.559c-1.924-1.049-3.91-3.1-4.257-4.516a2.787,2.787,0,0,1,.333-2.067,1.977,1.977,0,0,1,3.6.482,2.294,2.294,0,0,1,4.287.124,3.687,3.687,0,0,1-.956,3.428,11.646,11.646,0,0,1-3.007,2.549" transform="translate(-20.003 -106.37)" fill="#ebebeb"/>
    <path id="Path_679" data-name="Path 679" d="M399.327,160.559c-1.924-1.049-3.91-3.1-4.257-4.516a2.786,2.786,0,0,1,.333-2.067,1.977,1.977,0,0,1,3.6.482,2.294,2.294,0,0,1,4.287.124,3.687,3.687,0,0,1-.956,3.428,11.647,11.647,0,0,1-3.007,2.549" transform="translate(-331.089 -122.608)" fill="#be71cb"/>
    <path id="Path_680" data-name="Path 680" d="M81.567,85.762a3.41,3.41,0,0,1-1.542-1.649,1.027,1.027,0,0,1,.121-.755.718.718,0,0,1,.3-.284.708.708,0,0,1,.784.106.725.725,0,0,1,.219.355.84.84,0,0,1,.316-.381.824.824,0,0,1,.939.027.842.842,0,0,1,.295.4,1.354,1.354,0,0,1-.348,1.252,4.23,4.23,0,0,1-1.089.931" transform="translate(-61.879 -62.784)" fill="#f5f5f5"/>
    <path id="Path_681" data-name="Path 681" d="M445.567,104.762a3.409,3.409,0,0,1-1.542-1.649,1.027,1.027,0,0,1,.121-.755.718.718,0,0,1,.3-.284.708.708,0,0,1,.784.106.726.726,0,0,1,.219.355.84.84,0,0,1,.316-.381.824.824,0,0,1,.939.027.843.843,0,0,1,.295.4,1.354,1.354,0,0,1-.347,1.252,4.232,4.232,0,0,1-1.089.931" transform="translate(-372.966 -79.022)" fill="#f5f5f5"/>
    <path id="Path_682" data-name="Path 682" d="M32.834,63.2a3.945,3.945,0,0,1-1.805-1.909,1.175,1.175,0,0,1,.145-.872.837.837,0,0,1,1.531.2.974.974,0,0,1,1.816.052,1.572,1.572,0,0,1-.406,1.454A4.943,4.943,0,0,1,32.838,63.2" transform="translate(-20.002 -43.127)" fill="#be71cb"/>
    <path id="Path_683" data-name="Path 683" d="M396.834,82.2a3.945,3.945,0,0,1-1.805-1.909,1.175,1.175,0,0,1,.145-.872.837.837,0,0,1,1.531.2.974.974,0,0,1,1.816.052,1.572,1.572,0,0,1-.406,1.454,4.943,4.943,0,0,1-1.276,1.077" transform="translate(-331.089 -59.365)" fill="#ebebeb"/>
    <path id="Path_684" data-name="Path 684" d="M88.834,216.2a3.945,3.945,0,0,1-1.805-1.909,1.175,1.175,0,0,1,.145-.872.837.837,0,0,1,1.531.2.974.974,0,0,1,1.816.052,1.572,1.572,0,0,1-.406,1.454,4.942,4.942,0,0,1-1.276,1.077" transform="translate(-67.862 -173.886)" fill="#be71cb"/>
    <path id="Path_685" data-name="Path 685" d="M452.834,235.2a3.944,3.944,0,0,1-1.805-1.909,1.175,1.175,0,0,1,.145-.872.837.837,0,0,1,1.531.2.974.974,0,0,1,1.816.052,1.572,1.572,0,0,1-.406,1.454,4.942,4.942,0,0,1-1.276,1.077" transform="translate(-378.948 -190.124)" fill="#ebebeb"/>
    <path id="Path_686" data-name="Path 686" d="M82.834,14.2a3.945,3.945,0,0,1-1.805-1.909,1.175,1.175,0,0,1,.145-.872.837.837,0,0,1,1.531.2.974.974,0,0,1,1.816.052,1.572,1.572,0,0,1-.406,1.454A4.942,4.942,0,0,1,82.838,14.2" transform="translate(-62.734 -1.25)" fill="#ebebeb"/>
    <path id="Path_687" data-name="Path 687" d="M48.834,252.2a3.945,3.945,0,0,1-1.805-1.909,1.175,1.175,0,0,1,.145-.872.837.837,0,0,1,1.531.2.974.974,0,0,1,1.816.052,1.572,1.572,0,0,1-.406,1.454,4.943,4.943,0,0,1-1.276,1.077" transform="translate(-33.677 -204.653)" fill="#ebebeb"/>
    <path id="Path_688" data-name="Path 688" d="M446.834,33.2a3.944,3.944,0,0,1-1.805-1.909,1.175,1.175,0,0,1,.145-.872.837.837,0,0,1,1.531.2.974.974,0,0,1,1.816.052,1.572,1.572,0,0,1-.406,1.454,4.942,4.942,0,0,1-1.276,1.077" transform="translate(-373.82 -17.488)" fill="#ebebeb"/>
    <path id="Path_689" data-name="Path 689" d="M412.834,271.2a3.944,3.944,0,0,1-1.805-1.909,1.174,1.174,0,0,1,.145-.872.837.837,0,0,1,1.531.2.974.974,0,0,1,1.816.052,1.572,1.572,0,0,1-.406,1.454,4.942,4.942,0,0,1-1.276,1.077" transform="translate(-344.763 -220.891)" fill="#be71cb"/>
    <path id="Path_690" data-name="Path 690" d="M85.032,65.271h0C81.37,64.3,80.417,55.753,82.9,46.158a36.169,36.169,0,0,1,5.382-12.131l4.543,1.18,4.543,1.181a36.187,36.187,0,0,1-1.193,13.219C93.689,59.2,88.7,66.211,85.032,65.271Zm11.4-15.278a37.63,37.63,0,0,0,1.245-13.527.289.289,0,0,0-.2-.258l-4.589-1.194-.008,0-.008,0-4.59-1.192a.288.288,0,0,0-.3.129A37.612,37.612,0,0,0,82.5,46.372c-.14.54-.413,1.558-.69,2.927-.423,2.086-.6,3.654-.634,4.007a26.246,26.246,0,0,0-.207,3.431,19.05,19.05,0,0,0,.267,3.226,17.222,17.222,0,0,0,.707,2.709c.377,1.077.567,1.277.816,1.989a8.977,8.977,0,0,1,.4,3.613,13.566,13.566,0,0,1-.42,2.608c-.25,1.086-.7,3.222-1.182,5.142s-2.276,9.468-3.036,12.059a3.2,3.2,0,0,1-.826,1.363,1.69,1.69,0,0,1-1.308.563l-.013,0-.028,0L73,89.823a.351.351,0,0,0-.325.289.334.334,0,0,0,.187.427L78.117,91.9l.008,0,.008,0,5.255,1.366a.334.334,0,0,0,.371-.282.351.351,0,0,0-.144-.411l-3.006-1.47a.169.169,0,0,0-.026-.011l-.013,0a1.694,1.694,0,0,1-.869-1.129,3.206,3.206,0,0,1-.06-1.594c.6-2.634,2.7-10.111,3.208-12.014s1.156-4,1.466-5.069a13.549,13.549,0,0,1,.9-2.483,8.975,8.975,0,0,1,2.1-2.963c.563-.5.827-.583,1.679-1.34a17.19,17.19,0,0,0,1.934-2.023,19,19,0,0,0,1.8-2.688,26.137,26.137,0,0,0,1.487-3.1c.139-.327.75-1.781,1.394-3.809C96.034,51.556,96.29,50.533,96.43,49.993Z" transform="translate(-55.607 -20.745)" fill="#9855a4"/>
    <path id="Path_691" data-name="Path 691" d="M270.552,41.17h0c-3.717.8-8.447-6.418-10.568-16.125a36.214,36.214,0,0,1-.679-13.286l4.6-1,4.6-1a36.222,36.222,0,0,1,4.924,12.361C275.554,31.82,274.263,40.347,270.552,41.17Zm3.282-18.828a37.672,37.672,0,0,0-5.016-12.66.29.29,0,0,0-.295-.141l-4.651,1.013h0l-.008,0-.008,0-4.65,1.015a.29.29,0,0,0-.209.251,37.659,37.659,0,0,0,.719,13.6c.12.546.337,1.58.708,2.929.566,2.057,1.123,3.538,1.249,3.87a26.226,26.226,0,0,0,1.37,3.162,19.043,19.043,0,0,0,1.7,2.763,17.259,17.259,0,0,0,1.861,2.1c.826.792,1.087.885,1.632,1.409a9,9,0,0,1,1.994,3.05,13.592,13.592,0,0,1,.805,2.523c.268,1.084.834,3.2,1.272,5.134s2.253,9.5,2.747,12.159a3.21,3.21,0,0,1-.122,1.594,1.7,1.7,0,0,1-.916,1.1l-.013,0a.181.181,0,0,0-.027.01L270.9,68.578a.352.352,0,0,0-.161.406.336.336,0,0,0,.361.3l5.325-1.161.008,0,.008,0,5.325-1.161a.335.335,0,0,0,.2-.42.353.353,0,0,0-.315-.3l-3.359.048-.028,0-.014,0a1.7,1.7,0,0,1-1.29-.616,3.21,3.21,0,0,1-.776-1.4c-.661-2.625-2.166-10.265-2.573-12.2s-.777-4.1-.985-5.2a13.593,13.593,0,0,1-.32-2.628,8.987,8.987,0,0,1,.541-3.6c.277-.7.476-.9.9-1.96A17.263,17.263,0,0,0,274.569,36a19.052,19.052,0,0,0,.394-3.22,26.181,26.181,0,0,0-.073-3.444c-.024-.355-.136-1.933-.478-4.038C274.187,23.919,273.954,22.889,273.834,22.343Z" transform="translate(-214.572)" fill="#9855a4"/>
    <path id="Path_692" data-name="Path 692" d="M141.631,131.57c3.437.888,8.211-6.019,10.663-15.427.285-1.093.526-2.171.723-3.226l-13.217.194C137.406,122.443,138.216,130.687,141.631,131.57Z" transform="translate(-111.812 -88.352)" fill="#be71cb"/>
    <path id="Path_693" data-name="Path 693" d="M267.01,89.375c2.068,9.482,6.539,16.558,9.986,15.8,3.266-.714,4.442-8.2,2.8-17.046L266.41,86.078C266.567,87.154,266.766,88.256,267.01,89.375Z" transform="translate(-221.192 -65.415)" fill="#be71cb"/>
    <path id="Path_694" data-name="Path 694" d="M319,191a3.078,3.078,0,0,0,3.416.727C321.835,192.526,320.337,193.5,319,191Z" transform="translate(-266.137 -155.084)" fill="#fbe5ff"/>
    <path id="Path_695" data-name="Path 695" d="M159,221.3a3.078,3.078,0,0,0,3.413-.74C162.211,221.528,161.246,223.031,159,221.3Z" transform="translate(-129.395 -180.347)" fill="#fbe5ff"/>
    <circle id="Ellipse_31" data-name="Ellipse 31" cx="0.363" cy="0.363" r="0.363" transform="translate(54.608 27.048)" fill="#fbe5ff"/>
    <circle id="Ellipse_32" data-name="Ellipse 32" cx="0.363" cy="0.363" r="0.363" transform="translate(56.934 28.938)" fill="#fbe5ff"/>
    <circle id="Ellipse_33" data-name="Ellipse 33" cx="0.363" cy="0.363" r="0.363" transform="translate(52.573 29.374)" fill="#fbe5ff"/>
    <circle id="Ellipse_34" data-name="Ellipse 34" cx="0.363" cy="0.363" r="0.363" transform="translate(34.409 34.808) rotate(71.082)" fill="#fbe5ff"/>
    <circle id="Ellipse_35" data-name="Ellipse 35" cx="0.363" cy="0.363" r="0.363" transform="translate(50.537 25.885)" fill="#fbe5ff"/>
    <circle id="Ellipse_36" data-name="Ellipse 36" cx="0.363" cy="0.363" r="0.363" transform="translate(47.339 22.978)" fill="#fbe5ff"/>
    <circle id="Ellipse_37" data-name="Ellipse 37" cx="0.291" cy="0.291" r="0.291" transform="translate(55.843 25.958)" fill="none" stroke="#fbe5ff" stroke-width="1"/>
    <circle id="Ellipse_38" data-name="Ellipse 38" cx="0.291" cy="0.291" r="0.291" transform="translate(53.081 24.65)" fill="none" stroke="#fbe5ff" stroke-width="1"/>
    <circle id="Ellipse_39" data-name="Ellipse 39" cx="0.291" cy="0.291" r="0.291" transform="translate(49.883 28.72)" fill="none" stroke="#fbe5ff" stroke-width="1"/>
    <circle id="Ellipse_40" data-name="Ellipse 40" cx="0.291" cy="0.291" r="0.291" transform="translate(51.773 32.936)" fill="none" stroke="#fbe5ff" stroke-width="1"/>
    <circle id="Ellipse_41" data-name="Ellipse 41" cx="0.291" cy="0.291" r="0.291" transform="translate(49.883 23.051)" fill="none" stroke="#fbe5ff" stroke-width="1"/>
    <circle id="Ellipse_42" data-name="Ellipse 42" cx="0.291" cy="0.291" r="0.291" transform="translate(47.848 25.958)" fill="none" stroke="#fbe5ff" stroke-width="1"/>
    <circle id="Ellipse_43" data-name="Ellipse 43" cx="0.291" cy="0.291" r="0.291" transform="translate(55.116 31.046)" fill="none" stroke="#fbe5ff" stroke-width="1"/>
    <circle id="Ellipse_44" data-name="Ellipse 44" cx="0.363" cy="0.363" r="0.363" transform="translate(33.376 37.621) rotate(71.082)" fill="#fbe5ff"/>
    <circle id="Ellipse_45" data-name="Ellipse 45" cx="0.363" cy="0.363" r="0.363" transform="translate(31.549 33.637) rotate(71.082)" fill="#fbe5ff"/>
    <circle id="Ellipse_46" data-name="Ellipse 46" cx="0.363" cy="0.363" r="0.363" transform="translate(30.873 26.176) rotate(71.082)" fill="#fbe5ff"/>
    <circle id="Ellipse_47" data-name="Ellipse 47" cx="0.363" cy="0.363" r="0.363" transform="translate(55.044 33.299)" fill="#fbe5ff"/>
    <circle id="Ellipse_48" data-name="Ellipse 48" cx="0.363" cy="0.363" r="0.363" transform="translate(34.19 30.58) rotate(71.082)" fill="#fbe5ff"/>
    <circle id="Ellipse_49" data-name="Ellipse 49" cx="0.363" cy="0.363" r="0.363" transform="translate(35.903 26.612) rotate(71.082)" fill="#fbe5ff"/>
    <circle id="Ellipse_50" data-name="Ellipse 50" cx="0.291" cy="0.291" r="0.291" transform="translate(35.841 35.623) rotate(71.082)" fill="none" stroke="#fbe5ff" stroke-width="1"/>
    <circle id="Ellipse_51" data-name="Ellipse 51" cx="0.291" cy="0.291" r="0.291" transform="translate(36.183 32.586) rotate(71.082)" fill="none" stroke="#fbe5ff" stroke-width="1"/>
    <circle id="Ellipse_52" data-name="Ellipse 52" cx="0.291" cy="0.291" r="0.291" transform="translate(28.793 31.792) rotate(71.082)" fill="none" stroke="#fbe5ff" stroke-width="1"/>
    <circle id="Ellipse_53" data-name="Ellipse 53" cx="0.291" cy="0.291" r="0.291" transform="translate(31.296 30.88) rotate(71.082)" fill="none" stroke="#fbe5ff" stroke-width="1"/>
    <circle id="Ellipse_54" data-name="Ellipse 54" cx="0.291" cy="0.291" r="0.291" transform="translate(27.921 34.035) rotate(71.082)" fill="none" stroke="#fbe5ff" stroke-width="1"/>
    <circle id="Ellipse_55" data-name="Ellipse 55" cx="0.291" cy="0.291" r="0.291" transform="translate(36.659 29.042) rotate(71.082)" fill="none" stroke="#fbe5ff" stroke-width="1"/>
    <circle id="Ellipse_56" data-name="Ellipse 56" cx="0.291" cy="0.291" r="0.291" transform="translate(33.249 28.06) rotate(71.082)" fill="none" stroke="#fbe5ff" stroke-width="1"/>
    <circle id="Ellipse_57" data-name="Ellipse 57" cx="0.291" cy="0.291" r="0.291" transform="translate(29.52 28.594) rotate(71.082)" fill="none" stroke="#fbe5ff" stroke-width="1"/>
    <circle id="Ellipse_58" data-name="Ellipse 58" cx="0.291" cy="0.291" r="0.291" transform="translate(30.793 36.585) rotate(71.082)" fill="none" stroke="#fbe5ff" stroke-width="1"/>
    <circle id="Ellipse_59" data-name="Ellipse 59" cx="0.291" cy="0.291" r="0.291" transform="translate(53.372 34.244)" fill="none" stroke="#fbe5ff" stroke-width="1"/>
    <circle id="Ellipse_60" data-name="Ellipse 60" cx="0.291" cy="0.291" r="0.291" transform="translate(57.733 31.773)" fill="none" stroke="#fbe5ff" stroke-width="1"/>
  </g>
</svg>
