<svg xmlns="http://www.w3.org/2000/svg" width="428" height="88.085" viewBox="0 0 428 88.085">
  <g id="footer" transform="translate(0 -431.917)">
    <g id="mountain01" transform="translate(-0.5 -2.669)">
      <g id="path02" transform="translate(0.5 560.897)">
        <g id="Group_11" data-name="Group 11" transform="translate(30.182 -458.897)">
          <path id="Path_66" data-name="Path 66" d="M1062.874,530.34l36.022-9.635,24.974,2.543v5.683Z" transform="translate(-785.711 -124.903)" fill="#004d49"/>
          <path id="Path_67" data-name="Path 67" d="M744.8,532.318l49.321-22.761,28.821,5.6,15.478-1.334,51.505,21.4Z" transform="translate(-540.2 -121.77)" fill="#004649"/>
          <g id="Group_13" data-name="Group 13" transform="translate(-30.182 458.897)">
            <path id="Path_69" data-name="Path 69" d="M428.411,488.673l-21.32-7.021-2.572,9.331-5.714-7.621-5.539,5.871-41.028-1.2-20.116,6.461-90.852,5.243c-18,.281-8.154,9.517-9.429,10.541H428.5Z" transform="translate(-0.5 -548.5)" fill="#115b55"/>
          </g>
        </g>
        <g id="Group_12" data-name="Group 12" transform="translate(18.5 -454.897)">
          <g id="Group_9" data-name="Group 9" transform="translate(6)">
            <g id="Group_6" data-name="Group 6" transform="translate(368.437 364.002)">
              <path id="Path_72" data-name="Path 72" d="M1376.027,439.316c-.367,6.752.9,13.092,2.947,13.092s1.638-4.86,2.49-11.568c.21-1.652-.573-4.779-.571-6.173.01-6.019-2-12.443-2.2-14.511-.16-1.66-1.245,4.116-1.28,6.053C1377.368,428.58,1376.2,436.146,1376.027,439.316Z" transform="translate(-1375.964 -419.859)" fill="#115b55"/>
            </g>
            <g id="Group_7" data-name="Group 7" transform="translate(376.246 351.518)">
              <path id="Path_73" data-name="Path 73" d="M1405.248,401.59c-.535,9.839,1.311,19.079,4.294,19.079s2.387-7.083,3.629-16.858c.306-2.408-.835-6.965-.831-9,.015-8.77-2.917-18.133-3.21-21.146-.235-2.419-1.814,6-1.865,8.82C1407.2,385.945,1405.5,396.971,1405.248,401.59Z" transform="translate(-1405.156 -373.237)" fill="#115b55"/>
            </g>
          </g>
          <g id="Group_8" data-name="Group 8">
            <g id="Group_4" data-name="Group 4" transform="translate(299.345 368.669)">
              <path id="Path_70" data-name="Path 70" d="M1099.888,521.3c-.48-1.374-.723-4.639-3.283-5.8-2.851-1.294-8.207-1.714-11.394-1.19-2.441.4-8.892,2.666-10.622,1.672s-2.529-1.973-2.579-2.829c0,0,.5-.125,1.294-.381s1.353-1.575,1.189-1.767a3.223,3.223,0,0,0-2.125.35,5,5,0,0,1-2.044.5c-.208-.041-.076-.609-.031-.76s.213-.34.966-.784a21.206,21.206,0,0,0,2.536-2.813,9.9,9.9,0,0,0,1.546-3.548c-.032-.646-.02-1.406-.313-1.3s-.131.492-.139,1.061a7.775,7.775,0,0,1-.743,2.535c-.3.49-1-.053-1.117-.472s-.237-.763-.4-.727-.586.485-.8.672-.329-.156-.326-.422.144-1.4-.192-1.142-.407,2.35-.41,2.578-.725,1.206-.974,1.163-.85-1.493-1.019-1.344.434,1.6.475,1.715a12.893,12.893,0,0,1,.23,1.333c0,.153-.325-.5-.4-.88s-.238-.8-.409-.537a5.112,5.112,0,0,0,.184,1.826c.039.152.159.421-.091.454a2.972,2.972,0,0,1-1.486-.78c-.369-.386-.4-1.26-.563-1.338s-.34.64-.058,1.176a9.027,9.027,0,0,0,1.226,1.462s.121.191-.046.3-.186,1.076-.186,1.076a2.526,2.526,0,0,0-1.092.837,5.227,5.227,0,0,1-1.627,1.813,8.752,8.752,0,0,0-1.013.564,1.671,1.671,0,0,0-.338.166c-.225.133-.35.947.546.927l.035.171s0,.272.442.279a6.472,6.472,0,0,0,1.6-.147c.449-.13,2.084.166,2.722-.166.32,1.061,2.256,3.709,4.336,4.183a7.021,7.021,0,0,1,3.257,1.439,3.365,3.365,0,0,0,2.026,1.425c-.046.681.043,2.283-.083,3.2s-.076,2.688-.115,2.826-1.135,3.831-1.325,4.2a3.168,3.168,0,0,1-.422.777c-.114.067-1.421.353-1.273.492a5.135,5.135,0,0,0,1.9.164A6.612,6.612,0,0,0,1078,534.5s.213.549.255.345a4.33,4.33,0,0,0,.046-.579s1.18-4.307,1.183-4.545a19.327,19.327,0,0,1,.931-2.608c0,.17.16,1.909.229,2.284s-.508,4.283-.549,4.453a5.834,5.834,0,0,1-.354,1.322,3.294,3.294,0,0,0-.528.47l-1.237.526.3.107a4,4,0,0,0,1.785.128,1.207,1.207,0,0,1,.154-.34l.533-.776.3.176s.828-5.879.829-6.016.878-3.868.918-4.208-.126-1.568.4-1.8a1.88,1.88,0,0,1,.934-.122,47.165,47.165,0,0,0,7,.373c1.262-.178,3.02,1.963,3.724,2.932a34.264,34.264,0,0,1,.847,4.546,28.5,28.5,0,0,1-.713,3.408,1.226,1.226,0,0,1-.841.672,2.38,2.38,0,0,0-.839.445,9.453,9.453,0,0,0,1.661.176c.252-.073.592-.6.592-.6.249-.071.356-1.742.616-2.5a20.949,20.949,0,0,0,.533-2.423s-.057-.868-.1-1.732a3.317,3.317,0,0,1,.658.815c.069.342.063.784.131,1.159s.2,4.09.2,4.191-.05.884-.2.985a4.828,4.828,0,0,0-.571.741,2.032,2.032,0,0,0,.483.143c.149,0,.785-.16.786-.261s.351-1.154.351-1.154.032.373.146.208l.114-.169s-.121-4.564-.119-4.7.116-2.858.16-3.232.86-3.658.693-4.913a1.978,1.978,0,0,1,.349,1.657A4.383,4.383,0,0,0,1099.888,521.3ZM1070.2,508.773c.129-.264.89-1.051,1.017-1.315s.262-.832.387-.868.8-1.013.928-.9a2.7,2.7,0,0,1,.4,1.07,2.09,2.09,0,0,1-.48,1.626,18.575,18.575,0,0,1-2.226,1.6A3.623,3.623,0,0,1,1070.2,508.773Z" transform="translate(-1063.545 -502.64)" fill="#115b55"/>
            </g>
            <g id="Group_5" data-name="Group 5" transform="translate(270.284 367.234)">
              <path id="Path_71" data-name="Path 71" d="M1039.43,499.948c-.16,0,.359.65.626,1.276a8.967,8.967,0,0,1,.438,1.6s-.3-.3-.32-.189.474.652.289.765a9.193,9.193,0,0,1-2.2-.769c-.252-.119-.026.16.363.373a9.117,9.117,0,0,1,1.943,1.087.593.593,0,0,1-.1.827,14.649,14.649,0,0,1-1.8,1.68c-.207.02-.519-.79-.635-.724s.244.626.244.626-.94,1.323-1.013,1.391-2.213.014-2.213.014l-.768-1.048s.22-.895.083-.943-.288.8-.427.8a19.44,19.44,0,0,1-2.164-1.759,5.274,5.274,0,0,1,.048-1.706c.117-.091.721-.473.7-.566s-.578.152-.578.152.223-1.057.293-1.217-.137-.048-.256.25-.362,1.1-.362,1.1l-.373.156a4.779,4.779,0,0,1,.838-2.2c.377-.572.567-.96.45-.893a7.593,7.593,0,0,0-1.659,3.2,1.034,1.034,0,0,0-.45.8c.043.23.039.507,1.265,1.813l.387.328s-.368-.053-.393.063.05,1.36.047,1.636a1.9,1.9,0,0,0,.971,1.373c.64.309.849.244.849.244s.427.765.633.861a1.554,1.554,0,0,0,.177.533,28.754,28.754,0,0,0-1.214,2.726c-.1.25-1.32.441-1.6.414s-2.141-.146-2.325-.171-1.706.09-2.007.132a18.1,18.1,0,0,1-3.794-.515c-.918-.313-6.653-2.124-9.474-1.4s-4.684,2.029-4.87,3.686a4.906,4.906,0,0,0,1.187,4.052c.887.822.923,1.534.552,1.667s.644.1.764-.243a1.531,1.531,0,0,0-.485-1.574,2.512,2.512,0,0,1-.523-2.036c.162.025.729,2.2,1.432,2.924.406.605,0,1.659-.213,2.026a11.444,11.444,0,0,1-2.06,2.206c-.465.247-.653.521-.452,1.008s1.087,2.965,1.284,3.614a34.686,34.686,0,0,1,1.209,4.028,3.468,3.468,0,0,0,.487,1.386c.045.093-.071.16.087.347a1.3,1.3,0,0,1,.176.624s1.493.23,1.591-.047-.29-.74-.29-.74l-.423-1.021-.611-2.009s-1.006-3.748-1.066-4.372a1.872,1.872,0,0,1,.715-1.649c.441-.248,3.5-3.039,3.8-3.218a2.536,2.536,0,0,0,.934-.84,7.833,7.833,0,0,1,.705-1.027,13.926,13.926,0,0,0,7.114,2.108,9.626,9.626,0,0,1-.182,1.472,7.953,7.953,0,0,0-.183,1.472c-.005.369-.306,2.092-.333,2.323s-.129.967-.156,1.2-.853,3.329-1,3.6a7.6,7.6,0,0,1-.731,1.141c-.164.16-.914,1.048-.73,1.12s1.1.477,1.4.251a2.007,2.007,0,0,0,.5-.8s.574-1.489.575-1.559a31.785,31.785,0,0,1,.877-3.306c.189-.3.685-1.12.709-1.188s.567-2.573.805-3.168,1.184-2.219,1.184-2.219a4.763,4.763,0,0,0,1.611.16,1.383,1.383,0,0,0,.4.906c.137.094,1.386,4.536,1.473,4.93s.352,1.156.395,1.386.582,2.82.624,3.1a16.117,16.117,0,0,0,.25,1.779c.091.138-.009.643.059.738s1.146.43,1.362-.188a1.35,1.35,0,0,1-.379-.881l-.106-.624s-.8-3.606-.772-3.952.046-1.612.094-1.8-.3-3.277-.384-3.715a4,4,0,0,1,.258-1.909c.213-.3,1.894-1.909,2.055-3.451,1.541-1.429,2.6-2.7,2.892-7.263.149-.735.259-1.932.259-1.932l.867-1s1.891-.087,1.648-2.418a1.834,1.834,0,0,0-.059-.715l-.182-.141a19.9,19.9,0,0,0,1.173-1.619C1041.389,504.422,1041.309,502.234,1039.43,499.948Zm-8.472,3.977c-.035-.012-.069-.084-.069-.084s.071-.047.107-.034C1031,503.807,1030.993,503.938,1030.958,503.925Zm.314.336a3.373,3.373,0,0,1-.038-.628.532.532,0,0,1,.179-.092Z" transform="translate(-1009.039 -499.948)" fill="#115b55"/>
            </g>
          </g>
        </g>
      </g>
      <g id="path01" transform="translate(0.5 487.897)">
        <g id="Group_13-2" data-name="Group 13">
          <path id="Path_68" data-name="Path 68" d="M297,491.475l54.618,6.32h16.3l-19.5-5.453-42.431-3.73L273.964,482.2l-39.513,5.409,43.334,3.866Z" transform="translate(-171.869 -480.408)" fill="#1c766e"/>
          <path id="Path_69-2" data-name="Path 69" d="M231.842,499.733h0v3.025l-35.291-9.871h-16.3l-54.618-6.32H106.416L63.081,482.7l-7.508,1.028-.519-.257.683.214-.139-.415L55.053,483l.508.159-.143-.428-.364-.18.34.107-.124-.37-.216-.107.2.063-.131-.39-.071-.036.067.021-.149-.445-.148.444.061-.019-.065.032-.131.392.2-.062-.21.1-.124.371.334-.1-.358.177-.143.43.5-.157-.538.266-.105.314-.056-.167-.054-.027.051.016-.113-.339-.112.337.045-.014-.049.025-.093.277-2.761-.063-.047-.14-.277-.137.258.08-.094-.281-.164-.08.154.048-.1-.3-.054-.027.05.016-.113-.339-.113.338.046-.014-.049.024-.1.3.149-.047-.16.08-.094.282.254-.08-.272.134-.042.125h-.01l-.552-.273.555.174-.113-.337-.442-.219.412.129-.116-.348-.3-.146.276.086-.1-.3-.175-.087.164.051-.107-.317-.058-.029.054.017-.121-.362-.12.36.049-.016-.054.027-.107.318.16-.05-.171.085-.1.3.272-.085-.291.144-.116.348.407-.128-.437.216-.113.338.55-.172-.5.246-2.293-.054-.721-.356.9.283-.584-1.751-.321-.158.3.09-.667-2-.664,1.99.272-.085-.292.144-.587,1.757.878-.275-.623.308-1.861-.043-.461-1.38-.97-.48.9.283-.584-1.751-.321-.158.3.093-.667-2-.664,1.99.272-.085-.292.144-.587,1.757.878-.275-.942.466-.438,1.311-1.331-5.305c-1.138-.526-2.4-.82-3.567-1.255q-1.673-.624-3.329-1.293l-.171.076-.012.033-20.357,3.905-.011-.03-.345-.155.321.091-.208-.565-.114-.051.107.03-.238-.644-.236.642.1-.027-.1.047-.2.555-5.524-1.4-.182-.494-.345-.154.321.091-.208-.564-.114-.051.107.03-.235-.645-.236.642.1-.027-.1.047-.211.567.312-.089-.335.15-.111.3-1.236-.028-.087-.237-.114-.051.107.03-.238-.644-.236.642.1-.027-.1.047-.084.227-.433-.01v32.373H231.842Z" transform="translate(-0.5 -475.5)" fill="#115b55"/>
        </g>
        <g id="Group_10" data-name="Group 10" transform="translate(-8.5 -396.897)">
          <path id="Path_74" data-name="Path 74" d="M295.559,400.835,284.644,392.4l10.178,4.978-2.089-9.778-8.088-6.249,7.541,3.688-2.157-10.1-5.384-4.16,5.02,2.455-1.862-8.715-3.158-2.44,2.944,1.44-1.967-9.206-.978-.755.912.446-2.227-10.424-2.237,10.468,1-.489-1.073.829-1.96,9.175,3.033-1.483-3.253,2.513-1.856,8.685,5.109-2.5-5.48,4.233-2.151,10.066,7.63-3.732-8.183,6.321-2.083,9.749,10.266-5.021-11.011,8.507-1.281,6h27.057Z" transform="translate(-197.261)" fill="#115b55"/>
          <path id="Path_75" data-name="Path 75" d="M240.6,453.22l-7.726-5.967,7.2,3.522-1.479-6.919-5.724-4.421,5.338,2.61-1.527-7.143-3.811-2.942,3.553,1.737-1.321-6.169-2.236-1.726,2.084,1.019-1.391-6.514-.692-.535.645.315-1.577-7.376-1.583,7.407.708-.346-.759.586-1.388,6.492,2.147-1.05-2.3,1.778-1.314,6.146,3.616-1.768-3.879,3-1.522,7.123,5.4-2.64-5.792,4.473-1.474,6.9,7.267-3.553-7.794,6.019-.907,4.243h19.151Z" transform="translate(-162.517 -50.61)" fill="#115b55"/>
        </g>
        <g id="_821b078ba6683e03aec5fa643aa21d91" data-name="821b078ba6683e03aec5fa643aa21d91" transform="translate(-465.231 2266.253)">
          <path id="Path_76" data-name="Path 76" d="M651.694-2301.541a2.522,2.522,0,0,0-.8.316c-.477.327-.642.716-.926,2.225a2.781,2.781,0,0,1-.249.853c-.235.485-.491.614-1.439.744a4.268,4.268,0,0,0-1.2.285,2.21,2.21,0,0,0-1.077,1.393,1.632,1.632,0,0,0,.06,1.13,3.617,3.617,0,0,0,2.769,1.551,7.99,7.99,0,0,0,1.7.081c.719,0,1.439-.021,1.7-.046a12.015,12.015,0,0,0,1.228-.172c.042-.014.053.014.053.13v.147l.119-.091a.568.568,0,0,1,.154-.091,16.41,16.41,0,0,1,1.506,1.691c3.2,3.969,4.882,8.335,4.611,11.96a11.56,11.56,0,0,1-.263,1.79,7.349,7.349,0,0,0-.214,1.948,8.188,8.188,0,0,0,.063,1.141,10.454,10.454,0,0,0,1.435,3.85l.249.414.007,1.14a7.351,7.351,0,0,0,.084,1.58,6.33,6.33,0,0,0,.986,2.463,5.6,5.6,0,0,0,1.737,1.537,7.618,7.618,0,0,0,3.422.878,1.4,1.4,0,0,1,.316.017c0,.007-.2.281-.449.6-1.72,2.246-3.723,5.008-5.552,7.644a52.523,52.523,0,0,1-3.267,4.355,77.279,77.279,0,0,1-5.282,5.7c-2.053,2.032-3.881,3.713-5.78,5.313-.569.477-.59.5-.646.688-.277.92.354,1.551,1.762,1.776a14.279,14.279,0,0,0,2.632,0,42.806,42.806,0,0,0,5.878-1.053,11.7,11.7,0,0,1,2.878-.5,7.965,7.965,0,0,1,2.808.431c.281.088.849.26,1.263.386,3.144.955,5.264,1.162,7.089.691a17.158,17.158,0,0,0,1.913-.653c2.253-.867,2.769-.99,3.808-.905a17.466,17.466,0,0,1,2.264.354,22.234,22.234,0,0,0,3.218.491,17.277,17.277,0,0,0,7.215-1.488c.161-.07.3-.126.3-.126a.261.261,0,0,1-.007.1c-.018.137.126.3.337.375a3.052,3.052,0,0,0,.814.077,3.832,3.832,0,0,0,1.727-.2c.312-.123,1.239-.453,1.278-.453a.965.965,0,0,1,.014.225.562.562,0,0,0,.028.242c.018.01,1.551-.063,1.576-.077,0,0,.011-.1.021-.225a1.671,1.671,0,0,1,.095-.428,1.308,1.308,0,0,0-.049-.912c-.095-.3-.305-1.474-.481-2.685a6.143,6.143,0,0,1-.07-1.737,6.938,6.938,0,0,0-.088-2.4,24.862,24.862,0,0,1-.653-4.92,19.381,19.381,0,0,1,.095-3.029,33.974,33.974,0,0,0,.088-6.334c-.021-.281-.042-.562-.049-.625l-.018-.112h.386a3.539,3.539,0,0,0,1.028-.126,2.5,2.5,0,0,0,.723-.677c0-.108-1.625-5.763-2.583-9a77.823,77.823,0,0,0-2.678-8.166,9.578,9.578,0,0,0-1.906-2.615,3.221,3.221,0,0,0-1.414-.933c-.47-.116-.649-.235-1.242-.818l-.537-.53.018-.6a4.2,4.2,0,0,1,.126-1.035,5.911,5.911,0,0,0,.211-1.594,1.143,1.143,0,0,0-.13-.625.906.906,0,0,0-.537-.509.278.278,0,0,1-.218-.218c-.161-.46-.491-.66-1.288-.8a3.535,3.535,0,0,0-1.86.193c-1.186.344-1.751.593-1.923.846a.437.437,0,0,0-.07.341c.014.21.025.235.27.625.042.063.025.108-.151.4a6.494,6.494,0,0,0-.544,1.073c-.035.13-.028.154.07.316.13.211.123.281-.074.593-.14.218-.147.225-.242.193-.154-.057-.218-.147-.27-.4a2.3,2.3,0,0,0-.667-1.229.365.365,0,0,1-.172-.228,1.179,1.179,0,0,0-.607-.811,1.9,1.9,0,0,0-1.046-.049l-.351.06-.179-.092a2.459,2.459,0,0,0-1.221-.249,2.424,2.424,0,0,0-1.2.235,5.585,5.585,0,0,0-2.316,2.221c-.288.46-1.635,2.769-3.3,5.65-2.871,4.969-3.474,5.973-4.085,6.8a.68.68,0,0,0-.2.477,1.423,1.423,0,0,0,.456,1.18,2.082,2.082,0,0,0,1.053.495,7.016,7.016,0,0,1,2.13.67,3.783,3.783,0,0,1,1,.923.721.721,0,0,1,.105.492,4.179,4.179,0,0,1-.077.677c-.161.8-.056,1.12.414,1.257a5.448,5.448,0,0,0,2.165-.214c.218-.06.4-.105.414-.105s-.046.084-.13.19c-.723.895-2.337,2.917-2.674,3.344a6.136,6.136,0,0,1-.442.537c-.014,0-.246-.14-.519-.312a23.08,23.08,0,0,1-6.37-5.868l-.2-.295.056-.4c.119-.853.519-2.737.9-4.211a76.243,76.243,0,0,1,2.558-7.967,36.434,36.434,0,0,0,1.456-4.534,11.042,11.042,0,0,0,.228-3.162,13.166,13.166,0,0,0-.3-2.966c-.046-.158-.084-.295-.084-.305s.039-.017.084-.017c.207,0,.211-.035.014-.235l-.186-.186.277-.256a10.905,10.905,0,0,0,1.755-2.13c.79-1.33.776-2.7-.042-3.485a1.834,1.834,0,0,0-1.4-.54c-.534.039-.793.277-1.186,1.084a2.333,2.333,0,0,1-.67.993,1.181,1.181,0,0,1-1.2-.01,1.755,1.755,0,0,0-.972-.186,1.071,1.071,0,0,0-.758.442,1.416,1.416,0,0,0-.26.913,1.9,1.9,0,0,0,.267,1.053,3.74,3.74,0,0,0,1.13,1.158,7.8,7.8,0,0,0,2.376,1.018l.267.06-.084.225-.084.228.158-.025.158-.021.07.155a4.088,4.088,0,0,1,.225.958,16.662,16.662,0,0,1,.144,2.72,8.8,8.8,0,0,1-.316,2.965,42.085,42.085,0,0,1-1.463,4.352c-.934,2.537-1.288,3.569-1.9,5.545-.154.491-.54,1.906-.723,2.632-.288,1.158-.772,3.429-.776,3.643a8.542,8.542,0,0,1-.891-1.73,8.719,8.719,0,0,1-.639-2.983,8.642,8.642,0,0,1,.263-2.457,9.576,9.576,0,0,0,.228-2.246,14.217,14.217,0,0,0-1.435-6.071,25.12,25.12,0,0,0-4.453-6.486c-.4-.414-.4-.4-.221-.5.095-.056.07-.092-.1-.133a.858.858,0,0,1-.158-.049c0-.007.105-.323.232-.709a19.864,19.864,0,0,0,.667-2.6,6.135,6.135,0,0,0,.1-1.365,2.815,2.815,0,0,0-.3-1.649,2.9,2.9,0,0,0-1.825-1.6A3.024,3.024,0,0,0,651.694-2301.541Zm30.564,18.863a2.736,2.736,0,0,1,.786.425,2.346,2.346,0,0,1,.716,1.1l.07.193-.105.109-.105.109.039.435a9.387,9.387,0,0,1,.028.965c-.011.512-.014.533-.109.67a1.66,1.66,0,0,0-.235.867c-.018.214-.06.681-.095,1.039a21.874,21.874,0,0,0-.056,2.246c.007.877.021,1.906.039,2.281a2.569,2.569,0,0,0,.144,1c.063.172.13.369.151.428.056.158-.042.53-.446,1.748-.512,1.533-2.007,5.668-2.049,5.668a1.1,1.1,0,0,1-.119-.292c-.2-.565-1.2-3.323-1.569-4.323a21.024,21.024,0,0,0-.853-2.123,1.277,1.277,0,0,1-.193-.635,1.763,1.763,0,0,1,.277-1.014,3.844,3.844,0,0,1,.99-1.228,3.005,3.005,0,0,0,.87-1.071,1.9,1.9,0,0,0-.007-1.86,6.35,6.35,0,0,0-1.242-1.562,4.223,4.223,0,0,1-.762-.895,3.162,3.162,0,0,1-.256-2.113,13.75,13.75,0,0,1,.853-1.765l.14-.228h.667c.59,0,.674-.007.733-.063a.127.127,0,0,1,.165-.024.76.76,0,0,0,.551-.053A1.777,1.777,0,0,1,682.258-2282.677Zm-20.429,13.312a23.054,23.054,0,0,0,3.738,3.745,29.609,29.609,0,0,0,2.678,1.9.609.609,0,0,1,.182.126,2.845,2.845,0,0,1-.218.309l-.214.281h-.383a7.293,7.293,0,0,1-3.257-.78,5.17,5.17,0,0,1-2.165-2.182,6.785,6.785,0,0,1-.663-2.937c-.025-.593-.007-.849.053-.783Zm23.141,7.689a1.4,1.4,0,0,1,.755.439c.056.077.221.368.372.649.565,1.06.818,1.383,1.225,1.562.169.074.207.112.323.319a7.371,7.371,0,0,1,.523,1.3,7.842,7.842,0,0,1,.263,1.9c.053,1.2.27,3.46.667,6.875.095.828.172,1.513.165,1.516s-.2-.407-.446-.909c-1.857-3.9-4.58-9.09-6.492-12.374l-.383-.653.137-.011a.749.749,0,0,1,.533.165c.1.087.109.119.133.393.032.411.133.565.323.491.133-.053.221-.176.474-.671a3.485,3.485,0,0,1,.663-1.014.271.271,0,0,1,.295-.095A3.267,3.267,0,0,1,684.971-2261.677Z" transform="translate(0 0)" fill="#115b55"/>
        </g>
      </g>
    </g>
  </g>
</svg>
