<svg id="gift" xmlns="http://www.w3.org/2000/svg" width="152.484" height="114.889" viewBox="0 0 152.484 114.889">
  <rect id="Rectangle_7" data-name="Rectangle 7" width="92.548" height="61.942" transform="translate(30.607 52.784)" fill="#be71cb"/>
  <rect id="Rectangle_8" data-name="Rectangle 8" width="92.548" height="3.644" transform="translate(30.607 52.784)" fill="#9855a4"/>
  <path id="Path_767" data-name="Path 767" d="M96,120h97.214v17.675H96Z" transform="translate(-67.72 -84.649)" fill="#fbe6ff"/>
  <rect id="Rectangle_9" data-name="Rectangle 9" width="9.473" height="58.298" transform="translate(71.415 56.427)" fill="#fff"/>
  <rect id="Rectangle_10" data-name="Rectangle 10" width="9.427" height="21.21" transform="translate(71.585 35.234)" fill="rgba(255,255,255,0.62)"/>
  <path id="Path_768" data-name="Path 768" d="M275.082,123.321q-.266-.252-.514-.514Q274.815,123.069,275.082,123.321Z" transform="translate(-193.684 -86.63)" fill="#c2c2c2"/>
  <path id="Path_769" data-name="Path 769" d="M169.322,63.3v7.254S134.037,82.622,137.2,72.423s1.476-22.028,1.476-22.028L141.4,51.54Z" transform="translate(-96.642 -35.549)" fill="#fbe5ff"/>
  <path id="Path_770" data-name="Path 770" d="M142.627,76.648c-3.348,0-5.626-.779-5.627-2.9a4.043,4.043,0,0,1,.2-1.194,49.955,49.955,0,0,0,1.926-14.426,60.411,60.411,0,0,0-.443-7.547c.094.417,1.007,1.093,2.508,1.931-1.38,6.125-1.257,17.221,17.748,17.221a63.5,63.5,0,0,0,7.444-.478l-.026,2.392q.462-.145.863-.272h0l-.91.288c-.934.293-2.049.633-3.287,1-2.148.63-4.674,1.328-7.292,1.962A61.516,61.516,0,0,1,142.627,76.648Z" transform="translate(-96.642 -35.68)" fill="#be71cb"/>
  <path id="Path_771" data-name="Path 771" d="M272.285,63.3v7.254s35.285,12.067,32.12,1.868-1.476-22.028-1.476-22.028l-2.721,1.146Z" transform="translate(-192.073 -35.549)" fill="#fbe5ff"/>
  <path id="Path_772" data-name="Path 772" d="M303.456,76.648c-5.693,0-14.475-2.254-20.4-3.99-1.238-.363-2.354-.7-3.287-1l-.319-.1.049-2.33a63.793,63.793,0,0,0,7.64.5c19.005,0,19.128-11.1,17.748-17.221,1.5-.838,2.413-1.514,2.508-1.931a60.487,60.487,0,0,0-.443,7.547,49.954,49.954,0,0,0,1.926,14.426,4.052,4.052,0,0,1,.2,1.194C309.082,75.869,306.8,76.649,303.456,76.648Zm-24.687-5.3-.138-.044Z" transform="translate(-196.55 -35.68)" fill="#be71cb"/>
  <path id="Path_773" data-name="Path 773" d="M236.747,97.97l.072-6.683.675.209c0,.04,0,.08,0,.12.039,1.052.063,2.227.069,3.472h0q0,.29,0,.585h0c0,.759-.007,1.5-.02,2.2C237.275,97.906,237.011,97.938,236.747,97.97Z" transform="translate(-167.004 -64.395)" fill="#fbe5ff"/>
  <path id="Path_774" data-name="Path 774" d="M236.658,116.126l.026-2.392c.264-.031.528-.064.8-.1-.009.465-.02.916-.034,1.349q0,.168-.011.333c0,.017,0,.034,0,.052v.005c0,.019,0,.039,0,.058s0,.042,0,.062a1.409,1.409,0,0,0,.079.358Z" transform="translate(-166.942 -80.16)" fill="#fbe5ff"/>
  <path id="Path_775" data-name="Path 775" d="M279.248,97.928l-.684-.217.684.217Zm-.907-9.274h0c.333-.209.706-.442,1.116-.7C279.047,88.211,278.673,88.445,278.341,88.654Z" transform="translate(-196.345 -62.047)" fill="#c2c2c2"/>
  <path id="Path_776" data-name="Path 776" d="M279.679,97.933c-.255-.031-.514-.064-.774-.1-.015-.751-.023-1.543-.023-2.36q0-.213,0-.424h0c0-1.159.024-2.26.057-3.261a1.5,1.5,0,0,0-.013-.247q.443-.135.891-.275Z" transform="translate(-196.727 -64.382)" fill="#fbe5ff"/>
  <path id="Path_777" data-name="Path 777" d="M279.454,115.987l-.684-.217-.138-.044a1.406,1.406,0,0,0,.138-.614c0-.017,0-.034,0-.05-.017-.478-.03-.981-.04-1.5.26.034.519.067.774.1l-.049,2.33" transform="translate(-196.55 -80.106)" fill="#fbe5ff"/>
  <path id="Path_778" data-name="Path 778" d="M145.1,49.083c-9.862-1.077,12.736,8.773,28.234,13.234C173.337,62.317,154.965,50.16,145.1,49.083Z" transform="translate(-100.658 -34.566)" fill="#9855a4"/>
  <path id="Path_779" data-name="Path 779" d="M300.519,49.083c9.862-1.077-12.736,8.773-28.234,13.234C272.285,62.317,290.657,50.16,300.519,49.083Z" transform="translate(-192.073 -34.566)" fill="#9855a4"/>
  <path id="Path_780" data-name="Path 780" d="M251.009,94.265c-.041-1.167-.064-2.478-.064-3.862,0-1.314.021-2.562.058-3.684a1.284,1.284,0,0,0-.463-1.067,9.191,9.191,0,0,0-5.624-1.573,8.659,8.659,0,0,0-5.151,1.363,1.28,1.28,0,0,0-.485,1.087c.045,1.216.07,2.6.07,4.057,0,1.392-.023,2.708-.064,3.881a1.28,1.28,0,0,0,.486,1.086,8.668,8.668,0,0,0,5.143,1.358,9.183,9.183,0,0,0,5.633-1.579A1.283,1.283,0,0,0,251.009,94.265Z" transform="translate(-168.79 -59.311)" fill="#fbe5ff"/>
  <path id="Path_781" data-name="Path 781" d="M268.774,122.53a7.377,7.377,0,0,0,2.58-1.213,1.109,1.109,0,0,0,.324-.4,1.109,1.109,0,0,1-.324.4A7.377,7.377,0,0,1,268.774,122.53Z" transform="translate(-189.597 -85.294)" fill="#dedede"/>
  <path id="Path_782" data-name="Path 782" d="M278.632,119.444a1.4,1.4,0,0,0,.138-.614A1.4,1.4,0,0,1,278.632,119.444Z" transform="translate(-196.55 -83.824)" fill="#931919"/>
  <path id="Path_783" data-name="Path 783" d="M241.567,122.534a6.378,6.378,0,0,1-1.576-.813,1.146,1.146,0,0,1-.384-.5,1.146,1.146,0,0,0,.384.5A6.378,6.378,0,0,0,241.567,122.534Zm-1.977-1.359h0Z" transform="translate(-169.01 -85.478)" fill="#dedede"/>
  <path id="Path_784" data-name="Path 784" d="M278.9,107.911c-.015-.751-.023-1.543-.023-2.36C278.882,106.368,278.89,107.159,278.9,107.911Z" transform="translate(-196.727 -74.457)" fill="#a91d1d"/>
  <path id="Path_785" data-name="Path 785" d="M279,115.064c-.017-.478-.03-.98-.041-1.5C278.97,114.083,278.984,114.585,279,115.064Z" transform="translate(-196.782 -80.108)" fill="#931919"/>
  <path id="Path_786" data-name="Path 786" d="M239.454,108.368c.013-.7.02-1.44.02-2.2C239.474,106.928,239.467,107.665,239.454,108.368Z" transform="translate(-168.914 -74.893)" fill="#a91d1d"/>
  <path id="Path_787" data-name="Path 787" d="M239.34,114.986c.014-.433.025-.883.033-1.349C239.365,114.1,239.354,114.553,239.34,114.986Z" transform="translate(-168.833 -80.161)" fill="#931919"/>
  <path id="Path_788" data-name="Path 788" d="M239.517,104.77c0-.2,0-.392,0-.585h0Q239.517,104.475,239.517,104.77Z" transform="translate(-168.958 -73.493)" fill="#a91d1d"/>
  <path id="Path_789" data-name="Path 789" d="M278.882,104.532q0-.213,0-.423h0Q278.882,104.319,278.882,104.532Z" transform="translate(-196.727 -73.439)" fill="#a91d1d"/>
  <path id="Path_790" data-name="Path 790" d="M244.931,111.04a10.576,10.576,0,0,1-3.567-.545,6.386,6.386,0,0,1-1.576-.813,1.144,1.144,0,0,1-.384-.5l-.017-.044h0a1.4,1.4,0,0,1-.08-.362c0-.021,0-.042,0-.062s0-.038,0-.058v-.005c0-.017,0-.034,0-.052,0-.11.008-.221.011-.333.014-.432.025-.883.033-1.349.013-.7.02-1.44.02-2.2q0-.3,0-.585c.824,2.883,3.107,4.956,5.8,4.956s4.983-2.083,5.8-4.978c0,.141,0,.282,0,.423,0,.817.008,1.609.023,2.36.01.521.024,1.023.041,1.5,0,.017,0,.034,0,.051a1.406,1.406,0,0,1-.138.614,1.112,1.112,0,0,1-.324.4,7.385,7.385,0,0,1-2.58,1.214A11.9,11.9,0,0,1,244.931,111.04Z" transform="translate(-168.806 -73.44)" fill="#be71cb"/>
  <path id="Path_791" data-name="Path 791" d="M250.725,89.4c-.931,0-2.537-.415-4.363-.415s-3.433.414-4.363.415c-.536,0-.848-.138-.848-.572,0-1.187,2.333-2.149,5.212-2.149s5.212.962,5.212,2.149C251.573,89.258,251.261,89.4,250.725,89.4Z" transform="translate(-170.11 -61.142)" fill="rgba(255,255,255,0.62)"/>
  <path id="Path_792" data-name="Path 792" d="M8.769,144.319c-3.9-2.126-7.924-6.284-8.627-9.152a5.647,5.647,0,0,1,.675-4.188,4.086,4.086,0,0,1,3.977-1.95,4.1,4.1,0,0,1,3.325,2.927,4.649,4.649,0,0,1,8.687.252c.841,2.371-.333,5.009-1.937,6.946a23.6,23.6,0,0,1-6.093,5.165" transform="translate(0 -90.998)" fill="#ebebeb"/>
  <path id="Path_793" data-name="Path 793" d="M445.769,138.319c-3.9-2.126-7.924-6.284-8.627-9.152a5.647,5.647,0,0,1,.675-4.188,4.007,4.007,0,0,1,7.3.977,4.649,4.649,0,0,1,8.687.252c.841,2.371-.333,5.009-1.937,6.946a23.6,23.6,0,0,1-6.093,5.165" transform="translate(-308.265 -86.766)" fill="#be71cb"/>
  <path id="Path_794" data-name="Path 794" d="M52.176,83.6a6.91,6.91,0,0,1-3.125-3.343,2.08,2.08,0,0,1,.245-1.53,1.456,1.456,0,0,1,.614-.576,1.435,1.435,0,0,1,1.589.214,1.47,1.47,0,0,1,.444.719,1.7,1.7,0,0,1,.641-.772,1.669,1.669,0,0,1,1.9.054,1.706,1.706,0,0,1,.6.807,2.745,2.745,0,0,1-.7,2.537,8.572,8.572,0,0,1-2.208,1.886" transform="translate(-34.565 -55.022)" fill="#f5f5f5"/>
  <path id="Path_795" data-name="Path 795" d="M489.176,77.6a6.91,6.91,0,0,1-3.125-3.343,2.082,2.082,0,0,1,.245-1.53,1.457,1.457,0,0,1,.614-.576,1.435,1.435,0,0,1,1.589.214,1.471,1.471,0,0,1,.444.719,1.7,1.7,0,0,1,.641-.772,1.669,1.669,0,0,1,1.9.054,1.708,1.708,0,0,1,.6.807,2.745,2.745,0,0,1-.7,2.537,8.579,8.579,0,0,1-2.208,1.886" transform="translate(-342.83 -50.79)" fill="#f5f5f5"/>
  <path id="Path_796" data-name="Path 796" d="M3.717,61.475c-1.653-.9-3.364-2.651-3.659-3.868A2.38,2.38,0,0,1,.352,55.84a1.7,1.7,0,0,1,3.1.412,1.974,1.974,0,0,1,3.679.106A3.186,3.186,0,0,1,6.312,59.3a10.017,10.017,0,0,1-2.586,2.183" transform="translate(0 -38.798)" fill="#be71cb"/>
  <path id="Path_797" data-name="Path 797" d="M440.716,55.475c-1.653-.9-3.364-2.651-3.659-3.868a2.38,2.38,0,0,1,.295-1.768,1.7,1.7,0,0,1,3.1.412,1.974,1.974,0,0,1,3.679.106,3.186,3.186,0,0,1-.822,2.946,10.015,10.015,0,0,1-2.586,2.183" transform="translate(-308.265 -34.565)" fill="#ebebeb"/>
  <path id="Path_798" data-name="Path 798" d="M59.717,214.475c-1.653-.9-3.364-2.651-3.659-3.868a2.38,2.38,0,0,1,.295-1.768,1.7,1.7,0,0,1,3.1.412,1.974,1.974,0,0,1,3.679.106,3.186,3.186,0,0,1-.822,2.946,10.016,10.016,0,0,1-2.586,2.183" transform="translate(-39.503 -146.726)" fill="#be71cb"/>
  <path id="Path_799" data-name="Path 799" d="M496.716,208.475c-1.653-.9-3.364-2.651-3.659-3.868a2.38,2.38,0,0,1,.295-1.768,1.7,1.7,0,0,1,3.1.412,1.974,1.974,0,0,1,3.679.106,3.186,3.186,0,0,1-.822,2.946,10.015,10.015,0,0,1-2.586,2.183" transform="translate(-347.768 -142.493)" fill="#ebebeb"/>
  <path id="Path_800" data-name="Path 800" d="M53.717,12.475c-1.653-.9-3.364-2.651-3.659-3.868a2.38,2.38,0,0,1,.295-1.768,1.7,1.7,0,0,1,3.1.412,1.974,1.974,0,0,1,3.679.106,3.186,3.186,0,0,1-.822,2.946,10.017,10.017,0,0,1-2.586,2.183" transform="translate(-35.271 -4.232)" fill="#ebebeb"/>
  <path id="Path_801" data-name="Path 801" d="M19.717,250.475c-1.653-.9-3.364-2.651-3.659-3.868a2.38,2.38,0,0,1,.295-1.768,1.7,1.7,0,0,1,3.1.412,1.974,1.974,0,0,1,3.679.106,3.186,3.186,0,0,1-.822,2.946,10.016,10.016,0,0,1-2.586,2.183" transform="translate(-11.287 -172.121)" fill="#ebebeb"/>
  <path id="Path_802" data-name="Path 802" d="M490.716,6.475c-1.653-.9-3.364-2.651-3.659-3.868A2.38,2.38,0,0,1,487.352.84a1.7,1.7,0,0,1,3.1.412,1.974,1.974,0,0,1,3.679.106,3.186,3.186,0,0,1-.822,2.946,10.016,10.016,0,0,1-2.586,2.183" transform="translate(-343.536 0)" fill="#ebebeb"/>
  <path id="Path_803" data-name="Path 803" d="M456.716,244.475c-1.653-.9-3.364-2.651-3.659-3.868a2.38,2.38,0,0,1,.295-1.768,1.7,1.7,0,0,1,3.1.412,1.974,1.974,0,0,1,3.679.106,3.186,3.186,0,0,1-.822,2.946,10.015,10.015,0,0,1-2.586,2.183" transform="translate(-319.552 -167.888)" fill="#be71cb"/>
  <path id="Path_804" data-name="Path 804" d="M217,193v58.034" transform="translate(-153.075 -136.145)" fill="none" stroke="#fff" stroke-width="1"/>
  <path id="Path_805" data-name="Path 805" d="M297,193v57.739" transform="translate(-209.508 -136.145)" fill="none" stroke="#fff" stroke-width="1"/>
</svg>
