<svg xmlns="http://www.w3.org/2000/svg" width="71.392" height="55.121" viewBox="0 0 71.392 55.121">
  <g id="music" transform="translate(-0.19)">
    <path id="Path_723" data-name="Path 723" d="M4.983,139.957c-1.771-.965-3.6-2.854-3.918-4.157a2.565,2.565,0,0,1,.307-1.9,1.856,1.856,0,0,1,1.806-.886,1.864,1.864,0,0,1,1.51,1.329,2.112,2.112,0,0,1,3.945.115,3.393,3.393,0,0,1-.88,3.155,10.719,10.719,0,0,1-2.767,2.346" transform="translate(-0.81 -115.206)" fill="#ebebeb"/>
    <path id="Path_724" data-name="Path 724" d="M51.442,84.542a3.138,3.138,0,0,1-1.419-1.518.945.945,0,0,1,.111-.695.661.661,0,0,1,.279-.262.652.652,0,0,1,.722.1.668.668,0,0,1,.2.326.773.773,0,0,1,.291-.351.758.758,0,0,1,.864.025.775.775,0,0,1,.271.367,1.247,1.247,0,0,1-.32,1.152,3.893,3.893,0,0,1-1,.857" transform="translate(-43.255 -71.029)" fill="#f5f5f5"/>
    <path id="Path_725" data-name="Path 725" d="M2.688,61.941a3.63,3.63,0,0,1-1.662-1.757,1.081,1.081,0,0,1,.134-.8.771.771,0,0,1,1.409.187.9.9,0,0,1,1.671.048,1.447,1.447,0,0,1-.373,1.338,4.549,4.549,0,0,1-1.175.991" transform="translate(-0.81 -51.106)" fill="#be71cb"/>
    <path id="Path_726" data-name="Path 726" d="M58.688,214.941a3.63,3.63,0,0,1-1.662-1.757,1.081,1.081,0,0,1,.134-.8.771.771,0,0,1,1.409.187.9.9,0,0,1,1.671.048,1.447,1.447,0,0,1-.373,1.338,4.549,4.549,0,0,1-1.175.991" transform="translate(-49.318 -183.637)" fill="#be71cb"/>
    <path id="Path_727" data-name="Path 727" d="M52.688,12.941a3.63,3.63,0,0,1-1.662-1.757,1.081,1.081,0,0,1,.134-.8.771.771,0,0,1,1.409.187.9.9,0,0,1,1.671.048,1.447,1.447,0,0,1-.373,1.338,4.549,4.549,0,0,1-1.175.991" transform="translate(-44.121 -8.662)" fill="#ebebeb"/>
    <path id="Path_728" data-name="Path 728" d="M18.688,250.941a3.63,3.63,0,0,1-1.662-1.757,1.081,1.081,0,0,1,.134-.8.771.771,0,0,1,1.409.187.9.9,0,0,1,1.671.048,1.447,1.447,0,0,1-.373,1.338,4.549,4.549,0,0,1-1.175.991" transform="translate(-14.67 -214.82)" fill="#ebebeb"/>
    <path id="Path_730" data-name="Path 730" d="M504.443,91.542a3.138,3.138,0,0,1-1.419-1.518.945.945,0,0,1,.111-.695.661.661,0,0,1,.279-.262.651.651,0,0,1,.722.1.668.668,0,0,1,.2.326.773.773,0,0,1,.291-.351.758.758,0,0,1,.864.025.776.776,0,0,1,.271.367,1.246,1.246,0,0,1-.32,1.152,3.9,3.9,0,0,1-1,.857" transform="translate(-435.648 -77.093)" fill="#f5f5f5"/>
    <path id="Path_731" data-name="Path 731" d="M254.442,2.542a3.138,3.138,0,0,1-1.419-1.518.945.945,0,0,1,.111-.695.661.661,0,0,1,.279-.262.652.652,0,0,1,.722.1.668.668,0,0,1,.2.326.772.772,0,0,1,.291-.351.758.758,0,0,1,.864.025.776.776,0,0,1,.271.367,1.247,1.247,0,0,1-.32,1.152,3.9,3.9,0,0,1-1,.857" transform="translate(-219.096 0)" fill="#f5f5f5"/>
    <path id="Path_732" data-name="Path 732" d="M489.679,147.683a5.8,5.8,0,0,1-2.636-2.8,1.728,1.728,0,0,1,.207-1.28,1.221,1.221,0,0,1,2.233.3,1.421,1.421,0,0,1,2.65.075,2.284,2.284,0,0,1-.594,2.122,7.218,7.218,0,0,1-1.862,1.578" transform="translate(-421.789 -123.868)" fill="#f5f5f5"/>
    <path id="Path_733" data-name="Path 733" d="M239.679,58.683a5.8,5.8,0,0,1-2.635-2.8,1.728,1.728,0,0,1,.206-1.28,1.221,1.221,0,0,1,2.233.3,1.421,1.421,0,0,1,2.65.075,2.284,2.284,0,0,1-.594,2.122,7.217,7.217,0,0,1-1.862,1.578" transform="translate(-205.236 -46.775)" fill="#f5f5f5"/>
    <path id="Path_734" data-name="Path 734" d="M511.688,221.941a3.63,3.63,0,0,1-1.662-1.757,1.081,1.081,0,0,1,.134-.8.771.771,0,0,1,1.409.187.9.9,0,0,1,1.671.048,1.447,1.447,0,0,1-.373,1.338,4.549,4.549,0,0,1-1.175.991" transform="translate(-441.712 -189.7)" fill="#ebebeb"/>
    <path id="Path_735" data-name="Path 735" d="M261.688,132.941a3.631,3.631,0,0,1-1.662-1.757,1.081,1.081,0,0,1,.134-.8.771.771,0,0,1,1.409.187.9.9,0,0,1,1.671.048,1.447,1.447,0,0,1-.373,1.338,4.549,4.549,0,0,1-1.175.991" transform="translate(-225.159 -112.607)" fill="#ebebeb"/>
    <path id="Path_736" data-name="Path 736" d="M505.688,19.941a3.631,3.631,0,0,1-1.662-1.757,1.081,1.081,0,0,1,.134-.8.771.771,0,0,1,1.409.187.9.9,0,0,1,1.671.048,1.447,1.447,0,0,1-.373,1.338,4.548,4.548,0,0,1-1.175.991" transform="translate(-436.514 -14.726)" fill="#ebebeb"/>
    <path id="Path_737" data-name="Path 737" d="M471.688,257.941a3.63,3.63,0,0,1-1.662-1.757,1.081,1.081,0,0,1,.134-.8.771.771,0,0,1,1.409.187.9.9,0,0,1,1.671.048,1.447,1.447,0,0,1-.373,1.338,4.549,4.549,0,0,1-1.175.991" transform="translate(-407.063 -220.884)" fill="#be71cb"/>
    <path id="Path_738" data-name="Path 738" d="M400,91.142V69l3.278,2.408c2.609,1.873,4.995,3.055,5.084,3.88V88.332c-.089-1.539-.763-4.776-2.743-5.418a11.693,11.693,0,0,1-4.482-3.077V91.142Z" transform="translate(-346.429 -59.769)" fill="#fbe5ff"/>
    <path id="Path_739" data-name="Path 739" d="M343.425,227.5c-2.412-1.318-4.9-3.9-5.337-5.675a3.509,3.509,0,0,1,.418-2.6,2.477,2.477,0,0,1,4.517.606,2.9,2.9,0,0,1,1.1-1.318,2.863,2.863,0,0,1,3.26.095,2.9,2.9,0,0,1,1.018,1.38,4.641,4.641,0,0,1-1.2,4.307,14.61,14.61,0,0,1-3.769,3.2" transform="translate(-292.723 -188.834)" fill="#be71cb"/>
    <path id="Path_740" data-name="Path 740" d="M387,246.009a2.833,2.833,0,0,0,2.289-2.256C389.609,244.6,389.6,246.249,387,246.009Z" transform="translate(-335.168 -211.142)" fill="#fbe5ff"/>
    <path id="Path_741" data-name="Path 741" d="M143.106,173.762l-22.2,5.964v15.567H120V174.672L144.216,168v21.43h-1.11Z" transform="translate(-103.889 -145.523)" fill="#fbe5ff"/>
    <path id="Path_742" data-name="Path 742" d="M232.425,315.5c-2.412-1.318-4.9-3.9-5.337-5.675a3.509,3.509,0,0,1,.418-2.6,2.477,2.477,0,0,1,4.517.606,2.894,2.894,0,0,1,1.1-1.318,2.863,2.863,0,0,1,3.26.095,2.9,2.9,0,0,1,1.018,1.38,4.641,4.641,0,0,1-1.2,4.307,14.609,14.609,0,0,1-3.769,3.2" transform="translate(-196.574 -265.061)" fill="#be71cb"/>
    <path id="Path_743" data-name="Path 743" d="M59.425,350.5c-2.412-1.318-4.9-3.9-5.336-5.675a3.509,3.509,0,0,1,.418-2.6,2.477,2.477,0,0,1,4.517.606,2.874,2.874,0,0,1,5.374.156,4.641,4.641,0,0,1-1.2,4.307,14.608,14.608,0,0,1-3.769,3.2" transform="translate(-46.72 -295.378)" fill="#be71cb"/>
    <path id="Path_744" data-name="Path 744" d="M274,334.009a2.833,2.833,0,0,0,2.29-2.256C276.609,332.6,276.6,334.249,274,334.009Z" transform="translate(-237.286 -287.368)" fill="#fbe5ff"/>
    <path id="Path_745" data-name="Path 745" d="M98,370.009a2.833,2.833,0,0,0,2.29-2.256C100.609,368.6,100.6,370.249,98,370.009Z" transform="translate(-84.833 -318.552)" fill="#fbe5ff"/>
  </g>
</svg>
