<svg xmlns="http://www.w3.org/2000/svg" width="319.73" height="60.262" viewBox="0 0 319.73 60.262">
  <path id="Path_77" data-name="Path 77" d="M-108.985-5.6Q-113.107.954-118.429.954A7.987,7.987,0,0,1-125.473-3.2q-2.615-4.153-2.615-11.659,0-2.123.246-6.06a8.393,8.393,0,0,1-1.874.185,4.526,4.526,0,0,1-1.474-.277,4.1,4.1,0,0,0-1.229-.277,5.24,5.24,0,0,0-.829.123,29.616,29.616,0,0,1,.607,6.306,16.5,16.5,0,0,1-3.881,11.213A12.573,12.573,0,0,1-146.471.831q-7.453,0-10.349-5.937L-153.555-8l.427.308q1.633,7.2,7.7,7.2a8.2,8.2,0,0,0,6.611-2.953,11.991,11.991,0,0,0,2.481-7.967q0-1.169-.4-4.86-.369-3.722-.369-6.4,0-7.967,2.584-12.92-.37.123-1.818.8a6.207,6.207,0,0,1-2.526.646,7.141,7.141,0,0,1-4.837-2.307q-2.4-2.307-4.436-2.307a5.67,5.67,0,0,0-4.236,2.184,7.222,7.222,0,0,0-1.956,4.953,5.532,5.532,0,0,0,1.446,3.922,4.647,4.647,0,0,0,3.538,1.553,5.029,5.029,0,0,0,2.876-.907,5.715,5.715,0,0,0,2.046-2.569l.8.277a8.087,8.087,0,0,1-2.769,4.4,6.651,6.651,0,0,1-4.153,1.569,5.175,5.175,0,0,1-4.014-1.8,6.412,6.412,0,0,1-1.615-4.445,11.775,11.775,0,0,1,3.03-7.844,8.936,8.936,0,0,1,6.906-3.538,8.173,8.173,0,0,1,5.937,2.83q2.03,2,3.722,2a4.03,4.03,0,0,0,3.045-1.569l2.553-2.892.954.646q-4.307,4.153-4.307,11.136a24.571,24.571,0,0,0,.83,6.245,4.949,4.949,0,0,1,2.584-.892,8.365,8.365,0,0,1,3.477,1.077q1.569-8.644,5.552-13.551t8.413-4.906a4.829,4.829,0,0,1,4.122,1.753l-3.107,3.168q-1.357-2.892-3.269-2.892-3.022,0-6,5.271T-124.7-18.935q0,7.868,2.312,12.586t5.7,4.718q3.729,0,6.75-4.737Zm21.763.738Q-90.729.615-94.082.615A2.216,2.216,0,0,1-95.9-.062a4.986,4.986,0,0,1-.584-2.83A12,12,0,0,1-99.6.077a6,6,0,0,1-2.907.692,4.713,4.713,0,0,1-3.768-1.63,6.478,6.478,0,0,1-1.4-4.368V-6.552q-.338.431-1.569,2.215l-1.015-.708a27.072,27.072,0,0,1,5.706-6.568q3-2.384,5.245-2.384a6.045,6.045,0,0,1,3.168.954l2.707-1.384V-3.968a7.093,7.093,0,0,0,.154,2q.154.338.831.338A3.341,3.341,0,0,0-90.7-2.676,18.372,18.372,0,0,0-88.145-5.66Zm-9.321-.369v-6.183a4,4,0,0,0-2.965-1.261,4.342,4.342,0,0,0-3.336,1.723,6.325,6.325,0,0,0-1.482,4.276,5.086,5.086,0,0,0,1.05,3.43A3.6,3.6,0,0,0-100.4-2.03a3.5,3.5,0,0,0,2.641-1.4Q-96.543-4.83-96.543-5.229ZM-80.9-11.074q3.138-3.168,6.122-3.168a4.674,4.674,0,0,1,3.768,1.661,6.6,6.6,0,0,1,1.4,4.4A8.995,8.995,0,0,1-71.9-2.061,6.8,6.8,0,0,1-77.117.554,6.092,6.092,0,0,1-80.9-.708V11.136a7.855,7.855,0,0,1-2.03,5.737,6.663,6.663,0,0,1-4.953,2.076,5.426,5.426,0,0,1-4.8-2.646l2.522-2.492.523.431a2.619,2.619,0,0,0-.215.892,2.888,2.888,0,0,0,.754,1.984,2.427,2.427,0,0,0,1.892.846q3.045,0,3.045-6.122V-9.136a22.691,22.691,0,0,1-2.892,4.86l-.892-.769a24.7,24.7,0,0,0,3.784-7.813l3.261-1.63Zm0,8.8A5.19,5.19,0,0,0-77.179-.769a4.239,4.239,0,0,0,3.4-1.723A6.608,6.608,0,0,0-72.38-6.8a5.025,5.025,0,0,0-1.215-3.538,4.014,4.014,0,0,0-3.092-1.323A5.1,5.1,0,0,0-80.9-9.075ZM-64.966-4.86a11.97,11.97,0,0,1-8.982,6l-.277-.708A13.672,13.672,0,0,0-65.889-5.6Zm6.382-6.214q3.138-3.168,6.122-3.168a4.674,4.674,0,0,1,3.768,1.661,6.6,6.6,0,0,1,1.4,4.4,8.995,8.995,0,0,1-2.292,6.122A6.8,6.8,0,0,1-54.8.554,6.092,6.092,0,0,1-58.584-.708V11.136a7.855,7.855,0,0,1-2.03,5.737,6.663,6.663,0,0,1-4.953,2.076,5.426,5.426,0,0,1-4.8-2.646l2.522-2.492.523.431a2.619,2.619,0,0,0-.215.892,2.888,2.888,0,0,0,.754,1.984,2.427,2.427,0,0,0,1.892.846q3.045,0,3.045-6.122V-9.136a22.691,22.691,0,0,1-2.892,4.86l-.892-.769a24.7,24.7,0,0,0,3.784-7.813l3.261-1.63Zm0,8.8A5.19,5.19,0,0,0-54.862-.769a4.239,4.239,0,0,0,3.4-1.723,6.608,6.608,0,0,0,1.4-4.307,5.025,5.025,0,0,0-1.215-3.538,4.014,4.014,0,0,0-3.092-1.323,5.1,5.1,0,0,0-4.214,2.584ZM-42.649-4.86a11.97,11.97,0,0,1-8.982,6l-.277-.708A13.672,13.672,0,0,0-43.572-5.6Zm22.778-.554Q-23.162-.031-26.115.431v9.782A8.665,8.665,0,0,1-28.376,16.3a7.314,7.314,0,0,1-5.614,2.461,8.072,8.072,0,0,1-3.784-.984,7.033,7.033,0,0,1-2.892-2.738l2.584-2.892.431.4a8.046,8.046,0,0,0-.123,1.169A3.427,3.427,0,0,0-36.528,16.3a4.33,4.33,0,0,0,3.03,1.138,3.545,3.545,0,0,0,3.03-1.492,6.947,6.947,0,0,0,1.092-4.168v-17.2a30.725,30.725,0,0,1-4,4.876A4.429,4.429,0,0,1-36.267.769q-2.953,0-2.953-3.23V-9.69A28.2,28.2,0,0,1-42.235-4.46l-.892-.831a32.421,32.421,0,0,0,3.907-7.783l3.292-1.63V-2.582q0,1.074.861,1.074h.308q1.138,0,5.383-6.412v-5.154l3.261-1.63v13.32q2.092-.185,5.229-4.8ZM45.22-32.269a7.852,7.852,0,0,1-2.4,1.077,38.11,38.11,0,0,1,1.323,9.6,31.089,31.089,0,0,1-3.768,15.75Q36.606.708,31.869.708q-3.722,0-6.06-3.907Q23.379.769,19.687.769q-4.03,0-6.891-4.384A19.849,19.849,0,0,1,9.936-14.673q0-10,7.321-20.918a7.96,7.96,0,0,1-2.465.369q-2.527,0-6.594-2.153a11.663,11.663,0,0,0-4.715-1.692A3.787,3.787,0,0,0,.556-37.775,4.506,4.506,0,0,0-.615-34.638,3.6,3.6,0,0,0,.44-32.023a3.4,3.4,0,0,0,2.515,1.077,3.048,3.048,0,0,0,2.251-.923,2.962,2.962,0,0,0,.916-2.153A6.233,6.233,0,0,0,6-34.976l.753-.246a4.026,4.026,0,0,1,.6,2.338,4.062,4.062,0,0,1-1.2,3.045A4.145,4.145,0,0,1,3.138-28.67,4.669,4.669,0,0,1-.4-30.208a5.6,5.6,0,0,1-1.446-4A6.573,6.573,0,0,1,.369-39.313a8.3,8.3,0,0,1,5.783-2,10.618,10.618,0,0,1,2.922.431,13.572,13.572,0,0,1,3.753,2A7.241,7.241,0,0,0,16.3-37.345q1.784,0,4.46-2.8l.646.646q-7.383,9.536-7.383,23.933,0,6.675,1.892,10.49t4.845,3.814A4.469,4.469,0,0,0,23.9-2.6a3.884,3.884,0,0,0,1.415-2.815V-29.162l3.63-1.907V-6.712a7.072,7.072,0,0,0,1.107,4.157,3.314,3.314,0,0,0,2.8,1.571q3.476,0,6.306-5.327a27.046,27.046,0,0,0,2.83-12.841,26.724,26.724,0,0,0-2.4-11.271h-.215a12.037,12.037,0,0,1-7.49-2.107,6.194,6.194,0,0,1-2.753-5.03,3.4,3.4,0,0,1,.984-2.538,3.525,3.525,0,0,1,2.584-.969,7.835,7.835,0,0,1,5.24,2.215,18.55,18.55,0,0,1,4.388,6.46h.062a5.419,5.419,0,0,0,2.184-1.046Zm-6.275.584q-3.261-6.306-6.245-6.306-1.446,0-1.446,1.63t2.061,3.153a8.2,8.2,0,0,0,5.014,1.523ZM66.245-4.86A12.786,12.786,0,0,1,62.276-.569,10.608,10.608,0,0,1,56.616.769,5.4,5.4,0,0,1,52.571-.754a5.873,5.873,0,0,1-1.492-4.291A10.728,10.728,0,0,1,51.2-6.614Q50.095-5.2,49.51-4.337L48.5-5.045a41.958,41.958,0,0,1,6.152-7.429,6.928,6.928,0,0,1,4.43-1.769,2.975,2.975,0,0,1,2.076.738,2.455,2.455,0,0,1,.815,1.907q0,4-7.044,7.875.954,2.215,3.968,2.215a6.445,6.445,0,0,0,3.215-1.046A10.812,10.812,0,0,0,65.322-5.6Zm-11.9-.062q5.106-2.492,5.106-5.537a2.216,2.216,0,0,0-.508-1.507,1.721,1.721,0,0,0-1.369-.584A3.2,3.2,0,0,0,54.924-11.1a5.656,5.656,0,0,0-1.077,3.476,6.215,6.215,0,0,0,.246,1.876A6.032,6.032,0,0,1,54.34-4.922ZM69.766-24.579a3.928,3.928,0,0,1,1.107-2.953,3.932,3.932,0,0,1,2.861-1.077q3.784,0,6.721,3.845a15.757,15.757,0,0,1,2.938,9.844A18.657,18.657,0,0,1,80.225-3.861Q77.057.615,73,.615A5.023,5.023,0,0,1,69.3-.784,4.567,4.567,0,0,1,67.89-4.153V-5.229a6.547,6.547,0,0,1,.062-1.138l-1.446,2.03L65.49-5.045q6.06-9.382,11.413-9.382a4.924,4.924,0,0,1,4.4,2.4,19.147,19.147,0,0,0,.185-2.584,12.169,12.169,0,0,0-2.553-7.506Q76.38-25.5,73-25.5A6.079,6.079,0,0,0,69.766-24.579ZM74.627-1.63a5.409,5.409,0,0,0,4.23-2.353,8.045,8.045,0,0,0,1.892-5.153,3.928,3.928,0,0,0-1.061-2.907A3.845,3.845,0,0,0,76.842-13.1a5.34,5.34,0,0,0-4.184,2.184,7.342,7.342,0,0,0-1.815,4.8,4.877,4.877,0,0,0,1.046,3.245A3.4,3.4,0,0,0,74.627-1.63ZM85.885-4.86a11.97,11.97,0,0,1-8.982,6L76.626.431A13.382,13.382,0,0,0,84.9-5.6Zm3.522-19.718a3.928,3.928,0,0,1,1.107-2.953,3.932,3.932,0,0,1,2.861-1.077q3.784,0,6.721,3.845a15.757,15.757,0,0,1,2.938,9.844A18.657,18.657,0,0,1,99.866-3.861Q96.7.615,92.637.615a5.023,5.023,0,0,1-3.691-1.4,4.567,4.567,0,0,1-1.415-3.368V-5.229a6.547,6.547,0,0,1,.062-1.138l-1.446,2.03-1.015-.708q6.06-9.382,11.413-9.382a4.924,4.924,0,0,1,4.4,2.4,19.147,19.147,0,0,0,.185-2.584,12.169,12.169,0,0,0-2.553-7.506Q96.021-25.5,92.637-25.5A6.079,6.079,0,0,0,89.407-24.579ZM94.267-1.63A5.409,5.409,0,0,0,98.5-3.984a8.045,8.045,0,0,0,1.892-5.153,3.928,3.928,0,0,0-1.061-2.907A3.845,3.845,0,0,0,96.482-13.1,5.34,5.34,0,0,0,92.3-10.92a7.342,7.342,0,0,0-1.815,4.8A4.877,4.877,0,0,0,91.53-2.876,3.4,3.4,0,0,0,94.267-1.63Zm11.259-3.23a11.97,11.97,0,0,1-8.982,6L96.267.431A13.382,13.382,0,0,0,104.542-5.6Zm7.121-15.5-2.153,2.738-2.184-2.738,2.184-2.646Zm5.291,15.5a16.637,16.637,0,0,1-3.6,4.061A5.7,5.7,0,0,1,111.017.615q-1.661,0-2.092-.892a7.958,7.958,0,0,1-.431-3.138v-5.6a18.767,18.767,0,0,1-2.769,4.737l-.954-.769a21.689,21.689,0,0,0,3.722-7.69l3.076-1.63v9.751a10.643,10.643,0,0,0,.169,2.4.782.782,0,0,0,.846.584q1.384,0,4.46-4.03Zm21.671,0Q135.887.615,132.5.615a2.049,2.049,0,0,1-1.692-.723q-.584-.723-.584-3.307v-7.044q0-1.63-1.015-1.63a1.836,1.836,0,0,0-1.031.369,6.155,6.155,0,0,0-1.154,1.092,28.639,28.639,0,0,0-1.738,2.4,10.16,10.16,0,0,0-1.123,1.861V-.831L121.09,1.138V-9.2A19.985,19.985,0,0,1,118.2-4.276l-.954-.769a22.92,22.92,0,0,0,3.907-7.875l3.015-1.446v5.722a21.84,21.84,0,0,1,3.63-4.368,4.466,4.466,0,0,1,2.8-1.107,2.373,2.373,0,0,1,2,.923q.708.923.708,4.553v4.122a12.259,12.259,0,0,0,.138,2.276.705.705,0,0,0,.754.615q1.507,0,4.46-4.03Zm23.3-.554Q159.465.092,156.666.431v9.721a8.462,8.462,0,0,1-2.461,6.322,8.28,8.28,0,0,1-6.029,2.415,9.027,9.027,0,0,1-4.4-1.092,4.664,4.664,0,0,1-2.461-2.661l2.584-2.461.431.431a2.808,2.808,0,0,0-.123.831,3.737,3.737,0,0,0,1.246,2.769,4.206,4.206,0,0,0,3.03,1.2,4.381,4.381,0,0,0,3.753-1.861,8.736,8.736,0,0,0,1.354-5.214V-3.015Q150.606.769,147.16.769a5.283,5.283,0,0,1-4.168-1.846,6.143,6.143,0,0,1-1.615-4.153V-6.491L139.87-4.337l-1.015-.708a37.684,37.684,0,0,1,6.029-7.146,7.425,7.425,0,0,1,4.676-1.9,5.512,5.512,0,0,1,4.03,1.446l3.076-1.876V-1.384q2.153-.185,5.322-4.8Zm-9.321.308V-10.92a4.322,4.322,0,0,0-3.784-2.184,4.678,4.678,0,0,0-3.722,1.794,6.553,6.553,0,0,0-1.507,4.361,5.819,5.819,0,0,0,1.107,3.773,3.713,3.713,0,0,0,3.045,1.361,4.687,4.687,0,0,0,3.476-1.4Q153.59-4.614,153.59-5.106Z" transform="translate(156.82 41.313)" fill="#fff"/>
</svg>
