<svg xmlns="http://www.w3.org/2000/svg" width="257.169" height="51.294" viewBox="0 0 257.169 51.294">
  <g id="pict-name" transform="translate(-0.001 -187.74)">
    <path id="Path_319" data-name="Path 319" d="M405.72,445.54Z" transform="translate(-233.817 -236.661)" fill="#fff"/>
    <path id="Path_321" data-name="Path 321" d="M422.237,424.215l.055-.025c.9-.157.263-.03,1.093-.178.322-.076,1.381-.242,1.669-.3,0,0,.4-.068.377-.055.123-.034.424-.076.674-.127l-.14.021.589-.11c.229-.034.288-.038.038,0,1.538-.267,8.9-1.559,10.593-1.856-.212.03-.725.127-.919.148.424-.085.644-.11.847-.153s.962-.165,1.3-.208l.127-.03.216-.034c1.924-.347.424-.081,2.148-.381.987-.174,1.453-.271,2-.364-.081,0-.3.051-.047,0,.047,0,.682-.123.8-.14.254-.042,1.063-.186.788-.148.14,0,.847-.144.424-.064l.657-.114-.314.051c.826-.148,1.271-.22,1.813-.322l-.3.047c.491-.085.9-.161,1.1-.182l-.5.093c.818-.144,1.314-.233,1.991-.36l-.242.042c.847-.165,5.411-.974,6.207-1.127l-.369.055.686-.131a3.972,3.972,0,0,0-.394.1l10.512-1.856c.551-.093.1,0,.093,0,.669-.123.288-.059.847-.161a1.12,1.12,0,1,1-.119.03c.25-.047.483-.081.5-.089a1.9,1.9,0,0,1-.314.034l.729-.127h-.03c.161-.03.424-.093,1.131-.216l3.75-.661-.534.106.563-.1c-.292.042.513-.1.284-.059.89-.174,2.047-.36,2.835-.513.064-.025,1.64-.551,1.64-.568l.564-.1c-.064,0-.547.089-.8.136h-.042c-.589.106-.14.021-.716.123-.03,0,.5-.1.962-.182-.424.072-.847.14-1,.182a4.222,4.222,0,0,1-.424.059c-.339.064-.78.148-1.169.212h0c-.945.157-1.441.267-2.3.424l.093-.021-1.453.254c.157-.025.292-.047-.038,0-.631.11-1.064.191-1.525.263l-.424.089-13.119,2.33h.085c-3.364.6-10.279,1.813-13.762,2.44-.538.085-1.271.22-1.843.318.314-.055.208-.03-.038,0-1.7.3-.114.025-1.843.335-1.991.356-9.622,1.7-11.393,2-.949.178-2.119.381-3.063.551h.093c-1,.178-6.665,1.165-7.826,1.377l.157-.025c-1.013.182-.877.148-1.674.284.106,0-.763.153-1.093.212h0l-2.453.449h.03c-.686.127-1.979.352-2.474.424-1.131.2-2.877.491-4.385.767l-.983.153-.14.03s-1.534.508.47.208h-.03l.394-.068c.475-.081.7-.127.661-.114l-.648.114c.479-.085.144-.021-.034,0l.547-.093-.14.021c.254-.047.61-.114.919-.165.487-.089.034,0,.6-.1,3-.521,5.911-1.025,8.94-1.563.068,0,0,0-.1.021l2.542-.453.36-.055C417.432,425.037,422.16,424.215,422.237,424.215Z" transform="translate(-231.97 -218.531)" fill="#fff"/>
    <path id="Path_325" data-name="Path 325" d="M421.529,420.244l.055-.021c.9-.161.267-.034,1.1-.182.322-.076,1.381-.241,1.665-.3,0,0,.4-.068.377-.055.123-.034.424-.076.674-.127l-.136.021.585-.106c.233-.038.288-.042.038,0,1.538-.267,8.919-1.559,10.593-1.856-.216.03-.725.127-.924.148.424-.081.648-.11.847-.153s.962-.165,1.3-.208l.123-.03.22-.034c1.924-.347.424-.081,2.144-.381.987-.174,1.453-.271,2-.36-.081,0-.3.047-.042,0,.042,0,.678-.123.8-.14.25-.042,1.064-.186.784-.148.14,0,.847-.144.424-.064l.657-.114-.314.051c.822-.148,1.271-.216,1.809-.322l-.3.047c.491-.085.907-.161,1.1-.182l-.5.093,1.991-.36-.246.042c.847-.165,5.411-.974,6.211-1.127l-.373.055.661-.114c-.085,0-.331.085-.4.093l10.512-1.856c.551-.089.1,0,.1,0,.665-.123.284-.059.847-.161.153-.025-.034,0-.119.03.25-.042.479-.081.5-.089a1.893,1.893,0,0,1-.318.034l.733-.127h-.034c.165-.03.424-.093,1.131-.216l3.75-.657-.53.1.564-.1c-.3.042.513-.1.28-.059.89-.174,2.051-.36,2.835-.513.068-.025,1.644-.551,1.64-.568l.564-.1c-.064,0-.542.089-.8.136h-.042c-.585.11-.14.021-.712.123-.034,0,.5-.1.962-.182-.424.072-.847.144-1.008.182-.394.064.042,0-.424.064-.335.059-.78.144-1.169.208h0c-.945.157-1.441.267-2.3.424l.093-.021-1.458.254c.157-.025.3-.042-.034,0-.636.11-1.064.191-1.53.267l-.424.085-13.1,2.322h.085c-3.39.6-10.283,1.813-13.762,2.44-.542.085-1.271.22-1.843.318.309-.055.2-.03-.038,0-1.7.3-.114.025-1.847.335-1.991.36-9.618,1.7-11.389,2-.949.178-2.119.381-3.068.551h.093c-1,.178-6.661,1.165-7.822,1.377l.157-.025c-1.013.182-.877.148-1.7.284.106,0-.758.157-1.089.216h0l-2.419.453h.034c-.686.127-1.983.352-2.474.424-1.131.2-2.877.491-4.39.767l-.979.157-.144.025s-1.53.508.475.208h-.03l.394-.072c.475-.081.691-.127.661-.114l-.648.114c.475-.085.144-.021-.038,0l.551-.1-.144.021c.254-.047.61-.114.924-.165.487-.085.034,0,.6-.1,3-.521,5.906-1.025,8.94-1.563.068,0,0,0-.1.021l2.542-.453.364-.055Z" transform="translate(-231.559 -216.254)" fill="#fff"/>
    <path id="Path_327" data-name="Path 327" d="M20.414,495.015l.055-.025c.9-.157.263-.03,1.093-.182.322-.072,1.381-.242,1.669-.3,0,0,.4-.068.373-.059.123-.03.424-.076.678-.123l-.14.021.585-.11c.233-.038.288-.042.042,0,1.534-.267,8.9-1.559,10.571-1.856-.216.03-.725.123-.919.148.424-.085.644-.11.847-.153s.962-.165,1.3-.208l.123-.03.22-.034c1.924-.347.424-.081,2.144-.381.991-.174,1.458-.271,2.008-.364-.085,0-.3.047-.047,0,.047,0,.682-.127.805-.14.25-.042,1.063-.186.788-.148.14-.021.847-.144.424-.064l.657-.119-.314.055c.847-.148,1.271-.22,1.813-.322l-.309.047c.5-.085.907-.161,1.1-.182l-.5.093,1.991-.36-.242.042c.847-.165,5.411-.975,6.207-1.131l-.369.059.686-.131c-.081,0-.326.089-.4.1,1.479-.263,9.152-1.623,10.512-1.856.551-.093.1,0,.1,0,.669-.123.288-.059.847-.161a1.121,1.121,0,1,1-.119.03l.5-.089a1.889,1.889,0,0,1-.318.034l.733-.131h-.03c.161-.025.424-.089,1.127-.212l3.75-.661s-.271.055-.53.1l.564-.093c-.292.042.513-.1.28-.059.894-.174,2.051-.364,2.835-.513.068-.025,1.644-.551,1.644-.568.242-.047.487-.089.564-.1-.068,0-.547.089-.8.136H74.97c-.589.106-.14,0-.716.123-.03,0,.5-.1.962-.182-.424.072-.847.14-1,.178a4.064,4.064,0,0,1-.424.064c-.335.064-.78.148-1.165.212h0c-.945.157-1.441.263-2.3.424h.093l-1.458.254c.161-.025.3-.047-.034,0-.631.106-1.063.191-1.525.263l-.445.089-13.1,2.318h.085c-3.368.6-10.283,1.813-13.762,2.44-.538.085-1.271.22-1.843.314.314-.051.208-.025-.038,0-1.695.3-.114.025-1.843.335-1.991.356-9.622,1.7-11.393,2-.949.178-2.119.381-3.068.551l.093-.021c-1,.182-6.661,1.169-7.822,1.381l.157-.03c-1.013.186-.877.153-1.695.288.11,0-.758.153-1.089.212h0l-2.453.449H9.2c-.686.127-1.979.352-2.474.424-1.131.2-2.877.491-4.385.767l-.983.153-.123.047s-1.534.508.47.2h-.03l.394-.068c.475-.081.695-.127.661-.114l-.648.127c.475-.085.144-.021-.038,0l.551-.093-.144.021.924-.169c.487-.085.034,0,.6-.093,3-.521,5.906-1.025,8.94-1.563.068,0,0,0-.1.021l2.542-.453.364-.055C15.609,495.858,20.337,495.023,20.414,495.015Z" transform="translate(-0.39 -259.333)" fill="#fff"/>
    <path id="line" d="M19.729,491.046l.055-.025c.9-.157.267-.03,1.1-.182.322-.072,1.381-.241,1.665-.3,0,0,.4-.068.377-.059.123-.03.424-.076.674-.123h-.14l.589-.11c.229-.034.288-.042.038,0,1.538-.267,8.9-1.559,10.593-1.856-.212.03-.725.127-.919.148.424-.085.644-.11.847-.153s.962-.165,1.3-.208l.123-.03.22-.034c1.919-.347.424-.081,2.144-.381.987-.174,1.453-.271,2-.364-.081,0-.3.047-.042,0,.042,0,.678-.123.805-.14.25-.042,1.063-.186.784-.148.14-.021.847-.144.424-.064l.657-.119-.318.055c.847-.148,1.271-.22,1.813-.322l-.305.047c.491-.085.907-.161,1.1-.182l-.508.093c.822-.144,1.313-.233,2-.36l-.246.042c.847-.165,5.411-.975,6.211-1.131l-.373.059.686-.131a3.969,3.969,0,0,0-.394.1c1.474-.263,9.148-1.623,10.512-1.856.551-.093.1,0,.093,0,.669-.123.288-.059.847-.161a.945.945,0,1,1-.114.03l.5-.089a1.858,1.858,0,0,1-.314.034l.733-.127H64.9c.165-.03.424-.093,1.131-.216l3.75-.661-.53.106c.161-.03.424-.076.564-.1-.3.042.508-.1.28-.059.89-.174,2.046-.364,2.835-.513.068-.025,1.644-.551,1.64-.568.246-.047.487-.089.564-.1-.064,0-.547.089-.8.136h-.042c-.589.106-.14.021-.712.123-.034,0,.5-.1.962-.182-.424.072-.847.14-1.008.178a4.072,4.072,0,0,1-.424.064c-.339.064-.78.148-1.169.212h0c-.945.157-1.445.267-2.3.424l.089-.021-1.453.254c.157-.025.292-.047-.034,0-.636.106-1.063.191-1.53.263l-.424.089L53.18,484.746h.089c-3.39.6-10.283,1.813-13.762,2.441-.542.085-1.271.22-1.847.313.314-.051.208-.025-.034,0-1.695.3-.114.025-1.847.335-1.991.356-9.622,1.7-11.389,2-.949.178-2.119.381-3.068.551h.093c-1,.178-6.661,1.165-7.826,1.377l.157-.03c-1.013.186-.873.153-1.695.288.106,0-.758.153-1.093.212h0l-2.453.449h.034c-.686.127-1.983.352-2.474.424-1.131.2-2.877.492-4.39.767l-.97.2-.144.03s-1.53.508.475.2h-.03l.394-.068c.475-.081.691-.127.661-.114l-.648.114c.475-.085.144,0-.038,0l.551-.093H1.781c.254-.047.61-.114.924-.165.487-.089.034,0,.6-.1,3-.521,5.906-1.025,8.936-1.563.072,0,0,0-.1.021l2.542-.453.364-.055C14.924,491.889,19.653,491.055,19.729,491.046Z" transform="translate(-0.002 -257.033)" fill="#fff"/>
    <path id="start" d="M573.116,409.542a.424.424,0,0,1-.424-.3c-1-3.182-2.059-3.97-5.178-3.813a.424.424,0,0,1-.14-.826c2.966-.975,3.673-2.089,3.487-5.415a.431.431,0,1,1,.847-.153c1,3.178,2.072,3.966,5.182,3.813a.424.424,0,0,1,.14.826c-2.966.974-3.674,2.089-3.487,5.419a.424.424,0,0,1-.343.424Zm-3.682-4.9a4.084,4.084,0,0,1,3.3,2.385,4.106,4.106,0,0,1,2.237-3.39,4.093,4.093,0,0,1-3.3-2.381,4.084,4.084,0,0,1-2.237,3.383Z" transform="translate(-320.15 -210.917)" fill="#ff0"/>
    <path id="_2023.02.09_DL" data-name="2023.02.09_DL" d="M8.168,19.743q.34,1.93-.351,3.528-.7,1.631-2.036,1.867-1.443.255-2.644-1.033-1.144-1.233-1.489-3.188-.387-2.193.433-3.545Q2.8,16.2,4.2,15.954q1.356-.238,2.416.663Q7.794,17.622,8.168,19.743Zm-2.14,1.711q-.286-1.623-1.155-1.47-.852.15-.556,1.826.113.644.428,1.108.347.513.724.446t.523-.69Q6.139,22.085,6.027,21.453Zm8.6-3.793q.218,1.239-.29,3.156-.448,1.686-1.217,3.106l-1.835.044q.175-.461.306-.867.327-.984.4-1.546-.987.186-1.892-.377-1.173-.731-1.478-2.458-.259-1.466.471-2.643t2.031-1.405q1.249-.22,2.242.63T14.625,17.66ZM12.4,18.727q-.062-.353-.326-.546t-.587-.135q-.295.052-.453.307-.178.276-.106.682.184,1.043,1.381.9.065-.137.1-.478Q12.456,19.046,12.4,18.727Zm6.491,3.009q.081.457-.249.832t-.849.467q-.543.1-.972-.144-.448-.243-.53-.706t.24-.834q.323-.365.883-.464.525-.093.96.141T18.89,21.736Zm6.657-5.06q.34,1.925-.348,3.52-.7,1.627-2.026,1.861-1.436.254-2.632-1.032Q19.4,19.8,19.058,17.845q-.386-2.187.43-3.536.71-1.169,2.106-1.414,1.349-.237,2.405.662Q25.174,14.56,25.548,16.676Zm-2.13,1.706q-.286-1.619-1.15-1.467-.848.15-.553,1.821.113.642.427,1.106.346.511.721.445t.521-.689Q23.529,19.012,23.418,18.382ZM30.8,13.9q.32,1.814-1.725,5.292l.979-.173q.224-.04.723-.175.193-.052.517-.163-.036.268-.1.893-.027.321-.07.918l-3.713.657-.363-.544q.6-1.667.784-2.493.247-1.093.106-1.89-.1-.566-.5-.806-.332-.2-.723-.129t-.711.31l-.278-3.158q.809-.464,1.788-.636,1.284-.226,2.181.352T30.8,13.9Zm4.37,4.958q.08.456-.248.83t-.846.465q-.54.1-.968-.144-.446-.243-.528-.7t.239-.832q.321-.364.879-.462.523-.092.956.141T35.165,18.856Zm4.807-6.575q.319,1.812-1.72,5.285l.976-.173q.224-.04.721-.175.192-.052.516-.163-.036.268-.1.892-.026.32-.069.917l-3.7.656-.362-.543q.6-1.665.781-2.49.246-1.091.105-1.888-.1-.566-.5-.805-.331-.2-.722-.129t-.71.31l-.278-3.154q.807-.463,1.784-.635,1.281-.225,2.176.352T39.972,12.281Zm7.337.556q.339,1.92-.344,3.509-.695,1.621-2.013,1.855-1.428.253-2.618-1.03Q41.2,15.943,40.858,14q-.385-2.181.426-3.525.705-1.165,2.093-1.409,1.341-.236,2.392.661Q46.937,10.727,47.31,12.837Zm-2.117,1.7q-.285-1.615-1.145-1.463-.843.149-.549,1.816.113.64.425,1.1.344.51.717.444t.517-.686Q45.3,15.165,45.193,14.536Zm7.333-4.467q.319,1.809-1.713,5.275l.973-.172q.223-.039.718-.175.191-.052.514-.162-.035.268-.1.89-.026.32-.069.915l-3.692.654-.361-.542q.593-1.662.778-2.485.245-1.089.1-1.885-.1-.565-.5-.8-.33-.2-.719-.129t-.707.309L47.482,8.61q.8-.462,1.778-.633,1.276-.224,2.169.352T52.526,10.069ZM58.32,8.888q.2,1.117-.089,1.832-.269.677-1.145,1.389,1.262.311,1.479,1.538.175.99-.454,1.666-.565.6-1.588.786-.983.174-1.207.142l-.346-.824q-.129-.3-.36-.8.655.1,1.112.023.4-.071.616-.352t.152-.644q-.061-.346-.354-.537-.326-.21-.8-.126-.114.02-.232.053l-.428-1.124q.487-.145.669-.516.134-.279.081-.578-.137-.777-1.006-.624-.5.088-1.136.414L53,7.664q.939-.527,2.06-.719,1.219-.2,2.148.335T58.32,8.888Zm7.715,7.4-5.842,1.036-.235-1.335L65.8,14.954Zm7.025-7.7q.366,2.074-.7,3.489-1.1,1.468-3.489,1.892-1.538.272-2.4.266l-.907-4.246Q65.2,8.352,64.493,5.494q1.206-.4,2.551-.632,2.4-.422,3.952.466Q72.653,6.28,73.06,8.584ZM70.851,9.7q-.149-.845-.761-1.152-.509-.254-1.2-.1l.556,3.618q.721-.175,1.106-.688Q71.034,10.743,70.851,9.7Zm9.116.344q-.016.24-.057.9-.014.387.018.9l-5.143.911q-.266-1.345-.926-4.421Q73.5,6.764,72.818,4.006l3.946-.694.966,7.373q.551-.1,1.632-.413Q79.586,10.208,79.967,10.046Z" transform="translate(80.032 201.845)" fill="#fff"/>
  </g>
</svg>
