<svg id="ring" xmlns="http://www.w3.org/2000/svg" width="196.492" height="147.142" viewBox="0 0 196.492 147.142">
  <path id="Path_747" data-name="Path 747" d="M186.448,96.521l-4.324-16.566,12.906-3.369-6.078,19.281Z" transform="translate(-123.994 -52.142)" fill="#e3c3e9"/>
  <path id="Path_748" data-name="Path 748" d="M157.109,104.179l-4.324-16.566-12.906,3.369,14.629,13.876Z" transform="translate(-95.233 -59.649)" fill="#e3c3e9"/>
  <path id="Path_749" data-name="Path 749" d="M110.833,100.55l8.764-2.288,14.584,14.094A32.876,32.876,0,0,0,127,116.39Z" transform="translate(-75.457 -66.899)" fill="#be71cb"/>
  <path id="Path_750" data-name="Path 750" d="M220.325,68.871l-8.808,2.3-6.1,19.4a35.036,35.036,0,0,1,8.463-.06Z" transform="translate(-139.85 -46.889)" fill="#be71cb"/>
  <circle id="Ellipse_63" data-name="Ellipse 63" cx="38.017" cy="38.017" r="38.017" transform="translate(21.497 65.406) rotate(-25.95)" fill="none" stroke="#be71cb" stroke-width="20"/>
  <circle id="Ellipse_64" data-name="Ellipse 64" cx="38.017" cy="38.017" r="38.017" transform="translate(75.305 65.268) rotate(-25.95)" fill="none" stroke="#be71cb" stroke-width="20"/>
  <path id="Path_751" data-name="Path 751" d="M114.807,49.093l-4.84,11.646,45.182-11.793-10.125-7.74Z" transform="translate(-74.868 -28.053)" fill="#be71cb"/>
  <path id="Path_752" data-name="Path 752" d="M125.134,65.926l2.537,9.721,14.8-3.864Z" transform="translate(-85.194 -44.884)" fill="#e3c3e9"/>
  <path id="Path_753" data-name="Path 753" d="M193,41.207l2.537,9.721L180.428,54.87Z" transform="translate(-122.839 -28.055)" fill="#e3c3e9"/>
  <path id="Path_754" data-name="Path 754" d="M544.5,139.6c-4.224-2.3-8.585-6.808-9.347-9.916a6.117,6.117,0,0,1,.731-4.537A4.342,4.342,0,0,1,543.8,126.2a5.038,5.038,0,0,1,9.412.273c.911,2.569-.36,5.428-2.1,7.526a25.572,25.572,0,0,1-6.6,5.6" transform="translate(-364.239 -83.741)" fill="#be71cb"/>
  <path id="Path_755" data-name="Path 755" d="M9.5,139.6c-4.224-2.3-8.585-6.808-9.347-9.916a6.118,6.118,0,0,1,.731-4.537,4.427,4.427,0,0,1,4.309-2.113A4.446,4.446,0,0,1,8.8,126.2a5.037,5.037,0,0,1,9.412.273c.911,2.569-.36,5.428-2.1,7.526a25.571,25.571,0,0,1-6.6,5.6" transform="translate(0 -83.741)" fill="#be71cb"/>
  <path id="Path_756" data-name="Path 756" d="M587.441,78.064c-1.526-.841-3.112-2.486-3.386-3.622a2.255,2.255,0,0,1,.265-1.657,1.577,1.577,0,0,1,.666-.624,1.554,1.554,0,0,1,1.722.232,1.594,1.594,0,0,1,.481.779,1.843,1.843,0,0,1,.695-.836,1.808,1.808,0,0,1,2.061.058,1.85,1.85,0,0,1,.648.874,2.974,2.974,0,0,1-.763,2.749,9.3,9.3,0,0,1-2.392,2.044" transform="translate(-397.599 -49.019)" fill="#f5f5f5"/>
  <path id="Path_757" data-name="Path 757" d="M52.441,78.064c-1.526-.841-3.112-2.486-3.386-3.622a2.254,2.254,0,0,1,.265-1.657,1.577,1.577,0,0,1,.666-.624,1.554,1.554,0,0,1,1.722.232,1.592,1.592,0,0,1,.481.779,1.845,1.845,0,0,1,.695-.836,1.808,1.808,0,0,1,2.061.058,1.848,1.848,0,0,1,.647.874,2.974,2.974,0,0,1-.763,2.749,9.288,9.288,0,0,1-2.392,2.044" transform="translate(-33.36 -49.019)" fill="#f5f5f5"/>
  <path id="Path_758" data-name="Path 758" d="M539.027,56.016c-1.791-.973-3.645-2.873-3.964-4.191a2.579,2.579,0,0,1,.319-1.915,1.838,1.838,0,0,1,3.361.447,2.138,2.138,0,0,1,3.987.115,3.452,3.452,0,0,1-.891,3.192,10.851,10.851,0,0,1-2.8,2.365" transform="translate(-364.239 -33.36)" fill="#ebebeb"/>
  <path id="Path_759" data-name="Path 759" d="M4.027,56.016C2.236,55.042.382,53.143.063,51.825A2.579,2.579,0,0,1,.382,49.91a1.838,1.838,0,0,1,3.361.447,2.138,2.138,0,0,1,3.987.115,3.452,3.452,0,0,1-.891,3.192,10.853,10.853,0,0,1-2.8,2.365" transform="translate(0 -33.36)" fill="#ebebeb"/>
  <path id="Path_760" data-name="Path 760" d="M595.027,209.016c-1.791-.974-3.645-2.873-3.964-4.191a2.579,2.579,0,0,1,.319-1.915,1.838,1.838,0,0,1,3.361.447,2.138,2.138,0,0,1,3.987.115,3.452,3.452,0,0,1-.89,3.192,10.852,10.852,0,0,1-2.8,2.365" transform="translate(-402.365 -137.526)" fill="#ebebeb"/>
  <path id="Path_761" data-name="Path 761" d="M60.027,209.016c-1.791-.974-3.645-2.873-3.964-4.191a2.579,2.579,0,0,1,.319-1.915,1.838,1.838,0,0,1,3.361.447,2.138,2.138,0,0,1,3.987.115,3.452,3.452,0,0,1-.891,3.192,10.853,10.853,0,0,1-2.8,2.365" transform="translate(-38.126 -137.526)" fill="#ebebeb"/>
  <path id="Path_762" data-name="Path 762" d="M589.027,7.016c-1.791-.973-3.645-2.873-3.964-4.191A2.579,2.579,0,0,1,585.382.91a1.838,1.838,0,0,1,3.361.447,2.138,2.138,0,0,1,3.987.115,3.452,3.452,0,0,1-.891,3.192,10.851,10.851,0,0,1-2.8,2.365" transform="translate(-398.28)" fill="#ebebeb"/>
  <path id="Path_763" data-name="Path 763" d="M54.027,7.016c-1.791-.973-3.645-2.873-3.964-4.191A2.579,2.579,0,0,1,50.382.91a1.838,1.838,0,0,1,3.361.447,2.139,2.139,0,0,1,3.987.115,3.452,3.452,0,0,1-.891,3.192,10.853,10.853,0,0,1-2.8,2.365" transform="translate(-34.041)" fill="#ebebeb"/>
  <path id="Path_764" data-name="Path 764" d="M555.027,245.016c-1.791-.973-3.645-2.873-3.964-4.191a2.579,2.579,0,0,1,.319-1.915,1.838,1.838,0,0,1,3.361.447,2.138,2.138,0,0,1,3.987.115,3.452,3.452,0,0,1-.891,3.192,10.85,10.85,0,0,1-2.8,2.365" transform="translate(-375.132 -162.035)" fill="#be71cb"/>
  <path id="Path_765" data-name="Path 765" d="M20.027,245.016c-1.791-.973-3.645-2.873-3.964-4.191a2.579,2.579,0,0,1,.319-1.915,1.838,1.838,0,0,1,3.361.447,2.138,2.138,0,0,1,3.987.115,3.452,3.452,0,0,1-.891,3.192,10.852,10.852,0,0,1-2.8,2.365" transform="translate(-10.893 -162.035)" fill="#be71cb"/>
</svg>
