<svg xmlns="http://www.w3.org/2000/svg" width="153.346" height="33.955" viewBox="0 0 153.346 33.955">
  <g id="start1" transform="translate(-197.838 0)">
    <path id="Path_377" data-name="Path 377" d="M475.629,59.647c.076-5,1.411-6.779,5.932-7.906-4.661-.123-6.355-1.555-7.529-6.411-.076,5-1.411,6.779-5.932,7.9C472.778,53.359,474.468,54.791,475.629,59.647Z" transform="translate(-269.766 -26.124)" fill="#fff"/>
    <path id="Path_378" data-name="Path 378" d="M474.955,59.462a.424.424,0,0,1-.424-.322c-1.119-4.661-2.648-5.974-7.131-6.093a.426.426,0,1,1-.089-.847c4.347-1.093,5.555-2.7,5.627-7.5a.423.423,0,0,1,.835-.1c1.119,4.661,2.648,5.97,7.127,6.084a.424.424,0,0,1,.106.835c-4.347,1.114-5.572,2.737-5.627,7.529a.424.424,0,0,1-.377.424Zm-5.377-7.076c2.652.424,4.118,1.669,5.118,4.309a5.967,5.967,0,0,1,4.055-5.334,5.925,5.925,0,0,1-5.118-4.3A5.938,5.938,0,0,1,469.578,52.386Z" transform="translate(-269.092 -25.515)" fill="#ff0"/>
    <path id="Path_314" data-name="Path 314" d="M522.379,23.414l.11-.034c1.746-.309.508-.072,2.119-.36.627-.136,2.686-.47,3.241-.585,0,0,.78-.136.729-.119.242-.055.813-.144,1.313-.237.182-.034-.131,0-.267.042l1.14-.208c.449-.076.559-.089.076,0,2.987-.521,17.338-3.038,20.554-3.614-.424.064-1.407.246-1.788.3.847-.157,1.271-.216,1.627-.292s1.873-.326,2.542-.424l.242-.055.424-.068c3.741-.674.847-.157,4.173-.741,1.919-.339,2.83-.517,3.9-.7-.161.025-.585.093-.089,0,.089,0,1.322-.242,1.568-.275.487-.085,2.068-.364,1.53-.284.267-.038,1.695-.284.847-.131l1.271-.225-.61.1c1.6-.284,2.479-.424,3.521-.623l-.593.1c.958-.169,1.763-.314,2.14-.364l-.983.178c1.593-.28,2.542-.449,3.877-.695l-.475.085c1.695-.314,10.521-1.885,12.076-2.178l-.72.114,1.339-.246c-.157.025-.64.153-.771.169,2.868-.5,17.8-3.144,20.439-3.606,1.068-.182.195,0,.182,0,1.3-.233.559-.114,1.665-.305.3-.051-.059,0-.229.051.483-.089.932-.161.97-.174a4.238,4.238,0,0,1-.61.076l1.419-.25-.059.021c.318-.055.8-.165,2.2-.424l7.288-1.271c-.034,0-.53.1-1.03.195.318-.055.8-.144,1.1-.191-.576.089.991-.182.542-.106,1.733-.33,3.983-.708,5.508-.991.127-.047,3.216-.932,3.212-.958l1.1-.191-1.555.267-.085.03c-1.144.208-.271.038-1.385.237-.064,0,.966-.182,1.869-.343-.814.14-1.627.275-1.958.347-.767.131.085-.03-.847.131-.657.119-1.517.28-2.275.424h0c-1.835.314-2.8.513-4.483.8l.182-.038c-.593.1-1.758.314-2.83.5.3-.051.572-.089-.068.025-1.233.208-2.068.364-2.966.513l-.847.165c-4.279.75-21.185,3.746-25.477,4.508l.165-.034c-6.525,1.148-19.994,3.525-26.761,4.724l-3.584.623c.61-.1.424-.059-.072.025-3.33.585-.225.047-3.589.644-3.873.691-18.7,3.3-22.151,3.894-1.843.343-4.152.737-5.961,1.068l.182-.038c-1.945.347-12.953,2.275-15.215,2.682l.305-.055c-1.966.36-1.695.3-3.258.564.208,0-1.479.288-2.118.4h.025l-4.771.847h.059c-1.335.246-3.851.686-4.813.847-2.2.381-5.593.966-8.529,1.5l-1.9.309-.28.051s-3,.847.894.246h-.059l.767-.136c.924-.161,1.347-.246,1.271-.225l-1.271.22c.928-.161.284-.042-.072.025l1.072-.182c.182-.034-.136,0-.28.042.5-.089,1.191-.22,1.8-.322.949-.169.064,0,1.169-.191,5.83-1.021,11.482-2.008,17.372-3.051.136,0,0,0-.195.042,1.775-.318,3.356-.593,4.97-.886l.708-.11C513.036,25.063,522.23,23.444,522.379,23.414Z" transform="translate(-278.95 -2.259)" fill="#fff"/>
    <path id="Path_317" data-name="Path 317" d="M521.676,19.49l.11-.034c1.75-.309.513-.072,2.119-.36.631-.136,2.686-.47,3.245-.585,0,0,.775-.131.729-.119.242-.055.814-.144,1.313-.237.178-.034-.136,0-.271.042l1.144-.208c.445-.076.559-.085.072,0,2.991-.521,17.338-3.038,20.558-3.614-.424.064-1.407.246-1.788.3.847-.157,1.271-.216,1.627-.292s1.873-.326,2.521-.424l.241-.055.424-.068c3.741-.674.847-.157,4.173-.741,1.919-.339,2.83-.517,3.9-.7-.157.03-.585.093-.085,0,.085,0,1.322-.242,1.563-.275.487-.085,2.068-.364,1.53-.284.271-.038,1.695-.284.847-.131l1.271-.225-.61.1c1.606-.284,2.483-.424,3.525-.623l-.593.1c.958-.169,1.758-.314,2.119-.364l-.983.178c1.589-.28,2.542-.449,3.873-.695l-.475.085c1.695-.314,10.525-1.885,12.08-2.178l-.72.114,1.335-.246c-.157.025-.636.153-.771.174,2.868-.508,17.8-3.148,20.439-3.61,1.072-.182.195,0,.186,0,1.3-.233.559-.114,1.665-.305.3-.051-.064,0-.233.051.487-.089.936-.161.97-.174a4.235,4.235,0,0,1-.61.076l1.424-.25h-.064c.318-.055.8-.165,2.2-.424,2.36-.424,4.919-.869,7.292-1.271-.034,0-.534.1-1.03.195.318-.055.8-.144,1.093-.191-.572.093,1-.182.547-.106,1.733-.33,3.983-.708,5.508-.991.131-.042,3.22-.932,3.216-.958L629.432,0c-.127,0-1.063.178-1.559.271L627.788.3c-1.14.208-.267.038-1.386.237-.059,0,.966-.182,1.873-.343-.813.14-1.627.275-1.957.347-.767.131.081-.03-.847.131-.652.119-1.517.28-2.271.424h0c-1.835.314-2.8.513-4.483.8l.178-.034c-.593.1-1.758.309-2.826.491.305-.051.572-.089-.072.025-1.229.208-2.068.364-2.966.513l-.847.165C607.9,3.8,591,6.8,586.7,7.559l.169-.034c-6.55,1.161-19.994,3.529-26.761,4.737-1.051.178-2.491.424-3.584.623.606-.1.4-.059-.076.025-3.326.585-.22.047-3.585.644-3.877.695-18.711,3.3-22.151,3.894-1.847.343-4.156.737-5.966,1.068l.182-.038c-1.94.352-12.953,2.275-15.211,2.682l.305-.055c-1.97.36-1.695.3-3.258.564.208,0-1.479.288-2.119.4h.021c-.97.174-3.165.58-4.771.847l.064-.021c-1.339.246-3.852.686-4.813.847-2.2.386-5.593.966-8.529,1.5l-1.907.309-.275.051s-3,.847.894.246h-.064l.771-.136c.919-.161,1.343-.246,1.271-.225l-1.271.22c.924-.161.28-.042-.072.025l1.072-.182c.178-.034-.136,0-.28.042.5-.089,1.186-.22,1.792-.322.949-.169.064,0,1.169-.191,5.834-1.021,11.487-2.008,17.372-3.046.136,0-.025,0-.195.038l4.97-.881.708-.114C512.333,21.134,521.532,19.511,521.676,19.49Z" transform="translate(-278.545 0)" fill="#fff"/>
  </g>
</svg>
