<svg xmlns="http://www.w3.org/2000/svg" width="270.36" height="74.152" viewBox="0 0 270.36 74.152">
  <g id="thiepmoi" transform="translate(-81.492 -136.504)">
    <path id="Path_380" data-name="Path 380" d="M-104.508,6.768a39.44,39.44,0,0,1-10.008-1.26,28.716,28.716,0,0,1-8.64-3.78,19.4,19.4,0,0,1-6.084-6.336,17.289,17.289,0,0,1-2.268-9,27,27,0,0,1,1.368-8.136,12.058,12.058,0,0,1,2.268-4.176,12.364,12.364,0,0,1,3.06-2.664,5.463,5.463,0,0,1,2.52-.936q1.224,0,1.008,1.152a7.225,7.225,0,0,1-1.476,1.188,18.233,18.233,0,0,0-2.232,1.764,12.793,12.793,0,0,0-2.232,2.772A11.825,11.825,0,0,0-128.7-18.36q-.144.936-.252,1.872a15.71,15.71,0,0,0-.108,1.8,16.657,16.657,0,0,0,2.016,8.28,18.375,18.375,0,0,0,5.292,5.976,24.035,24.035,0,0,0,7.2,3.564,24.971,24.971,0,0,0,7.74,1.116,36.412,36.412,0,0,0,10.368-1.62A30.721,30.721,0,0,0-88.38-1.3a35.717,35.717,0,0,0,6.192-5.4,42.98,42.98,0,0,0,4.464-5.976q2.232-3.528,4.356-7.6t4.032-8.1Q-67.428-32.4-65.772-36t2.88-6.156a20.973,20.973,0,0,1,2.016-3.564,101.6,101.6,0,0,0-10.908-2.7,82.857,82.857,0,0,0-11.124-1.26,24.437,24.437,0,0,0-9.612,1.224,21.9,21.9,0,0,0-7.128,4.068,18.914,18.914,0,0,0-4.464,5.58,12.784,12.784,0,0,0-1.548,5.832,7.725,7.725,0,0,0,1.26,4.356,7.115,7.115,0,0,0,3.852,2.772,12.051,12.051,0,0,0,3.384.5,9.189,9.189,0,0,0,4.536-1.08,11.878,11.878,0,0,0,3.276-2.628A14.069,14.069,0,0,0-87.336-32a5.5,5.5,0,0,0,.684-2.052v-.072a.983.983,0,0,1,.72-.432q.72,0,.72,1.008a10.407,10.407,0,0,1-2.2,5.4,12.344,12.344,0,0,1-4.428,3.528A12.66,12.66,0,0,1-97.308-23.4a11.8,11.8,0,0,1-3.888-.648,11.39,11.39,0,0,1-5.976-4.644,12.8,12.8,0,0,1-2.016-6.948,15.618,15.618,0,0,1,1.368-6.3,17.481,17.481,0,0,1,4.176-5.76,20.95,20.95,0,0,1,6.984-4.212A27.559,27.559,0,0,1-86.868-53.5h1.512q.576,0,1.944.144a46.123,46.123,0,0,1,6.84,1.116q3.456.828,6.624,1.836t5.832,1.944q2.664.936,4.392,1.368a6.679,6.679,0,0,1,1.26-1.008q1.044-.72,2.16-1.512a21.2,21.2,0,0,0,1.764-1.368q.648-.576.072-.576h-.072a1.873,1.873,0,0,1,.576-.072,1.277,1.277,0,0,1,1.08.468,1.575,1.575,0,0,1,.36.972q0,.936-.864.936a2.357,2.357,0,0,1-.576-.144q-.288-.288-1.044.288a15.035,15.035,0,0,0-1.512,1.332q-.756.756-1.188,1.26,1.584.5,4,1.188t5.184,1.368q2.772.684,5.436,1.116a30.033,30.033,0,0,0,4.752.432,8.366,8.366,0,0,0,3.2-.5,1.712,1.712,0,0,0,1.188-1.656,1.531,1.531,0,0,1,.18-.756.712.712,0,0,1,.684-.324q.36,0,.5.612a4.5,4.5,0,0,1,.144.972,3.2,3.2,0,0,1-1.836,2.808,8.891,8.891,0,0,1-4.572,1.08q-.432,0-.864-.036t-.936-.108a63.133,63.133,0,0,1-12.564-2.592Q-57.708-44.5-58.86-45a61.361,61.361,0,0,0-5.328,10.656q-2.088,5.472-3.924,10.944A97.342,97.342,0,0,1-72.36-12.816a41.73,41.73,0,0,1-6.372,9.648A25.422,25.422,0,0,1-85.752,2.3a35.788,35.788,0,0,1-8.964,3.348A43.3,43.3,0,0,1-104.508,6.768ZM-66.42.576q3.024-6.192,6.3-13t6.732-13.716q3.456-6.912,6.84-13.176A22.119,22.119,0,0,1-44.28-42.7a3.462,3.462,0,0,1,2.772-1.224A6.346,6.346,0,0,1-40-43.7a3.9,3.9,0,0,0,1.656.072A27.536,27.536,0,0,0-40.9-40.1q-1.62,2.52-3.6,6.048t-4.176,7.6q-2.2,4.068-4.32,8.208t-3.924,7.74q1.44-1.872,2.952-3.528a32.815,32.815,0,0,1,2.952-2.88,32.5,32.5,0,0,1,4-3.024,40.957,40.957,0,0,1,4.824-2.736,9.662,9.662,0,0,1,3.852-1.152,2.526,2.526,0,0,1,.72.072l-.792,1.44q-.792,1.44-1.98,3.672t-2.448,4.824q-1.26,2.592-2.2,4.932A21.984,21.984,0,0,0-46.26-5.04,10.854,10.854,0,0,0-46.476-3.1a2.093,2.093,0,0,0,.432,1.548,1.362,1.362,0,0,0,.936.4,3.95,3.95,0,0,0,2.664-1.512,22.991,22.991,0,0,0,2.808-3.708q1.368-2.2,2.484-4.284t1.692-3.24q.432-.792.864-.792t.432.576a2.759,2.759,0,0,1-.216.864q-.936,1.872-2.124,4.212a37.788,37.788,0,0,1-2.664,4.464,15.711,15.711,0,0,1-3.24,3.492A6.056,6.056,0,0,1-46.188.288,5.324,5.324,0,0,1-49.14-.72q-1.512-1.008-1.512-3.672a10.737,10.737,0,0,1,.144-1.692A14.861,14.861,0,0,1-50-8.136a15.676,15.676,0,0,1,1.44-3.2q1.008-1.764,2.592-4.428a4.232,4.232,0,0,0,.72-1.944.764.764,0,0,0-.864-.864,4.232,4.232,0,0,0-1.944.72,18.24,18.24,0,0,0-3.1,2.52A55.268,55.268,0,0,0-55.62-10.3a54.142,54.142,0,0,0-5.688,9.288q-.5.936-1.116.972t-1.62.108q-.648.072-1.3.108A1.792,1.792,0,0,0-66.42.576Zm42.768-29.808a2.27,2.27,0,0,1-1.764-.756,2.639,2.639,0,0,1-.684-1.836A3.148,3.148,0,0,1-25.02-34.2a3.412,3.412,0,0,1,2.376-1.008,2.532,2.532,0,0,1,1.872.72,2.357,2.357,0,0,1,.72,1.728,3.376,3.376,0,0,1-1.08,2.448A3.454,3.454,0,0,1-23.652-29.232ZM-29.484,0a4.245,4.245,0,0,1-3.744-1.548,6.075,6.075,0,0,1-1.08-3.564,9.949,9.949,0,0,1,.252-2.2,14.8,14.8,0,0,1,.612-2.052l4.824-12.312A2.934,2.934,0,0,0-28.4-22.68a2.218,2.218,0,0,0-.36-1.26l-.5-.756,3.96-.144a2.5,2.5,0,0,1,1.548.252.92.92,0,0,1,.468.756,4.975,4.975,0,0,1-.5,1.584l-5.976,14.04-.4.9a9.812,9.812,0,0,0-.468,1.188q-.216,1.08-.288,1.368a2.165,2.165,0,0,0-.072.36v.576a2.633,2.633,0,0,0,.468,1.584,1.866,1.866,0,0,0,1.62.648,4.04,4.04,0,0,0,1.656-.432,4.814,4.814,0,0,0,1.368-.864A25.475,25.475,0,0,0-22.32-7.812q1.764-3.06,3.276-6.084.288-.72.72-.72.36,0,.36.5a2.759,2.759,0,0,1-.216.864q-.72,1.512-1.8,3.744a36.245,36.245,0,0,1-2.556,4.428,17.1,17.1,0,0,1-3.2,3.636A5.735,5.735,0,0,1-29.484,0Zm19.3.288A7.389,7.389,0,0,1-14.976-1.44,6.376,6.376,0,0,1-17.1-6.7a17.753,17.753,0,0,1,1.584-6.948,24.438,24.438,0,0,1,4.032-6.516A19.518,19.518,0,0,1-6.8-24.192a9.462,9.462,0,0,1,4.9-1.584,4.431,4.431,0,0,1,2.736.864,3.155,3.155,0,0,1,1.224,2.664,7.55,7.55,0,0,1-1.368,3.96A15.329,15.329,0,0,1-3.2-14.256,14.265,14.265,0,0,1-5.94-12.744a26.123,26.123,0,0,1-3.312,1.188,10.481,10.481,0,0,1-2.736.468,14.4,14.4,0,0,0-.684,2.3A13.407,13.407,0,0,0-13-5.832a7.145,7.145,0,0,0,.72,3.24,2.7,2.7,0,0,0,2.664,1.44A7.336,7.336,0,0,0-5.292-2.52,15.055,15.055,0,0,0-1.836-5.94,28.414,28.414,0,0,0,.72-10.08q1.044-2.088,1.692-3.528.432-1.008,1.152-1.008a.318.318,0,0,1,.36.36,1.7,1.7,0,0,1-.216.72Q2.7-11.376,1.548-8.964A27.116,27.116,0,0,1-1.188-4.428a12.807,12.807,0,0,1-3.78,3.42A10.087,10.087,0,0,1-10.188.288Zm-1.3-12.672A13.1,13.1,0,0,0-8.1-13.14a12.408,12.408,0,0,0,4.32-2.412A12.345,12.345,0,0,0-.9-19.188,7.729,7.729,0,0,0,.108-22.536q0-1.584-1.152-1.584A4.531,4.531,0,0,0-3.42-22.968,24.607,24.607,0,0,0-7.164-19.08a36.748,36.748,0,0,0-2.592,3.744Q-10.98-13.32-11.484-12.384Zm.144,22.968A2.27,2.27,0,0,1-13.1,9.828a2.639,2.639,0,0,1-.684-1.836,3.148,3.148,0,0,1,1.08-2.376,3.412,3.412,0,0,1,2.376-1.008,2.532,2.532,0,0,1,1.872.72,2.357,2.357,0,0,1,.72,1.728A3.376,3.376,0,0,1-8.82,9.5,3.454,3.454,0,0,1-11.34,10.584Zm2.88-41.112,10.8-7.7.684-.072a12.726,12.726,0,0,1,1.332-.072q.72,0,.72.144l2.592,7.7q0,.072.036.072t.036.072q0,.288-.5.288a1.121,1.121,0,0,1-1.008-.432L2.844-34.776q-.792.432-2.2,1.08T-2.3-32.4q-1.548.648-2.736,1.152a15.483,15.483,0,0,0-1.548.72,1.583,1.583,0,0,1-.648.288,3.663,3.663,0,0,1-.72.072,1.071,1.071,0,0,1-.54-.108Q-8.676-30.384-8.46-30.528Zm3.816,50.184A6.525,6.525,0,0,1-6.408,19.4,4.305,4.305,0,0,0-8.244,19.3a16.966,16.966,0,0,0,1.656-2.484q1.224-2.052,2.844-5.076t3.42-6.552q1.8-3.528,3.384-6.948t2.7-6.264a24.96,24.96,0,0,0,1.4-4.5A2.2,2.2,0,0,1,5.9-11.484q-.612.108-.324-.4.144-.288.612-1.4t.828-1.908a21.408,21.408,0,0,0,.972-3.168,14.827,14.827,0,0,0,.4-3.312A6.062,6.062,0,0,0,8.172-23.4a.963.963,0,0,0-.792-.792l.792-.144q.792-.144,1.656-.288a8.836,8.836,0,0,1,1.152-.144q.432-.072.792-.108t.648-.036a.932.932,0,0,1,.9.468,4.677,4.677,0,0,1,.252,1.908,22.05,22.05,0,0,1-.612,4.572,35.191,35.191,0,0,1-1.4,4.86q.792-1.3,2.052-3.312a45.08,45.08,0,0,1,2.916-4.1,20.725,20.725,0,0,1,3.456-3.492,5.769,5.769,0,0,1,3.528-1.4,4.047,4.047,0,0,1,.936.144,4.238,4.238,0,0,1,2.844,1.98,7.024,7.024,0,0,1,.828,3.492,15.727,15.727,0,0,1-.828,4.752,28.466,28.466,0,0,1-2.2,5.076,29.44,29.44,0,0,1-3.024,4.5A15.585,15.585,0,0,1,17.244-1.44,12.012,12.012,0,0,1,11.484.072,9.563,9.563,0,0,1,6.516-1.3L-.324,15.912a8.863,8.863,0,0,1-1.944,2.952A3.551,3.551,0,0,1-4.644,19.656ZM9.18-1.44a7.912,7.912,0,0,0,4.536-1.872A26.805,26.805,0,0,0,18.576-8.1,38.475,38.475,0,0,0,22.5-13.968a20.166,20.166,0,0,0,1.584-3.708,10.465,10.465,0,0,0,.5-2.916q0-2.808-2.016-2.808a4.693,4.693,0,0,0-2.412,1.008,15.745,15.745,0,0,0-3.42,3.672,80.222,80.222,0,0,0-4.572,7.236Q9.684-7.128,7.092-2.3A2.845,2.845,0,0,0,9.18-1.44Zm40.9,1.8Q52.74-4.752,55.116-9.9t4.824-9.756a19.858,19.858,0,0,1,2.412-3.636,3.417,3.417,0,0,1,2.628-1.044,4.58,4.58,0,0,1,1.224.18,4.823,4.823,0,0,0,1.3.18,2.184,2.184,0,0,0,.648-.072A10,10,0,0,0,65.556-21.2q-1.584,2.268-3.24,5.22T59.364-10.44q1.368-1.656,2.844-3.312a31.622,31.622,0,0,1,3.276-3.168q1.584-1.368,3.348-2.988a28.884,28.884,0,0,1,3.492-2.772,5.7,5.7,0,0,1,3.024-1.152A1.788,1.788,0,0,1,76-23.76a1.945,1.945,0,0,1,1.368,1.872,3.8,3.8,0,0,1-.36,1.3,35.125,35.125,0,0,1-2.412,5q-1.476,2.556-2.772,5.148,1.08-1.3,2.7-3.168A32.954,32.954,0,0,1,77.8-16.92a31.363,31.363,0,0,1,4.032-3.024,45.211,45.211,0,0,1,4.824-2.736,9.427,9.427,0,0,1,3.816-1.152,2.526,2.526,0,0,1,.72.072l-.792,1.4q-.792,1.4-1.98,3.672T86-13.86q-1.224,2.556-2.2,4.9a20.012,20.012,0,0,0-1.26,3.924,7.724,7.724,0,0,0-.216,1.728A1.957,1.957,0,0,0,82.764-1.8a1.434,1.434,0,0,0,.936.36,4.3,4.3,0,0,0,2.952-1.512,23.265,23.265,0,0,0,2.916-3.636q1.4-2.124,2.484-4.176T93.636-13.9q.432-.792.864-.792t.432.576a1.792,1.792,0,0,1-.216.792q-.864,1.656-2.052,3.96a41.342,41.342,0,0,1-2.7,4.5,17.114,17.114,0,0,1-3.348,3.672A6.155,6.155,0,0,1,82.692.288,5.588,5.588,0,0,1,79.632-.72q-1.548-1.008-1.548-3.744a13.161,13.161,0,0,1,.648-3.672,21.7,21.7,0,0,1,1.548-3.312q1.044-1.872,2.556-4.32a4.232,4.232,0,0,0,.72-1.944.764.764,0,0,0-.864-.864,4.431,4.431,0,0,0-1.98.72,17.345,17.345,0,0,0-3.132,2.52,30.694,30.694,0,0,0-2.7,2.988q-1.548,1.908-3.132,4.14a40.749,40.749,0,0,0-2.736,4.392A15.237,15.237,0,0,0,67.5,0a2.027,2.027,0,0,1-1.728-.9,3.538,3.538,0,0,1-.648-2.124v-.432a2.115,2.115,0,0,1,.072-.5,19.086,19.086,0,0,1,1.152-4.176q.792-1.944,1.8-4.032.792-1.512,1.584-3.276a7.337,7.337,0,0,0,.792-2.7q0-.576-.432-.576a3.774,3.774,0,0,0-1.656.756,26.836,26.836,0,0,0-3.168,2.628,50.228,50.228,0,0,0-4.356,4.968,56.392,56.392,0,0,0-5.58,9.216,1.859,1.859,0,0,1-1.008.972,6.548,6.548,0,0,1-1.8.18q-.792,0-1.332.036A2.934,2.934,0,0,0,50.076.36ZM100.692,0A4.6,4.6,0,0,1,96.66-1.836a7.605,7.605,0,0,1-1.3-4.5A17.164,17.164,0,0,1,96.876-13.1a25.77,25.77,0,0,1,3.672-6.048,21.276,21.276,0,0,1,4.824-4.428,9.229,9.229,0,0,1,5.04-1.692,4.632,4.632,0,0,1,4.032,1.8,7.567,7.567,0,0,1,1.3,4.536,16.811,16.811,0,0,1-1.512,6.768,28.309,28.309,0,0,1-2.448,4.284,26.813,26.813,0,0,1-3.6,4.284A3.81,3.81,0,0,0,109.4-2.268a3.785,3.785,0,0,0,2.16.54,4.764,4.764,0,0,0,3.276-1.44,17.48,17.48,0,0,0,2.844-3.492,41.727,41.727,0,0,0,2.3-4.14q1.008-2.088,1.656-3.384a.744.744,0,0,1,.72-.432.467.467,0,0,1,.432.252.877.877,0,0,1-.072.756q-.432,1.08-1.44,3.2a41.138,41.138,0,0,1-2.448,4.392,16.77,16.77,0,0,1-3.312,3.852,6.306,6.306,0,0,1-4.176,1.584,6.4,6.4,0,0,1-2.736-.54,5.836,5.836,0,0,1-1.872-1.332,14.333,14.333,0,0,1-3.024,1.8A7.623,7.623,0,0,1,100.692,0Zm1.08-1.584a6.7,6.7,0,0,0,4.176-1.872,6.889,6.889,0,0,1-.864-1.8,5.908,5.908,0,0,1-.288-1.728,3.987,3.987,0,0,1,.612-2.232,2.117,2.117,0,0,1,1.908-.936,1.987,1.987,0,0,1,1.548.684,2.26,2.26,0,0,1,.612,1.548,2.023,2.023,0,0,1-.036.4,3.33,3.33,0,0,1-.108.4,24.458,24.458,0,0,0,2.3-3.888q2.376-5.112,2.376-8.424a4.5,4.5,0,0,0-.648-2.592,2.208,2.208,0,0,0-1.944-.936,5.664,5.664,0,0,0-3.276,1.3,16.579,16.579,0,0,0-3.384,3.456,26.324,26.324,0,0,0-2.844,4.824,34.543,34.543,0,0,0-1.836,4.716A13.906,13.906,0,0,0,99.4-4.752a4.1,4.1,0,0,0,.576,2.3A2.01,2.01,0,0,0,101.772-1.584Zm16.416-17.64a3.662,3.662,0,0,1-1.656-.216,7.444,7.444,0,0,1-1.368-.72,8.867,8.867,0,0,1-1.008-.9,2.156,2.156,0,0,1-.432-.972v-.36q0-.576.36-.576l.252.288q.252.288.828.864a2.89,2.89,0,0,0,1.4.72,4.585,4.585,0,0,0,1.548.144,2.153,2.153,0,0,0,1.476-.972,5.186,5.186,0,0,0,.684-3.06q0-3.24,1.08-3.24a2.9,2.9,0,0,1,1.3.432q.792.432.792,2.88a5.28,5.28,0,0,1-.864,3.06,5.842,5.842,0,0,1-2.088,1.908A5.789,5.789,0,0,1,118.188-19.224ZM114.66-30.168a7.666,7.666,0,0,1-1.584-.648q-1.368-.648-3.1-1.584t-3.2-1.728q-1.476-.792-2.052-1.08a7.04,7.04,0,0,1-1.8-1.224,2.535,2.535,0,0,1-.864-1.944q0-1.512,1.44-1.512a4.453,4.453,0,0,1,1.728.864q1.3.864,3.024,2.16t3.348,2.628q1.62,1.332,2.7,2.3t1.08,1.116Q115.38-30.168,114.66-30.168Zm18.5.936a2.27,2.27,0,0,1-1.764-.756,2.639,2.639,0,0,1-.684-1.836A3.148,3.148,0,0,1,131.8-34.2a3.412,3.412,0,0,1,2.376-1.008,2.532,2.532,0,0,1,1.872.72,2.357,2.357,0,0,1,.72,1.728,3.376,3.376,0,0,1-1.08,2.448A3.454,3.454,0,0,1,133.164-29.232ZM127.332,0a4.245,4.245,0,0,1-3.744-1.548,6.075,6.075,0,0,1-1.08-3.564,9.949,9.949,0,0,1,.252-2.2,14.8,14.8,0,0,1,.612-2.052L128.2-21.672a2.934,2.934,0,0,0,.216-1.008,2.218,2.218,0,0,0-.36-1.26l-.5-.756,3.96-.144a2.5,2.5,0,0,1,1.548.252.92.92,0,0,1,.468.756,4.975,4.975,0,0,1-.5,1.584l-5.976,14.04-.4.9a9.811,9.811,0,0,0-.468,1.188q-.216,1.08-.288,1.368a2.165,2.165,0,0,0-.072.36v.576a2.633,2.633,0,0,0,.468,1.584,1.866,1.866,0,0,0,1.62.648,4.04,4.04,0,0,0,1.656-.432,4.814,4.814,0,0,0,1.368-.864A25.475,25.475,0,0,0,134.5-7.812q1.764-3.06,3.276-6.084.288-.72.72-.72.36,0,.36.5a2.759,2.759,0,0,1-.216.864q-.72,1.512-1.8,3.744a36.246,36.246,0,0,1-2.556,4.428,17.1,17.1,0,0,1-3.2,3.636A5.735,5.735,0,0,1,127.332,0Z" transform="translate(213 190)" fill="#cde8a3"/>
    <path id="Path_379" data-name="Path 379" d="M-102.78,6.768a39.44,39.44,0,0,1-10.008-1.26,28.716,28.716,0,0,1-8.64-3.78,19.4,19.4,0,0,1-6.084-6.336,17.289,17.289,0,0,1-2.268-9,27,27,0,0,1,1.368-8.136,12.058,12.058,0,0,1,2.268-4.176,12.364,12.364,0,0,1,3.06-2.664,5.463,5.463,0,0,1,2.52-.936q1.224,0,1.008,1.152a7.225,7.225,0,0,1-1.476,1.188,18.233,18.233,0,0,0-2.232,1.764,12.793,12.793,0,0,0-2.232,2.772,11.825,11.825,0,0,0-1.476,4.284q-.144.936-.252,1.872a15.715,15.715,0,0,0-.108,1.8,16.658,16.658,0,0,0,2.016,8.28,18.375,18.375,0,0,0,5.292,5.976,24.035,24.035,0,0,0,7.2,3.564,24.971,24.971,0,0,0,7.74,1.116,36.412,36.412,0,0,0,10.368-1.62A30.721,30.721,0,0,0-86.652-1.3,35.717,35.717,0,0,0-80.46-6.7,42.98,42.98,0,0,0-76-12.672q2.232-3.528,4.356-7.6t4.032-8.1Q-65.7-32.4-64.044-36t2.88-6.156a20.973,20.973,0,0,1,2.016-3.564,101.6,101.6,0,0,0-10.908-2.7A82.857,82.857,0,0,0-81.18-49.68a24.437,24.437,0,0,0-9.612,1.224,21.9,21.9,0,0,0-7.128,4.068,18.914,18.914,0,0,0-4.464,5.58,12.784,12.784,0,0,0-1.548,5.832,7.725,7.725,0,0,0,1.26,4.356,7.115,7.115,0,0,0,3.852,2.772,12.051,12.051,0,0,0,3.384.5,9.189,9.189,0,0,0,4.536-1.08,11.878,11.878,0,0,0,3.276-2.628A14.069,14.069,0,0,0-85.608-32a5.5,5.5,0,0,0,.684-2.052v-.072a.983.983,0,0,1,.72-.432q.72,0,.72,1.008a10.407,10.407,0,0,1-2.2,5.4,12.344,12.344,0,0,1-4.428,3.528A12.66,12.66,0,0,1-95.58-23.4a11.8,11.8,0,0,1-3.888-.648,11.39,11.39,0,0,1-5.976-4.644,12.8,12.8,0,0,1-2.016-6.948,15.618,15.618,0,0,1,1.368-6.3,17.481,17.481,0,0,1,4.176-5.76,20.95,20.95,0,0,1,6.984-4.212A27.559,27.559,0,0,1-85.14-53.5h1.512q.576,0,1.944.144a46.123,46.123,0,0,1,6.84,1.116q3.456.828,6.624,1.836t5.832,1.944q2.664.936,4.392,1.368a6.679,6.679,0,0,1,1.26-1.008q1.044-.72,2.16-1.512a21.2,21.2,0,0,0,1.764-1.368q.648-.576.072-.576h-.072a1.873,1.873,0,0,1,.576-.072,1.277,1.277,0,0,1,1.08.468,1.575,1.575,0,0,1,.36.972q0,.936-.864.936a2.357,2.357,0,0,1-.576-.144q-.288-.288-1.044.288a15.035,15.035,0,0,0-1.512,1.332q-.756.756-1.188,1.26,1.584.5,4,1.188t5.184,1.368q2.772.684,5.436,1.116a30.033,30.033,0,0,0,4.752.432,8.366,8.366,0,0,0,3.2-.5,1.712,1.712,0,0,0,1.188-1.656,1.531,1.531,0,0,1,.18-.756.712.712,0,0,1,.684-.324q.36,0,.5.612a4.5,4.5,0,0,1,.144.972,3.2,3.2,0,0,1-1.836,2.808,8.891,8.891,0,0,1-4.572,1.08q-.432,0-.864-.036t-.936-.108A63.133,63.133,0,0,1-51.48-42.912Q-55.98-44.5-57.132-45A61.361,61.361,0,0,0-62.46-34.344q-2.088,5.472-3.924,10.944a97.342,97.342,0,0,1-4.248,10.584A41.73,41.73,0,0,1-77-3.168,25.422,25.422,0,0,1-84.024,2.3a35.788,35.788,0,0,1-8.964,3.348A43.3,43.3,0,0,1-102.78,6.768ZM-65.124.576q3.024-6.192,6.3-13t6.732-13.716q3.456-6.912,6.84-13.176A22.119,22.119,0,0,1-42.984-42.7a3.462,3.462,0,0,1,2.772-1.224A6.346,6.346,0,0,1-38.7-43.7a3.9,3.9,0,0,0,1.656.072A27.536,27.536,0,0,0-39.6-40.1q-1.62,2.52-3.6,6.048t-4.176,7.6q-2.2,4.068-4.32,8.208t-3.924,7.74q1.44-1.872,2.952-3.528a32.815,32.815,0,0,1,2.952-2.88,32.5,32.5,0,0,1,4-3.024A40.957,40.957,0,0,1-40.9-22.68a9.662,9.662,0,0,1,3.852-1.152,2.526,2.526,0,0,1,.72.072l-.792,1.44q-.792,1.44-1.98,3.672t-2.448,4.824q-1.26,2.592-2.2,4.932A21.984,21.984,0,0,0-44.964-5.04,10.854,10.854,0,0,0-45.18-3.1a2.093,2.093,0,0,0,.432,1.548,1.362,1.362,0,0,0,.936.4,3.95,3.95,0,0,0,2.664-1.512A22.991,22.991,0,0,0-38.34-6.372q1.368-2.2,2.484-4.284t1.692-3.24q.432-.792.864-.792t.432.576a2.759,2.759,0,0,1-.216.864q-.936,1.872-2.124,4.212a37.788,37.788,0,0,1-2.664,4.464,15.711,15.711,0,0,1-3.24,3.492A6.056,6.056,0,0,1-44.892.288,5.324,5.324,0,0,1-47.844-.72q-1.512-1.008-1.512-3.672a10.737,10.737,0,0,1,.144-1.692,14.861,14.861,0,0,1,.5-2.052,15.676,15.676,0,0,1,1.44-3.2q1.008-1.764,2.592-4.428a4.232,4.232,0,0,0,.72-1.944.764.764,0,0,0-.864-.864,4.232,4.232,0,0,0-1.944.72,18.24,18.24,0,0,0-3.1,2.52,55.268,55.268,0,0,0-4.464,5.04,54.142,54.142,0,0,0-5.688,9.288q-.5.936-1.116.972t-1.62.108q-.648.072-1.3.108A1.792,1.792,0,0,0-65.124.576Zm42.336-29.808a2.27,2.27,0,0,1-1.764-.756,2.639,2.639,0,0,1-.684-1.836,3.148,3.148,0,0,1,1.08-2.376,3.412,3.412,0,0,1,2.376-1.008,2.532,2.532,0,0,1,1.872.72,2.357,2.357,0,0,1,.72,1.728,3.376,3.376,0,0,1-1.08,2.448A3.454,3.454,0,0,1-22.788-29.232ZM-28.62,0a4.245,4.245,0,0,1-3.744-1.548,6.075,6.075,0,0,1-1.08-3.564,9.949,9.949,0,0,1,.252-2.2A14.8,14.8,0,0,1-32.58-9.36l4.824-12.312a2.934,2.934,0,0,0,.216-1.008,2.218,2.218,0,0,0-.36-1.26l-.5-.756,3.96-.144a2.5,2.5,0,0,1,1.548.252.92.92,0,0,1,.468.756,4.975,4.975,0,0,1-.5,1.584l-5.976,14.04-.4.9a9.812,9.812,0,0,0-.468,1.188q-.216,1.08-.288,1.368a2.165,2.165,0,0,0-.072.36v.576a2.633,2.633,0,0,0,.468,1.584,1.866,1.866,0,0,0,1.62.648,4.04,4.04,0,0,0,1.656-.432A4.814,4.814,0,0,0-25.02-2.88a25.475,25.475,0,0,0,3.564-4.932q1.764-3.06,3.276-6.084.288-.72.72-.72.36,0,.36.5a2.759,2.759,0,0,1-.216.864q-.72,1.512-1.8,3.744a36.245,36.245,0,0,1-2.556,4.428,17.1,17.1,0,0,1-3.2,3.636A5.735,5.735,0,0,1-28.62,0ZM-9.756.288A7.389,7.389,0,0,1-14.544-1.44,6.376,6.376,0,0,1-16.668-6.7a17.753,17.753,0,0,1,1.584-6.948,24.438,24.438,0,0,1,4.032-6.516,19.518,19.518,0,0,1,4.68-4.032,9.462,9.462,0,0,1,4.9-1.584,4.431,4.431,0,0,1,2.736.864,3.155,3.155,0,0,1,1.224,2.664,7.55,7.55,0,0,1-1.368,3.96,15.329,15.329,0,0,1-3.888,4.032,14.265,14.265,0,0,1-2.736,1.512A26.123,26.123,0,0,1-8.82-11.556a10.481,10.481,0,0,1-2.736.468,14.4,14.4,0,0,0-.684,2.3,13.407,13.407,0,0,0-.324,2.952,7.145,7.145,0,0,0,.72,3.24A2.7,2.7,0,0,0-9.18-1.152,7.336,7.336,0,0,0-4.86-2.52,15.055,15.055,0,0,0-1.4-5.94a28.414,28.414,0,0,0,2.556-4.14Q2.2-12.168,2.844-13.608,3.276-14.616,4-14.616a.318.318,0,0,1,.36.36,1.7,1.7,0,0,1-.216.72q-1.008,2.16-2.16,4.572A27.116,27.116,0,0,1-.756-4.428a12.807,12.807,0,0,1-3.78,3.42A10.087,10.087,0,0,1-9.756.288Zm-1.3-12.672a13.1,13.1,0,0,0,3.384-.756,12.408,12.408,0,0,0,4.32-2.412,12.345,12.345,0,0,0,2.88-3.636A7.729,7.729,0,0,0,.54-22.536q0-1.584-1.152-1.584a4.531,4.531,0,0,0-2.376,1.152A24.607,24.607,0,0,0-6.732-19.08a36.748,36.748,0,0,0-2.592,3.744Q-10.548-13.32-11.052-12.384Zm.144,22.968a2.27,2.27,0,0,1-1.764-.756,2.639,2.639,0,0,1-.684-1.836,3.148,3.148,0,0,1,1.08-2.376A3.412,3.412,0,0,1-9.9,4.608a2.532,2.532,0,0,1,1.872.72,2.357,2.357,0,0,1,.72,1.728A3.376,3.376,0,0,1-8.388,9.5,3.454,3.454,0,0,1-10.908,10.584Zm2.88-41.112,10.8-7.7.684-.072a12.726,12.726,0,0,1,1.332-.072q.72,0,.72.144l2.592,7.7q0,.072.036.072t.036.072q0,.288-.5.288a1.121,1.121,0,0,1-1.008-.432L3.276-34.776q-.792.432-2.2,1.08t-2.952,1.3q-1.548.648-2.736,1.152a15.483,15.483,0,0,0-1.548.72,1.583,1.583,0,0,1-.648.288,3.663,3.663,0,0,1-.72.072,1.071,1.071,0,0,1-.54-.108Q-8.244-30.384-8.028-30.528Zm3.384,50.184A6.525,6.525,0,0,1-6.408,19.4,4.305,4.305,0,0,0-8.244,19.3a16.966,16.966,0,0,0,1.656-2.484q1.224-2.052,2.844-5.076t3.42-6.552q1.8-3.528,3.384-6.948t2.7-6.264a24.96,24.96,0,0,0,1.4-4.5A2.2,2.2,0,0,1,5.9-11.484q-.612.108-.324-.4.144-.288.612-1.4t.828-1.908a21.408,21.408,0,0,0,.972-3.168,14.827,14.827,0,0,0,.4-3.312A6.062,6.062,0,0,0,8.172-23.4a.963.963,0,0,0-.792-.792l.792-.144q.792-.144,1.656-.288a8.836,8.836,0,0,1,1.152-.144q.432-.072.792-.108t.648-.036a.932.932,0,0,1,.9.468,4.677,4.677,0,0,1,.252,1.908,22.05,22.05,0,0,1-.612,4.572,35.191,35.191,0,0,1-1.4,4.86q.792-1.3,2.052-3.312a45.08,45.08,0,0,1,2.916-4.1,20.725,20.725,0,0,1,3.456-3.492,5.769,5.769,0,0,1,3.528-1.4,4.047,4.047,0,0,1,.936.144,4.238,4.238,0,0,1,2.844,1.98,7.024,7.024,0,0,1,.828,3.492,15.727,15.727,0,0,1-.828,4.752,28.466,28.466,0,0,1-2.2,5.076,29.44,29.44,0,0,1-3.024,4.5A15.585,15.585,0,0,1,17.244-1.44,12.012,12.012,0,0,1,11.484.072,9.563,9.563,0,0,1,6.516-1.3L-.324,15.912a8.863,8.863,0,0,1-1.944,2.952A3.551,3.551,0,0,1-4.644,19.656ZM9.18-1.44a7.912,7.912,0,0,0,4.536-1.872A26.805,26.805,0,0,0,18.576-8.1,38.475,38.475,0,0,0,22.5-13.968a20.166,20.166,0,0,0,1.584-3.708,10.465,10.465,0,0,0,.5-2.916q0-2.808-2.016-2.808a4.693,4.693,0,0,0-2.412,1.008,15.745,15.745,0,0,0-3.42,3.672,80.222,80.222,0,0,0-4.572,7.236Q9.684-7.128,7.092-2.3A2.845,2.845,0,0,0,9.18-1.44ZM49.212.36q2.664-5.112,5.04-10.26t4.824-9.756a19.858,19.858,0,0,1,2.412-3.636,3.417,3.417,0,0,1,2.628-1.044,4.58,4.58,0,0,1,1.224.18,4.823,4.823,0,0,0,1.3.18,2.184,2.184,0,0,0,.648-.072A10,10,0,0,0,64.692-21.2q-1.584,2.268-3.24,5.22T58.5-10.44q1.368-1.656,2.844-3.312A31.622,31.622,0,0,1,64.62-16.92q1.584-1.368,3.348-2.988A28.884,28.884,0,0,1,71.46-22.68a5.7,5.7,0,0,1,3.024-1.152,1.788,1.788,0,0,1,.648.072A1.945,1.945,0,0,1,76.5-21.888a3.8,3.8,0,0,1-.36,1.3,35.125,35.125,0,0,1-2.412,5q-1.476,2.556-2.772,5.148,1.08-1.3,2.7-3.168a32.954,32.954,0,0,1,3.276-3.312,31.363,31.363,0,0,1,4.032-3.024,45.211,45.211,0,0,1,4.824-2.736A9.427,9.427,0,0,1,89.6-23.832a2.526,2.526,0,0,1,.72.072l-.792,1.4q-.792,1.4-1.98,3.672T85.14-13.86q-1.224,2.556-2.2,4.9a20.012,20.012,0,0,0-1.26,3.924,7.724,7.724,0,0,0-.216,1.728A1.957,1.957,0,0,0,81.9-1.8a1.434,1.434,0,0,0,.936.36,4.3,4.3,0,0,0,2.952-1.512A23.265,23.265,0,0,0,88.7-6.588q1.4-2.124,2.484-4.176T92.772-13.9q.432-.792.864-.792t.432.576a1.792,1.792,0,0,1-.216.792q-.864,1.656-2.052,3.96a41.342,41.342,0,0,1-2.7,4.5,17.114,17.114,0,0,1-3.348,3.672A6.155,6.155,0,0,1,81.828.288,5.588,5.588,0,0,1,78.768-.72Q77.22-1.728,77.22-4.464a13.161,13.161,0,0,1,.648-3.672,21.7,21.7,0,0,1,1.548-3.312q1.044-1.872,2.556-4.32a4.232,4.232,0,0,0,.72-1.944.764.764,0,0,0-.864-.864,4.431,4.431,0,0,0-1.98.72,17.345,17.345,0,0,0-3.132,2.52,30.694,30.694,0,0,0-2.7,2.988q-1.548,1.908-3.132,4.14a40.749,40.749,0,0,0-2.736,4.392A15.237,15.237,0,0,0,66.636,0a2.027,2.027,0,0,1-1.728-.9,3.538,3.538,0,0,1-.648-2.124v-.432a2.115,2.115,0,0,1,.072-.5,19.086,19.086,0,0,1,1.152-4.176q.792-1.944,1.8-4.032.792-1.512,1.584-3.276a7.337,7.337,0,0,0,.792-2.7q0-.576-.432-.576a3.774,3.774,0,0,0-1.656.756A26.836,26.836,0,0,0,64.4-15.336a50.228,50.228,0,0,0-4.356,4.968,56.392,56.392,0,0,0-5.58,9.216A1.859,1.859,0,0,1,53.46-.18a6.548,6.548,0,0,1-1.8.18q-.792,0-1.332.036A2.934,2.934,0,0,0,49.212.36ZM99.4,0a4.6,4.6,0,0,1-4.032-1.836,7.605,7.605,0,0,1-1.3-4.5A17.164,17.164,0,0,1,95.58-13.1a25.77,25.77,0,0,1,3.672-6.048,21.276,21.276,0,0,1,4.824-4.428,9.229,9.229,0,0,1,5.04-1.692,4.632,4.632,0,0,1,4.032,1.8,7.567,7.567,0,0,1,1.3,4.536,16.811,16.811,0,0,1-1.512,6.768,28.309,28.309,0,0,1-2.448,4.284,26.813,26.813,0,0,1-3.6,4.284,3.81,3.81,0,0,0,1.224,1.332,3.785,3.785,0,0,0,2.16.54,4.764,4.764,0,0,0,3.276-1.44,17.48,17.48,0,0,0,2.844-3.492,41.727,41.727,0,0,0,2.3-4.14q1.008-2.088,1.656-3.384a.744.744,0,0,1,.72-.432.467.467,0,0,1,.432.252.877.877,0,0,1-.072.756q-.432,1.08-1.44,3.2a41.138,41.138,0,0,1-2.448,4.392,16.77,16.77,0,0,1-3.312,3.852,6.306,6.306,0,0,1-4.176,1.584,6.4,6.4,0,0,1-2.736-.54,5.836,5.836,0,0,1-1.872-1.332,14.333,14.333,0,0,1-3.024,1.8A7.623,7.623,0,0,1,99.4,0Zm1.08-1.584a6.7,6.7,0,0,0,4.176-1.872,6.889,6.889,0,0,1-.864-1.8,5.908,5.908,0,0,1-.288-1.728,3.987,3.987,0,0,1,.612-2.232,2.117,2.117,0,0,1,1.908-.936,1.987,1.987,0,0,1,1.548.684,2.26,2.26,0,0,1,.612,1.548,2.023,2.023,0,0,1-.036.4,3.33,3.33,0,0,1-.108.4,24.458,24.458,0,0,0,2.3-3.888q2.376-5.112,2.376-8.424a4.5,4.5,0,0,0-.648-2.592,2.208,2.208,0,0,0-1.944-.936,5.664,5.664,0,0,0-3.276,1.3,16.579,16.579,0,0,0-3.384,3.456,26.324,26.324,0,0,0-2.844,4.824,34.543,34.543,0,0,0-1.836,4.716A13.906,13.906,0,0,0,98.1-4.752a4.1,4.1,0,0,0,.576,2.3A2.01,2.01,0,0,0,100.476-1.584Zm16.416-17.64a3.662,3.662,0,0,1-1.656-.216,7.444,7.444,0,0,1-1.368-.72,8.867,8.867,0,0,1-1.008-.9,2.156,2.156,0,0,1-.432-.972v-.36q0-.576.36-.576l.252.288q.252.288.828.864a2.89,2.89,0,0,0,1.4.72,4.585,4.585,0,0,0,1.548.144,2.153,2.153,0,0,0,1.476-.972,5.186,5.186,0,0,0,.684-3.06q0-3.24,1.08-3.24a2.9,2.9,0,0,1,1.3.432q.792.432.792,2.88a5.28,5.28,0,0,1-.864,3.06,5.842,5.842,0,0,1-2.088,1.908A5.789,5.789,0,0,1,116.892-19.224Zm-3.528-10.944a7.666,7.666,0,0,1-1.584-.648q-1.368-.648-3.1-1.584t-3.2-1.728q-1.476-.792-2.052-1.08a7.04,7.04,0,0,1-1.8-1.224,2.535,2.535,0,0,1-.864-1.944q0-1.512,1.44-1.512a4.453,4.453,0,0,1,1.728.864q1.3.864,3.024,2.16t3.348,2.628q1.62,1.332,2.7,2.3t1.08,1.116Q114.084-30.168,113.364-30.168Zm18.072.936a2.27,2.27,0,0,1-1.764-.756,2.639,2.639,0,0,1-.684-1.836,3.148,3.148,0,0,1,1.08-2.376,3.412,3.412,0,0,1,2.376-1.008,2.532,2.532,0,0,1,1.872.72,2.357,2.357,0,0,1,.72,1.728,3.376,3.376,0,0,1-1.08,2.448A3.454,3.454,0,0,1,131.436-29.232ZM125.6,0a4.245,4.245,0,0,1-3.744-1.548,6.075,6.075,0,0,1-1.08-3.564,9.949,9.949,0,0,1,.252-2.2,14.8,14.8,0,0,1,.612-2.052l4.824-12.312a2.934,2.934,0,0,0,.216-1.008,2.218,2.218,0,0,0-.36-1.26l-.5-.756,3.96-.144a2.5,2.5,0,0,1,1.548.252.92.92,0,0,1,.468.756,4.975,4.975,0,0,1-.5,1.584l-5.976,14.04-.4.9a9.811,9.811,0,0,0-.468,1.188q-.216,1.08-.288,1.368a2.165,2.165,0,0,0-.072.36v.576a2.633,2.633,0,0,0,.468,1.584,1.866,1.866,0,0,0,1.62.648,4.04,4.04,0,0,0,1.656-.432A4.814,4.814,0,0,0,129.2-2.88a25.475,25.475,0,0,0,3.564-4.932q1.764-3.06,3.276-6.084.288-.72.72-.72.36,0,.36.5a2.759,2.759,0,0,1-.216.864q-.72,1.512-1.8,3.744a36.246,36.246,0,0,1-2.556,4.428,17.1,17.1,0,0,1-3.2,3.636A5.735,5.735,0,0,1,125.6,0Z" transform="translate(213 191)" fill="#fff"/>
  </g>
</svg>
